/* XPM */
static char *result[] = {
/* columns rows colors chars-per-pixel */
"64 64 154 2 ",
"   c #150302",
".  c #1C0603",
"X  c #1D0903",
"o  c #1D0908",
"O  c #200703",
"+  c #230C02",
"@  c #220A08",
"#  c #261203",
"$  c #291304",
"%  c #2C1907",
"&  c #241309",
"*  c #2A130C",
"=  c #301403",
"-  c #351C03",
";  c #33180A",
":  c #2D1B14",
">  c #2D1D1A",
",  c #301712",
"<  c #341C13",
"1  c #381E11",
"2  c #351E1A",
"3  c #3F2705",
"4  c #35211B",
"5  c #3B231E",
"6  c #3C2824",
"7  c #432B08",
"8  c #4D3602",
"9  c #463009",
"0  c #42231C",
"q  c #4D3718",
"w  c #523812",
"e  c #432520",
"r  c #432A23",
"t  c #4D2C25",
"y  c #452F2A",
"u  c #4F2E28",
"i  c #45312D",
"p  c #4D352C",
"a  c #4D382A",
"s  c #503A27",
"d  c #55342D",
"f  c #59342D",
"g  c #533A2B",
"h  c #5A3A2F",
"j  c #4C3531",
"k  c #533731",
"l  c #5B3730",
"z  c #553932",
"x  c #5D3A32",
"c  c #613B33",
"v  c #594317",
"b  c #5C451C",
"n  c #7F5D06",
"m  c #614A1C",
"M  c #634920",
"N  c #6B5328",
"B  c #6D5829",
"V  c #725823",
"C  c #775D2B",
"Z  c #755F33",
"A  c #776229",
"S  c #906E14",
"D  c #9B6814",
"F  c #A07D0D",
"G  c #A5741B",
"H  c #9C6D2A",
"J  c #816231",
"K  c #846835",
"L  c #886F31",
"P  c #896E3F",
"I  c #8E7338",
"U  c #947434",
"Y  c #9B7A33",
"T  c #957B3B",
"R  c #8A7241",
"E  c #957940",
"W  c #987C42",
"Q  c #957C4B",
"!  c #AC831E",
"~  c #B38914",
"^  c #BB981F",
"/  c #AA8B2F",
"(  c #B08325",
")  c #BE8F2A",
"_  c #AE823B",
"`  c #A48B38",
"'  c #AB883E",
"]  c #B68930",
"[  c #C09437",
"{  c #D5AC38",
"}  c #9C8841",
"|  c #9A824E",
" . c #9A8651",
".. c #A68540",
"X. c #AC8C46",
"o. c #A88C4F",
"O. c #B28E45",
"+. c #B09246",
"@. c #B89D41",
"#. c #B59D4E",
"$. c #A58C53",
"%. c #AA8E5F",
"&. c #A79054",
"*. c #AD9655",
"=. c #B49655",
"-. c #B1955D",
";. c #BDA048",
":. c #BDA955",
">. c #BBA45E",
",. c #B59864",
"<. c #D3A149",
"1. c #DDBA4A",
"2. c #D0A356",
"3. c #C9B250",
"4. c #D3B751",
"5. c #E3BC5A",
"6. c #DAB065",
"7. c #C7B277",
"8. c #CFB771",
"9. c #D4BA79",
"0. c #D9C158",
"q. c #EAC541",
"w. c #F2D04A",
"e. c #F2C85F",
"r. c #EFD354",
"t. c #F5DF50",
"y. c #F7D25B",
"u. c #F0DC5D",
"i. c #FEDD58",
"p. c #FCE150",
"a. c #FAE35E",
"s. c #DBC36E",
"d. c #DEC976",
"f. c #E6C565",
"g. c #ECD364",
"h. c #EED36D",
"j. c #FCDB67",
"k. c #E6D270",
"l. c #F9DE71",
"z. c #FEDE7E",
"x. c #F7E365",
"c. c #FEE264",
"v. c #FCE47A",
"b. c #D9BF83",
"n. c #FBD688",
"m. c #ECCC9F",
"M. c #FCE284",
"N. c #FFE68D",
"B. c #FFF185",
"V. c #FDE69B",
"C. c #FFEA9B",
"Z. c #F9DCA6",
"A. c #FBE1A8",
"S. c #FEF6B1",
/* pixels */
"c c c c c c c c c c c c c c c c c c c c c c c c c c c c x j j z c c c c c c c c c c c c c c c c c c c c c c c c c c c c c c c c ",
"c c c c c c c c c c c c c c c c c c c c c c c c c c c c x j j z c c c c c c c c c c c c c c c c c c c c c c c c c c c c c c c c ",
"c c c c c c c c c c c c c c c c c c c c c c c c c c c c x j j z c c c c c c c c c c c c c c c c c c c c c c c c c c c c c c c c ",
"c c c c c c c c c c c c c c c c c c c c c c c c c c c c x j j z c c c c c c c c c c c c c c c c c c c c c c c c c c c c c c c c ",
"c c c c c c c c c c c c c c c c c c c c c c c c c c c c x j j j c c c c c c c c c c c c c c c c c c c c c c c c c c c c c c c c ",
"c c c c c c c c c c c c c c c c c c c c c c c c c c c c c j j z c c c c c c c c c c c c c c c c c c c c c c c c c c c c c c c c ",
"c c c c c c c c c c c c c c c c c c c c c c c c c c c c x j j z c c c c c c c c c c c c c c c c c c c c c c c c c c c c c c c c ",
"c c c c c c c c c c c c c c c c c c c c c c c c c c c c c j j z c c c c c c c c c c c c c c c c c c c c c c c c c c c c c c c c ",
"c c c c c c c c c c c c c c c c c c c c c c c c c c c c x j j j k c c c c c c c c c c c c c c c c c c c c c c c c c c c c c c c ",
"c c c c c c c c c c c c c c c c c c c c c c c c c c c c x j j j j c c c c c c c c c c c c c c c c c c c c c c c c c c c c c c c ",
"c c c c c c c c c c c c c c c c c c c c c c c c c c c c c j j j j x c c c c c c c c c c c c c c c c c c c c c c c c c c c c c c ",
"c c c c c c c c c c c c c c c c c c c c c c c c c c c c c j j j j j x c c c c c c c c c c c c c c c c c c c c c c c c c c c c c ",
"c c c c c c c c c c c c c c c c c c c c c c c c c c c c x j j j j j x x c c c x k c c c c c c c c c c c c c c c c c c c c c c c ",
"c c c c c c c c c c c c c c c c c c c c c c c c c c c c c j j j j j x c c x x x z c c c c c c c c c c c c c c c c c c c c c c c ",
"c c c c c c c c c c c c c c c c c c c c c c c c c c c c x j j j j j k c x z x c x c c c c c c c c c c c c c c c c c c c c c c c ",
"c c c c c c c c c c c c c c c c c c c c c c c c c c c c x j j j j j z j z k x x c c c c c c c c c c c c c c c c c c c c c c c c ",
"c c c c c c c c c c c c c c c c c c c c c c c c c c c c x j j j j j z z z x c c c c c c c c c c c c c c c c c c c c c c c c c c ",
"c c c c c c c c c c c c c c c c c c c c c c c c c c c c x j j j j p z c c c c c c c c c c c c c c c c c c c c c c c c c c c c c ",
"c c c c c c c c c c c c c c c c c c c c c c c c c c c c c j j j j j x x c c c c c c c c c c c c c c c c c c c c c c c c c c c c ",
"c c c c c c c c c c c c c c c c c c c c c c c c c c c c x j j j j j x c c c c c c c c c c c c c c c c c c c c c c c c c c c c c ",
"c c c c c c c c c c c c c c c c c c c c c c c c c c c c x j j j j k x x c c c c c c c c c c c c c c c c c c c c c c c c c c c c ",
"c c c c c c c c c c c c c c c c c c c c c c c c c c c c x j j j j x c c c c c c c c c c c c c c c c c c c c c c c c c c c c c c ",
"c c c c c c c c c c c c c c c c c c c c c c c c c c c c x j j j j c c c c c c c c c c c c c c c c c c c c c c c c c c c c c c c ",
"c c c c c c c c c c c c c c c c c c c c c c c c c c c c x j j j k x c c c c c c c c c c c c c c c c c c c c c c c c c c c c c c ",
"c c c c c c c c c c c c c c c c c c c c c c c c c c c c x j j j j c c c c c c c c c c c c c c c c c c c c c c c c c c c c c c c ",
"c c c c c c c c c c c c c c c c c c c c c c c x s z p 5 4 4 6 p k x c c c c c c c c c c c c c c c c c c c c c c c c c c c c c c ",
"c c c c c c c c c c c c c c c c c c c c c c x a 5 6 6   .     o o o 0 x c c c c c c c c c c c c c c c c c c c c c c c c c c c c ",
"c c c c c c c c c c c c c c c c c c c c c c p 1 .     X X + # + X # + o @ @ h c c c c c c c c c c c c c c c c c c c c c c c c c ",
"c c c c c c c c c c c c c c c c c c c c c f 1 + . . # C -.T V =.>.} 8 . + + * d x c c c c c c c c c c c c c c c c c c c c c c c ",
"c c c c c c c c c c c c c c c c c c c c c ; O 7 | *.;.;./ S n / 4.0.3.#.&.Z O O r d x x c c c c c c c c c c c c c c c c c c c c ",
"c c c c c c c c c c c c c c c c c c c c c . - L s.h.g.[ ! ! ] ) 1.r.a.u.g.:.v . * r s x c c c c c c c c c c c c c c c c c c c c ",
"c c c c c c c c c c c c c c c c c c c c c   m 8.M.l.u.^ F ^ <.<.{ w.p.t.x.k.$.$   2 p h c c c c c c c c c c c c c c c c c c c c ",
"c c c c c c c c c c c c c c c c c c c c c   v 7.V.N.z.5.( D D G ~ q.i.c.v.d. .#   : a s x c c c c c c c c c c c c c c c c c c c ",
"c c c c c c c c c c c c c c c c c c c c c   7 Q b.S.S.n.6._ H 2.e.y.j.B.N.>.Z +   : a g c c c c c c c c c c c c c c c c c c c c ",
"c c c c c c c c c c c c c c c c c c c c c . 7 P W o.9.V.A.Z.m.Z.C.M.f.@.` T B # X < p x c c c c c c c c c c c c c c c c c c c c ",
"c c c c c c c c c c c c c c c c c c c c c t = b Q $.-.-.-.%.%.,.=.X.+.+.} A 9 X ; r p x c c c c c c c c c c c c c c c c c c c c ",
"c c c c c c c c c c c c c c c c c c c c c c O # q M K T ..+.O.' X.W I V b 3 # < t l l c c c c c c c c c c c c c c c c c c c c c ",
"c c c c c c c c c c c c c c c c c c c c c c f     O w J U U Y Y E R N - X % 0 f l c x c c c c c c c c c c c c c c c c c c c c c ",
"c c c c c c c c c c c c c c c c c c c c c c c t O   + * @ * % & * * 1 1 0 d l c c c c c c c c c c c c c c c c c c c c c c c c c ",
"c c c c c c c c c c c c c c c c c c c c c c c c f 2 , O * : > 2 e e f f l c c c c c c c c c c c c c c c c c c c c c c c c c c c ",
"c c c c c c c c c c c c c c c c c c c c c c c c c l d t u y i p l c c c c c c c c c c c c c c c c c c c c c c c c c c c c c c c ",
"c c c c c c c c c c c c c c c c c c c c c c c c c c c x x j j k c c c c c c c c c c c c c c c c c c c c c c c c c c c c c c c c ",
"c c c c c c c c c c c c c c c c c c c c c c c c c c c c x j j k c c c c c c c c c c c c c c c c c c c c c c c c c c c c c c c c ",
"c c c c c c c c c c c c c c c c c c c c c c c c c c c c x j j l c c c c c c c c c c c c c c c c c c c c c c c c c c c c c c c c ",
"c c c c c c c c c c c c c c c c c c c c c c c c c c c c x j j k c c c c c c c c c c c c c c c c c c c c c c c c c c c c c c c c ",
"c c c c c c c c c c c c c c c c c c c c c c c c c c c c x j j k c c c c c c c c c c c c c c c c c c c c c c c c c c c c c c c c ",
"c c c c c c c c c c c c c c c c c c c c c c c c c c c c x j j k c c c c c c c c c c c c c c c c c c c c c c c c c c c c c c c c ",
"c c c c c c c c c c c c c c c c c c c c c c c c c c c c c j j k c c c c c c c c c c c c c c c c c c c c c c c c c c c c c c c c ",
"c c c c c c c c c c c c c c c c c c c c c c c c c c c c x j j k c c c c c c c c c c c c c c c c c c c c c c c c c c c c c c c c ",
"c c c c c c c c c c c c c c c c c c c c c c c c c c c x z j j k c c c c c c c c c c c c c c c c c c c c c c c c c c c c c c c c ",
"c c c c c c c c c c c c c c c c c c c c c c c c c c c x i j j k c c c c c c c c c c c c c c c c c c c c c c c c c c c c c c c c ",
"c c c c c c c c c c c c c c c c c c c c c c c c c c c z j j j k c c c c c c c c c c c c c c c c c c c c c c c c c c c c c c c c ",
"c c c c c c c c c c c c c c c c c c c c c c c c c c x z j j j k c c c c c c c c c c c c c c c c c c c c c c c c c c c c c c c c ",
"c c c c c c c c c c c c c c c c c c c c c c c c c c x z j j j k c c c c c c c c c c c c c c c c c c c c c c c c c c c c c c c c ",
"c c c c c c c c c c c c c c c c c c c c c c c c x x z j j j j k c c c c c c c c c c c c c c c c c c c c c c c c c c c c c c c c ",
"c c c c c c c c c c c c c c c c c c c c c c c c x z j z x j j k c c c c c c c c c c c c c c c c c c c c c c c c c c c c c c c c ",
"c c c c c c c c c c c c c c c c c c c c c c c c x j z x x j j k c c c c c c c c c c c c c c c c c c c c c c c c c c c c c c c c ",
"c c c c c c c c c c c c c c c c c c c c c c c c x j x x x j j k c c c c c c c c c c c c c c c c c c c c c c c c c c c c c c c c ",
"c c c c c c c c c c c c c c c c c c c c c c c c x j x z j j j j c c c c c c c c c c c c c c c c c c c c c c c c c c c c c c c c ",
"c c c c c c c c c c c c c c c c c c c c c c c c c x x x x j j k c c c c c c c c c c c c c c c c c c c c c c c c c c c c c c c c ",
"c c c c c c c c c c c c c c c c c c c c c c c c c c c x z j j k c c c c c c c c c c c c c c c c c c c c c c c c c c c c c c c c ",
"c c c c c c c c c c c c c c c c c c c c c c c c c c x x j j j k c c c c c c c c c c c c c c c c c c c c c c c c c c c c c c c c ",
"c c c c c c c c c c c c c c c c c c c c c c c c c c c x j j j j c c c c c c c c c c c c c c c c c c c c c c c c c c c c c c c c ",
"c c c c c c c c c c c c c c c c c c c c c c c c c c c z j j j l c c c c c c c c c c c c c c c c c c c c c c c c c c c c c c c c "
};
