/* XPM */
static char *_a9cbd50b1b44e50898e371d6c4a9aa5bBCbX8hj2zQm2N4U[] = {
/* columns rows colors chars-per-pixel */
"64 64 192 2 ",
"   c #050000",
".  c #0A0404",
"X  c #0E0807",
"o  c #0E0708",
"O  c #0E0A0A",
"+  c #100707",
"@  c #100807",
"#  c #130B0A",
"$  c #190E0D",
"%  c #1C110E",
"&  c #1A0F10",
"*  c #161313",
"=  c #1D1514",
"-  c #161819",
";  c #1D1B1C",
":  c #231613",
">  c #281714",
",  c #271816",
"<  c #2A1A17",
"1  c #241C1C",
"2  c #2C1D1B",
"3  c #321F1B",
"4  c #2D201F",
"5  c #34211D",
"6  c #3A231F",
"7  c #1F2425",
"8  c #2C2323",
"9  c #322624",
"0  c #3C2521",
"q  c #3F2823",
"w  c #352C2C",
"e  c #3C2C2B",
"r  c #2B3436",
"t  c #3B3232",
"y  c #333A3C",
"u  c #432A25",
"i  c #482C27",
"p  c #422B2A",
"a  c #4A2E28",
"s  c #4E312A",
"d  c #54342D",
"f  c #58362F",
"g  c #433433",
"h  c #4B3531",
"j  c #483836",
"k  c #473C3C",
"l  c #4A3C3C",
"z  c #533731",
"x  c #593730",
"c  c #533835",
"v  c #5D3932",
"b  c #513F3E",
"n  c #5D3D3C",
"m  c #613B33",
"M  c #4A403F",
"N  c #52403F",
"B  c #344243",
"V  c #474444",
"C  c #4A4141",
"Z  c #444B4C",
"A  c #4F4D4D",
"S  c #554544",
"D  c #5A4645",
"F  c #5B4847",
"G  c #564A4A",
"H  c #5D4B4B",
"J  c #435355",
"K  c #4F5B5D",
"L  c #535052",
"P  c #644D4D",
"I  c #6C4C4B",
"U  c #615454",
"Y  c #6C5555",
"T  c #635858",
"R  c #655959",
"E  c #735454",
"W  c #7D5452",
"Q  c #735C5B",
"!  c #485F61",
"~  c #525E60",
"^  c #486061",
"/  c #536F72",
"(  c #6F6161",
")  c #746565",
"_  c #7C6C6B",
"`  c #737171",
"'  c #825958",
"]  c #826260",
"[  c #8D6D6C",
"{  c #9B6967",
"}  c #8B706F",
"|  c #827373",
" . c #8D7271",
".. c #877878",
"X. c #8C7B7A",
"o. c #947675",
"O. c #947B79",
"+. c #9E7E7C",
"@. c #A6716E",
"#. c #A67A78",
"$. c #B47E7B",
"%. c #A4817F",
"&. c #B8817E",
"*. c #637F82",
"=. c #6A8689",
"-. c #6F9193",
";. c #749194",
":. c #789497",
">. c #858A8B",
",. c #968686",
"<. c #998686",
"1. c #9C8A8B",
"2. c #929090",
"3. c #9C9C9C",
"4. c #A48382",
"5. c #AF8582",
"6. c #A08E8E",
"7. c #AE8C8A",
"8. c #B98684",
"9. c #B78987",
"0. c #B28B89",
"q. c #BD8C8B",
"w. c #A49292",
"e. c #AB9897",
"r. c #A89998",
"t. c #AB9999",
"y. c #B59592",
"u. c #BB9693",
"i. c #BF9997",
"p. c #B29D9D",
"a. c #BC9D9C",
"s. c #A1A09F",
"d. c #88ACB0",
"f. c #8CB0B4",
"g. c #93B6BA",
"h. c #97BABE",
"j. c #A9A7A6",
"k. c #B3A1A1",
"l. c #BBA4A4",
"z. c #BDAAAA",
"x. c #A3B6B9",
"c. c #ACBBBF",
"v. c #B4B3B3",
"b. c #BBBABB",
"n. c #C39895",
"m. c #C59D9B",
"M. c #C89F9D",
"N. c #C7A09E",
"B. c #C9A19E",
"V. c #C5A4A2",
"C. c #CBA4A2",
"Z. c #C0A8A7",
"A. c #CDA8A7",
"S. c #C6A9A8",
"D. c #CEABAA",
"F. c #D1ADAB",
"G. c #D2B1AE",
"H. c #C6B1B1",
"J. c #CDB3B2",
"K. c #C6BBBC",
"L. c #CCBCBC",
"P. c #D3B4B3",
"I. c #D6B8B7",
"U. c #D7BAB8",
"Y. c #D5BDBD",
"T. c #D9BCBB",
"R. c #DABEBD",
"E. c #DBC0BF",
"W. c #A8BFC2",
"Q. c #9FC1C6",
"!. c #A3C2C6",
"~. c #A3C5C9",
"^. c #ABC4C9",
"/. c #A7C9CD",
"(. c #A9C8CD",
"). c #C8C0C0",
"_. c #CDC8C9",
"`. c #D7C0C0",
"'. c #DDC5C5",
"]. c #DFC7C7",
"[. c #DFC8C7",
"{. c #DFC7C8",
"}. c #D3C8C9",
"|. c #DFC8C8",
" X c #DADADA",
".X c #E0C6C6",
"XX c #E0C8C7",
"oX c #E0C7C8",
"OX c #E2C9C9",
"+X c #E3CACA",
"@X c #E3E3E3",
"#X c white",
/* pixels */
"m m m m m m m m m m m m m m m m m m m m m m m m m m m m v h h z m m m m m m m m m m m m m m m m m m m m m m m m m m m m m m m m ",
"m m m m m m m m m m m m m m m m m m m m m m m m m m m m v h h z m m m m m m m m m m m m m m m m m m m m m m m m m m m m m m m m ",
"m m m m m m m m m m m m m m m m m m m m m m m m m m m m v h h z m m m m m m m m m m m m m m m m m m m m m m m m m m m m m m m m ",
"m m m m m m m m m m m m m m m m m m m m m m m m m m m m v h h z m m m m m m m m m m m m m m m m m m m m m m m m m m m m m m m m ",
"m m m m m m m m m m m m m m m m m m m m m m m m m m m m v h h z m m m m m m m m m m m m m m m m m m m m m m m m m m m m m m m m ",
"m m m m m m m m m m m m m m m m m m m m m m m m m a : : : = = : : : : : : : , d m m m m m m m m m m m m m m m m m m m m m m m m ",
"m m m m m m m m m m m m m m m m m m m m m m f d f 5                           q f d f m m m m m m m m m m m m m m m m m m m m m ",
"m m m m m m m m m m m m m m m m m m m m m v : X + .                           . X X , m m m m m m m m m m m m m m m m m m m m m ",
"m m m m m m m m m m m m m m m m m m f u u q #     1 N b b b b b b b b b b b b =     $ u u u v m m m m m m m m m m m m m m m m m ",
"m m m m m m m m m m m m m m m m m m a .       .   H B.M.M.M.M.M.M.M.M.M.M.M.m.j   .       X d m m m m m m m m m m m m m m m m m ",
"m m m m m m m m m m m m m m m m v 5 =     X Y  .,.p.U.U.U.U.U.U.U.U.U.U.U.U.U.e.,.} H       : 5 m m m m m m m m m m m m m m m m ",
"m m m m m m m m m m m m m m m v d # o : 1 8 7.G.OXOX|.|.|.|.|.|.|.|.|.|.|.|.|.OX.XF.O.1 1 = . $ f v m m m m m m m m m m m m m m ",
"m m m m m m m m m m m m m m m 2 X   e 7.l.J.R.].].].].].].].].].].].].].].].].].].].Y.H.a.4.1   O 6 m m m m m m m m m m m m m m ",
"m m m m m m m m m m m m m d u % X g ) D.R.OX[.].].].].].].].].].].].].].].].].].].].XXOXU.S.Y e . : u x m m m m m m m m m m m m ",
"m m m m m m m m m m m m m 6     = 7.D.].].].].].].].].].].].].].].].].].].].].].].].].].{.].A.+.#   . i m m m m m m m m m m m m ",
"m m m m m m m m m m m f < $ . F o.D.R.].].].].].].].].].].].].].].].].].].].].].].].].].].].R.S.[ l   % 3 v m m m m m m m m m m ",
"m m m m m m m m m m m d X   .  .F.].|.].].].].].].].].].].].].].].].].].].].].].].].].].].].|.`.F.Q     # x m m m m m m m m m m ",
"m m m m m m m m m m m d X     <..X].].].].].].].].].].].].].].].].].].].].].].].].].].].].].].]..X_     # x m m m m m m m m m m ",
"m m m m m m m m m m s 0 . 1 l p.OX].].].].].].].].].].].].].].].].].].].].].].].].].].].].].].].OX1.j = X q d m m m m m m m m m ",
"m m m m m m m m m v =     D N.U.OX].].].].].].].].].].].].].].].].].].].].].].].].].].].].].].].|.I.m.g     , m m m m m m m m m ",
"m m m m m m m m m v %     U U.].].].].].].].].].].].].].].].].].].].].].].].].].].].].].].].].].].`.P.k     , m m m m m m m m m ",
"m m m m m m m m v f $ . $ ( OX].].].].].].].].].].].].].].].].].].].].].].].].].].].].].].].].].].].].H $ . : x v m m m m m m m ",
"m m m m m m m m 0 #   2 4.V.[.[.OXOXOXOXOXOXOXOXOX].].].].].].].].].].].].].].].OXOXOXOXOXOXOXOXOX].].a.O.= . # u m m m m m m m ",
"m m m m m m m m 3     8 u.G.].R.J.1.,.<.<.,.,.w.I.E.].].].].].].].].].].].].].R.J.6.,.<.<.<.,.w.I.E.].F.0.=     0 m m m m m m m ",
"m m m m m m m m 3     8 u.G.].D.7.=     . .   9 u.P.].].].].].].].].].].].].].F.0.=     . .   9 u.G.{.D.7.=     q m m m m m m m ",
"m m m m m m m m 3     8 u.G.]._ G 2.3.3.V     $ l X.OX].].].].].].].].].].].]._ G 2.3.3.V     $ l O.OXF.7.=     q m m m m m m m ",
"m m m m m m m m 3     8 u.F.`.k ; @X#X#X`         T OX].].].].].].].].].].].].k ; @X#X#X`         T ].D.7.=     q m m m m m m m ",
"m m m m m m m m 3     8 u.C.C.g 1 @X#X#X`         R OX].].OXOXOXOXOXOXOX].].].l 1 @X#X#X`         H A.C.7.=     q m m m m m m m ",
"m m m m m m m m 3     4 9.n.m.g * 3.v.v.A         R OX[.`.w.1.1.1.1.1.e.].].].l * 3.v.v.A         D M.n.%.=     q m m m m m m m ",
"m m m m m m m m 3     < @.8.m.g   . . .           R |.OXH.1 . . . .   w Y.OX].C   . . .           D M.8.{ &     q m m m m m m m ",
"m m m m m m m m s 6 # # p ] m.g                   R {...S O           * G ,.].C                   D M.E p X $ q d m m m m m m m ",
"m m m m m m m m m m %     S m.l # .           . # ( ].k   = = = = = = *   U ].G # .           . # P m.g     , m m m m m m m m m ",
"m m m m m m m m m v %     c &.5.o.$           1 +.V.].l - b. X X X X Xj.O R OXa.o.$           1 +.5.$.e     : m m m m m m m m m ",
"m m m m m m m m m v 5 =   0 W 0.y.Z y y y y t H V.I.].l * s.b.v.v.v.b.2.X R OXI.a.b t y y y y L m.#.W < . : 0 m m m m m m m m m ",
"m m m m m m m m m m m d X   X [ S.W.~.~.~.!.l.C.].].].M   . . . . . . .   R OX].`.M.l.!.~.~.~.c.V.Q .   # x m m m m m m m m m m ",
"m m m m m m m m m m m d X   . ' u.^.(././.(.L.U.].].].6.| | | | | | | | | r.OX].].I.K.(./././.c.q.I     # x m m m m m m m m m m ",
"m m m m m m m m m m m d # . . I #.x.~././.(.}.oX].].].OXOXOXOXOXOXOXOXOXOXOX].].].OX_.(././.~.x.@.n   X % x m m m m m m m m m m ",
"m m m m m m m m m m m v f 3   $ 8 ;.f././.(.}.oX].].].].].].].].].{.].].].].].].].XX_.(.(.~.d.=.2 #   q f m m m m m m m m m m m ",
"m m m m m m m m m m m m m u = X O ! =.h.!.(.L.R.].].].].].].].].].].].].].].].].].R.).(.Q.g.*.J . @ : d m m m m m m m m m m m m ",
"m m m m m m m m m m m m m m v :     r :.g.(.Z.A.].].].].].].].].].].].].].].].|.].C.z.(.f.-.7     2 m m m m m m m m m m m m m m ",
"m m m m m m m m m m m m m m m a 5 X * B J ~ >.j.D.U.].].].].].].].].].].].].].I.D.r.;.K Z B O @ 0 s m m m m m m m m m m m m m m ",
"m m m m m m m m m m m m m m m m v = .     . / :.y.S.].].].].].].].].].].].].].V.y.;.^       . : v m m m m m m m m m m m m m m m ",
"m m m m m m m m m m m m m m m m m f q       - ; 1 I q.M.D.A.A.A.A.A.A.A.A.m.8.S 1 ; *     . i x m m m m m m m m m m m m m m m m ",
"m m m m m m m m m m m m m m m m m m d : #         0 ' [ o.o.o.o.o.o.o.o.o.[ ' <         # , f m m m m m m m m m m m m m m m m m ",
"m m m m m m m m m m m m m m m m m m m m 2         . X X X X X X X X X X X X X           q m m m m m m m m m m m m m m m m m m m ",
"m m m m m m m m m m m m m m m m m m f 5 $ . S Q _ k                           G _ Q l   : 6 x m m m m m m m m m m m m m m m m m ",
"m m m m m m m m m m m m m m m m m v u   . = 4.F.OX..# # # # # # # # # # # # $ 6.OXF.o.$ . . s v m m m m m m m m m m m m m m m m ",
"m m m m m m m m m m m m m m m m x : #   H 4.J.].OXS.+.+.+.+.+.+.+.+.+.+.+.+.%.J.OX].S.4.l   # < v m m m m m m m m m m m m m m m ",
"m m m m m m m m m m m m m m m m x #     Q C.E.Y.r.a.B.A.D.D.D.D.D.D.D.D.A.A.B.p.p.`.T.C.F     % v m m m m m m m m m m m m m m m ",
"m m m m m m m m m m m m m m m m x #     Q C.].k.* H B.I.].].].].].].].].].P.m.j 1 H.T.B.D     % v m m m m m m m m m m m m m m m ",
"m m m m m m m m m m m m m m m m x #     Q C.].k.O H I.`.{.].].OXOXOX].].[.R.G.j = H.R.B.D     % v m m m m m m m m m m m m m m m ",
"m m m m m m m m m m m m m m m m x $ .   Y m.I.r.O R OX].].].`.Y.Y.Y.].].].].].l = z.J.i.S   . : v m m m m m m m m m m m m m m m ",
"m m m m m m m m m m m m m m m m m f q   = 9 w 8   R OX].].F.<.t w t 7.F.].].].C . 9 w 9 = . u f m m m m m m m m m m m m m m m m ",
"m m m m m m m m m m m m m m m m m m s % X         R OX].].F. .    X +.A.].].].C         @ : f m m m m m m m m m m m m m m m m m ",
"m m m m m m m m m m m m m m m m m m m v <         R OXOX].OX1..   # +.A.].OX{.C         0 m m m m m m m m m m m m m m m m m m m ",
"m m m m m m m m m m m m m m m m m m m m a 3 #     w _ z.OXOX1..   # +.A..Xp.) 8     # 5 d m m m m m m m m m m m m m m m m m m m ",
"m m m m m m m m m m m m m m m m m m m m m v : .       ,.`.`.,..   # O.V.`._       . > m m m m m m m m m m m m m m m m m m m m m ",
"m m m m m m m m m m m m m m m m m m m m m m f u .     8 t t 8     . 2 w t 1     O i f m m m m m m m m m m m m m m m m m m m m m ",
"m m m m m m m m m m m m m m m m m m m m m m m f : #         . % % % .         # , v m m m m m m m m m m m m m m m m m m m m m m ",
"m m m m m m m m m m m m m m m m m m m m m m m m v 0         = z v x $         i m m m m m m m m m m m m m m m m m m m m m m m m ",
"m m m m m m m m m m m m m m m m m m m m m m m m m d 5 5 2 2 9 x m m q 5 5 5 5 f m m m m m m m m m m m m m m m m m m m m m m m m ",
"m m m m m m m m m m m m m m m m m m m m m m m m m m m x h h h z m m m m m m m m m m m m m m m m m m m m m m m m m m m m m m m m ",
"m m m m m m m m m m m m m m m m m m m m m m m m m m m x h h h z m m m m m m m m m m m m m m m m m m m m m m m m m m m m m m m m ",
"m m m m m m m m m m m m m m m m m m m m m m m m m m m x h h h z m m m m m m m m m m m m m m m m m m m m m m m m m m m m m m m m "
};
