/* XPM */
static char *_f53f90059644b77c038beaf85e7764bt9JosWSwJjQ4BckT[] = {
/* columns rows colors chars-per-pixel */
"64 64 219 2 ",
"   c #4B3531",
".  c #4E3934",
"X  c #533731",
"o  c #523934",
"O  c #5C3A33",
"+  c #563E3A",
"@  c #593D39",
"#  c #613B33",
"$  c #663F38",
"%  c #6C3F39",
"&  c #7E3F36",
"*  c #5D433F",
"=  c #664037",
"-  c #66413A",
";  c #6B433C",
":  c #72453D",
">  c #79483F",
",  c #6E4640",
"<  c #654843",
"1  c #6E4840",
"2  c #734541",
"3  c #7B4642",
"4  c #744B44",
"5  c #7B4B44",
"6  c #724E49",
"7  c #7C4D49",
"8  c #6E5846",
"9  c #755343",
"0  c #7C534D",
"q  c #745C49",
"w  c #7E5F4D",
"e  c #7D5150",
"r  c #7B674E",
"t  c #7E6A52",
"y  c #AD2B14",
"u  c #A8271A",
"i  c #A52A1C",
"p  c #AC291C",
"a  c #B42A17",
"s  c #B92916",
"d  c #B5261A",
"f  c #BC271B",
"g  c #B42A1B",
"h  c #BB2A1B",
"j  c #AA3619",
"k  c #B83017",
"l  c #B33419",
"z  c #BB361C",
"x  c #B53B1C",
"c  c #B93A1D",
"v  c #972E26",
"b  c #9F2B24",
"n  c #952D2C",
"m  c #9B2E2C",
"M  c #8E3629",
"N  c #97332D",
"B  c #9F392D",
"V  c #9C2F34",
"C  c #8C3534",
"Z  c #853933",
"A  c #8D3D35",
"S  c #843D3B",
"D  c #8C3C3A",
"F  c #963531",
"G  c #9D3432",
"H  c #933D35",
"J  c #9B3B35",
"K  c #94353B",
"L  c #9C353B",
"P  c #923C3A",
"I  c #9C3E3B",
"U  c #A42722",
"Y  c #AC2724",
"T  c #A42C24",
"R  c #AC2C24",
"E  c #A22D2B",
"W  c #AA2B2A",
"Q  c #B52725",
"!  c #BC2721",
"~  c #B32A23",
"^  c #BC2A22",
"/  c #B52C29",
"(  c #BB2B29",
")  c #AC3024",
"_  c #A4312B",
"`  c #AE322B",
"'  c #BD3622",
"]  c #B23D20",
"[  c #BB3921",
"{  c #A32E35",
"}  c #A33531",
"|  c #A43C34",
" . c #AB3C36",
".. c #A13339",
"X. c #A63B39",
"o. c #C22B1D",
"O. c #C2371D",
"+. c #C42A22",
"@. c #C92B21",
"#. c #C43E21",
"$. c #B64319",
"%. c #89422E",
"&. c #9D472C",
"*. c #85433D",
"=. c #8D423D",
"-. c #934135",
";. c #93423C",
":. c #9A413B",
">. c #AA4528",
",. c #AF4A2B",
"<. c #BC4E25",
"1. c #B35424",
"2. c #BD5323",
"3. c #B85528",
"4. c #A24435",
"5. c #A85937",
"6. c #B35430",
"7. c #C54224",
"8. c #C34B26",
"9. c #C35226",
"0. c #C25329",
"q. c #CC4A33",
"w. c #CD5532",
"e. c #D55D3A",
"r. c #CB662C",
"t. c #D06C2F",
"y. c #D8673B",
"u. c #C47632",
"i. c #D47738",
"p. c #933E40",
"a. c #A33E44",
"s. c #844440",
"d. c #8B4441",
"f. c #824A44",
"g. c #814E46",
"h. c #8D4C45",
"j. c #8E4749",
"k. c #854D4C",
"l. c #8D4C4B",
"z. c #954444",
"x. c #964847",
"c. c #934C4C",
"v. c #855444",
"b. c #83524A",
"n. c #8A534C",
"m. c #9C5A45",
"M. c #855551",
"N. c #8A5652",
"B. c #835853",
"V. c #8C5C54",
"C. c #935451",
"Z. c #955E55",
"A. c #A24146",
"S. c #A95E48",
"D. c #83664D",
"F. c #8F6D52",
"G. c #B17B58",
"H. c #CB6945",
"J. c #C97440",
"K. c #DC7E45",
"L. c #DE7F49",
"P. c #E27B45",
"I. c #E1744B",
"U. c #E37C4A",
"Y. c #D7863F",
"T. c #A4875B",
"R. c #BE8356",
"E. c #BB9D5D",
"W. c #AE9C6C",
"Q. c #B99663",
"!. c #BDB66A",
"~. c #CE8148",
"^. c #DA8144",
"/. c #D48D47",
"(. c #DB8249",
"). c #D7894D",
"_. c #DD9943",
"`. c #DD9B4A",
"'. c #D28554",
"]. c #DC9553",
"[. c #E29643",
"{. c #EB974C",
"}. c #E39B4C",
"|. c #EB9A4D",
" X c #E48C51",
".X c #E69C50",
"XX c #EC975A",
"oX c #F19C5A",
"OX c #DCBA4D",
"+X c #C5A55D",
"@X c #CABF56",
"#X c #D6B253",
"$X c #DDB353",
"%X c #DCB956",
"&X c #D5B35A",
"*X c #DBB55C",
"=X c #E6A64C",
"-X c #EAAA4B",
";X c #E4B44C",
":X c #E9B14E",
">X c #E1B84C",
",X c #E7A452",
"<X c #E5AC54",
"1X c #EAAB53",
"2X c #EDA25B",
"3X c #E4A959",
"4X c #E4B353",
"5X c #EAB152",
"6X c #E5B956",
"7X c #E4B159",
"8X c #CDAA64",
"9X c #C2A969",
"0X c #D5AC61",
"qX c #CFB664",
"wX c #D9B661",
"eX c #E0AB61",
"rX c #F3A661",
"tX c #D6C34F",
"yX c #CCC257",
/* pixels */
"# # # # # # # # # # # # # # # # # # # # # # # # # # # # O     X # # # # # # # # # # # # # # # # # # # # # # # # # # # # # # # # ",
"# # # # # # # # # # # # # # # # # # # # # # # # # # # # O     X # # # # # # # # # # # # # # # # # # # # # # # # # # # # # # # # ",
"# # # # # # # # # # # # # # # # # # # # # # # # # # # # O     X # # # # # # # # # # # # # # # # # # # # # # # # # # # # # # # # ",
"# # # # # # # # # # # # # # # # # # # # # # # # # # # # # + @ - ; $ # # # # # # # ; ; ; - $ # # # # # # # # # # # # # # # # # # ",
"# # # # # # # # # # # # # # # # # # # # # # # # # # # # , e l.c.C.5 $ # # # # # ; N.c.c.k.4 # # # # # # # # # # # # # # # # # # ",
"# # # # # # # # # # # # # # # # # # # # # # # # # # # # 6 l.L ..A.k.$ # # # # # 4 c...{ p.7 $ # # # # # # # # # # # # # # # # # ",
"# # # # # # # # # # # # # # # # # # # # # # # # # # # # 6 j.V { a.k.$ # # # # # 6 j.G E P 5 $ # # # # # # # # # # # # # # # # # ",
"# # # # # # # # # # # # # # # # # # # # # # # # # # # # 4 k.C K z.b.$ # # # # # 6 n.A F ;.7 $ # # # # # # # # # # # # # # # # # ",
"# # # # # # # # # # # # # # # # # # # # # # # # # # # # - 6 7 k.M.4 # # # # # # ; V.Z.Z.V.4 # # # # # # # # # # # # # # # # # # ",
"# # # # # # # # # # # # # # # # # # # # # # # # # # # # O o + + + # # # # # # # # 1 4 4 ; $ # # # # # # # # # # # # # # # # # # ",
"# # # # # # # # # # # # # # # # # # # # # # # # # # # # O         O # # # # # # # # # # # # # # # # # # # # # # # # # # # # # # ",
"# # # # # # # # # # # # # # # # # # # # # # # # # $ - - = .         O # # # # # # # # # # # # # # # # # # # # # # # # # # # # # ",
"# # # # # # # # # # # # # # # # # # # # # # # # = 7 n.C.M.*         O # # # # O X # # # # # # # # # # # # # # # # # # # # # # # ",
"# # # # # # # # # # # # # # # # # # # # # # # # , g.P G x.6 o       O # # O O O X O # # # # # # # # # # # # # # # # # # # # # # ",
"# # # # # # # # # # # # # # # # # # # # # # # # 1 *.m Y X.4 o       O # O X O # O # # # # # # # # # # # # # # # # # # # # # # # ",
"# # # # # # # # # # # # # $ = - = # # # # # # # ; =.W ^  .4 o     . + @ @ O O # # # # # # # # # # # # # # # # # # # # # # # # # ",
"# # # # # # # # # # # # $ 5 n.n.0 ; # # # # # # , ;./ +. .4 .   . < 0 B.0 ; # # # # # # # # # # # # # # # # # # # # # # # # # # ",
"# # # # # # # # # # # # ; h.4.I j.4 $ # # # # # 2 z.~ !  .4 .   + 4 P I c.0 # # # # # # # # # # # # # # # # # # # # # # # # # # ",
"# # # # # # # # # # # # ; :.R Y K 5 $ # # # # # 2 z.R ~ X.4 .   * S E W J g.$ # # # # # # # # # # # # # # # # # # # # # # # # # ",
"# # # # # # # # # # # # ; ;.R E D 4 $ # # # # # ; ;.R g | 5 o   < P / ^ | g.$ # # # # # # # # # # # # # # # # # # # # # # # # # ",
"# # # # # # # # # # # # - *.A A 3 ; # # # # # # ; P ~ g ` h.; - 7 | ! ^ | g.$ # # # # # # # # # # # # # # # # # # # # # # # # # ",
"# # # # # # # # # # # # # - : : ; $ # # # # # # ; P / h g B A D J ) f ! } g.$ # # # # # # # # # # # # # # # # # # # # # # # # # ",
"# # # # # # # # # # # # # # # # # # # # # # # # ; ;./ ^ g i i U u g h Q G 5 $ # # # # # # # # # # # # # # # # # # # # # # # # # ",
"# # # # # # # # # # # # # # # # # # # # # # # # ; ;.~ h s y s ^ h s f ~ J 5 $ # # # # # # # # # # # # # # # # # # # # # # # # # ",
"# # # # # # # # # # # # # # # # # # # # # = - ; 3 I ~ f g c #.7.#.k f ! } f.: ; ; $ # # # # # # # ; : : ; - # # # # # # # # # # ",
"# # # # # # # # # # # # # # # # # # # # = 3 D I X.` ^ f z y.P.U.i.7.o.+.R | :.;.j.4 $ # # # # # ; k.z.z.c.M.= # # # # # # # # # ",
"# # # # # # # # # # # # # # # # # # # # - *.b ~ ! f +.h [ K.1X1X}.9.o.+.h g g ~ X.f.$ # # # # # , x.{ E :.Z.- # # # # # # # # # ",
"# # # # # # # # # # # # # # # # # # # # - D R ^ +.+.o.h [ (.1X5X}.9.o.+.f d s ~ X.f.$ # # # # # 1 c.V n P V.- # # # # # # # # # ",
"# # # # # # # # # # # # # # # # # $ - $ : J ~ +.+.+.o.f c ^.1X5X`.9.o.+.f s s ~ X.f.$ # # # # # , k.D Z s.0 = # # # # # # # # # ",
"# # # # # # # # # # # # # # # # $ 5 s.*.-.` ^ @.+.o.o.f c ^.1X5X`.9.o.@.! f f ~ | 3 $ # # # # # $ 4 k.7 7 1 # # # # # # # # # # ",
"# # # # # # # # # # # # # # # # - s.G b u h @.o.h f f f c ^.1X5X}.0.@.+.! d s p G 3 $ # # # # # # # # # # # # # # # # # # # # # ",
"# # # # # # # # # # # # # # # # - P W ! s @.@.f s f f s x ^.1X5X`.0.+.+.h a g p B > $ # # # # # # # # # # # # # # # # # # # # # ",
"# # # # # # # # # # # # # # # # - H / h o.@.@.o.f f f s x ^.1X:X`.0.o.^ g l c x >.h.; - = # # # # # # # # # # # # # # # # # # # ",
"# # # # # # # # # # # # # # # # - A ) s f o.+.o.f f f s x ^.1X5X}.0.h s l w.y.y.H.S.h.f.5 ; # # # # # # # # # # # # # # # # # # ",
"# # # # # # # # # # # # # # # # - A R g d o.o.f h h f s x ^.<X5X`.2.g s l P.2XrXXX6.b N S 4 $ # # # # # # # # # # # # # # # # # ",
"# # # # # # # # # # # # # # # # - D R g d f f f h f f s x ^.<X4X`.2.g s l ^.7X7XXX0.g R F 5 $ # # # # # # # # # # # # # # # # # ",
"# # # # # # # # # # # # # # # # - A R g f ^ h h h s f f c ^.<X4X`.2.c k $.Y.5X4X.X9.h d G 5 $ # # # # # # # # # # # # # # # # # ",
"# # # # # # # # # # # # # # # # ; H ) s h q.e.e.w.z f s c K.1X4X=Xi.r.r.t.[.:X4X|.9.f g } f.$ # # # # # # # # # # # # # # # # # ",
"# # # # # # # # # # # # # # # # ; -.R s [ I.XXoX X8.g d c L.1X5X5X-X=X,X,X-X;X:X{.9.h g B 5 $ # # # # # # # # # # # # # # # # # ",
"# # # # # # # # # # # # # # # # ; -./ h c L.1X5X}.<.p p x ^.1X:X:X;X>X6X4X;X>X:X|.9.h h G f.$ # # # # # # # # # # # # # # # # # ",
"# # # # # # # # # # # # # # # # ; J ( o.c ^.1X:X_.1.j y $.Y.5X;X;X$X&X&X*X%XOX4X.X9.f ! G f.$ # # # # # # # # # # # # # # # # # ",
"# # # # # # # # # # # # # # # # ; H ( o.c (.<X:X=Xu.3.2.r._.;XOX%X8XQ.Q.9XwX%X4X}.9.s ~ G f.$ # # # # # # # # # # # # # # # # # ",
"# # # # # # # # # # # # # # # # ; -.~ h c (.<X4X5X,X.X{.|.:XOXOXwXT.9 : F.8X*X5X}.2.g p F 5 $ # # # # # # # # # # # # # # # # # ",
"# # # # # # # # # # # # # # # # ; H ~ s c (.<X$X4X5X5X1X1X4XtX@XqXF.= # 9 E.$X5X|.2.p u F 5 $ # # # # # # # # # # # # # # # # # ",
"# # # # # # # # # # # # # # # # - A R s [ U.2X3X<X<X5X5X5X%XyX@X9XD.$ # 9 E.$X:X|.<.g u N 5 $ # # # # # # # # # # # # # # # # # ",
"# # # # # # # # # # # # # # # # - A R h ' e.P.(.).,X4X4X7XqX!.!.W.9 # # 9 E.#X:X{.8.s g G f.$ # # # # # # # # # # # # # # # # # ",
"# # # # # # # # # # # # # # # # - H ) ^ ^ O.z x 1./.$X$XwXT.r t w = # # 9 E.#X4X|.9.s h } f.$ # # # # # # # # # # # # # # # # # ",
"# # # # # # # # # # # # # # # # ; A T ~ ! f s y ] (.<X$X0XD.o X # # # # 9 E.&X4X}.<.s g G f.$ # # # # # # # # # # # # # # # # # ",
"# # # # # # # # # # # # # # # # - & v R Y ~ h a [ K.1X4X0Xr . X # # # # 4 Q.0X3X].,.T b C 5 $ # # # # # # # # # # # # # # # # # ",
"# # # # # # # # # # # # # # # # = : Z H J E g s ' P.1X;X+Xq . X # # # # 4 G.'.).~.5.-.A > 4 # # # # # # # # # # # # # # # # # # ",
"# # # # # # # # # # # # # # # # # ; : : f.I R a [ P.-XOX+X8 . X # # # # 4 m.,.>.6.m.b.5 4 = # # # # # # # # # # # # # # # # # # ",
"# # # # # # # # # # # # # # # # # # # # : ;.R g c P.1X$XE.8 . X # # # # 4 ;._ i B f.$ # # # # # # # # # # # # # # # # # # # # # ",
"# # # # # # # # # # # # # # # # # # # # ; =.m i x K.2XeXQ.q o X # # # # 4 d.m T H 5 $ # # # # # # # # # # # # # # # # # # # # # ",
"# # # # # # # # # # # # # # # # # # # # ; 3 Z M &.J. X].R.b.- = : : ; ; 5 h.A C *.5 $ # # # # # # # # # # # # # # # # # # # # # ",
"# # # # # # # # # # # # # # # # # # # # # - : : v.5.3.<.,.4.:.:.:.:.I P l.N.5 5 6 ; # # # # # # # # # # # # # # # # # # # # # # ",
"# # # # # # # # # # # # # # # # # # # # # # # # ; %.j y y g Q ~ ~ Q / W P 5 $ # # # # # # # # # # # # # # # # # # # # # # # # # ",
"# # # # # # # # # # # # # # # # # # # # # # # # = & _ i Y ~ Q Q Y Q ( W P 2 $ # # # # # # # # # # # # # # # # # # # # # # # # # ",
"# # # # # # # # # # # # # # # # # # # # # # # # # % C n n n m n v _ } G S ; # # # # # # # # # # # # # # # # # # # # # # # # # # ",
"# # # # # # # # # # # # # # # # # # # # # # # # O @ 2 2 2 2 , : f.f.h.f.2 $ # # # # # # # # # # # # # # # # # # # # # # # # # # ",
"# # # # # # # # # # # # # # # # # # # # # # # # # O # # O     X # # # # # # # # # # # # # # # # # # # # # # # # # # # # # # # # ",
"# # # # # # # # # # # # # # # # # # # # # # # # # # # O X     X # # # # # # # # # # # # # # # # # # # # # # # # # # # # # # # # ",
"# # # # # # # # # # # # # # # # # # # # # # # # # # # O       X # # # # # # # # # # # # # # # # # # # # # # # # # # # # # # # # ",
"# # # # # # # # # # # # # # # # # # # # # # # # # # # O       X # # # # # # # # # # # # # # # # # # # # # # # # # # # # # # # # ",
"# # # # # # # # # # # # # # # # # # # # # # # # # # # O       X # # # # # # # # # # # # # # # # # # # # # # # # # # # # # # # # "
};
