/* XPM */
static char *_090c812bb12433286f2fb8982a60696J42ZaMHjbKCRajSN[] = {
/* columns rows colors chars-per-pixel */
"64 64 241 2 ",
"   c #151210",
".  c #1A1613",
"X  c #1D1814",
"o  c #1F1719",
"O  c #1D191A",
"+  c #281713",
"@  c #221A15",
"#  c #241D1B",
"$  c #291E1C",
"%  c #25211C",
"&  c #2C221D",
"*  c #2C281F",
"=  c #32231E",
"-  c #39291A",
";  c #241F20",
":  c #2B2723",
">  c #2C2422",
",  c #332521",
"<  c #392622",
"1  c #332B24",
"2  c #3B2A24",
"3  c #352D2A",
"4  c #3D2D2A",
"5  c #3B322C",
"6  c #39342C",
"7  c #363636",
"8  c #3C3532",
"9  c #46351D",
"0  c #442D27",
"q  c #452E29",
"w  c #492F29",
"e  c #542C2A",
"r  c #5B2E2B",
"t  c #493824",
"y  c #43332C",
"u  c #4B322C",
"i  c #443B2F",
"p  c #53352E",
"a  c #423A35",
"s  c #443935",
"d  c #4B3C34",
"f  c #533631",
"g  c #553A33",
"h  c #5D3A32",
"j  c #593A37",
"k  c #723A2D",
"l  c #613B33",
"z  c #693835",
"x  c #643D39",
"c  c #753C39",
"v  c #4A4236",
"b  c #4B4339",
"n  c #5C4B30",
"m  c #54473A",
"M  c #664D2C",
"N  c #664139",
"B  c #6B433C",
"V  c #754339",
"C  c #7C443D",
"Z  c #6A5332",
"A  c #7A5937",
"S  c #79633F",
"D  c #783F41",
"F  c #4C4946",
"G  c #564B46",
"H  c #554C44",
"J  c #5B4E43",
"K  c #5D534C",
"L  c #5B5855",
"P  c #6D4843",
"I  c #754641",
"U  c #744B44",
"Y  c #7C4945",
"T  c #7C4B46",
"R  c #62544B",
"E  c #685749",
"W  c #7A544A",
"Q  c #645C56",
"!  c #705A52",
"~  c #6E614D",
"^  c #72644B",
"/  c #68625A",
"(  c #766756",
")  c #7D775D",
"_  c #706C65",
"`  c #736C65",
"'  c #7C7775",
"]  c #AB2A18",
"[  c #AD291C",
"{  c #B42B15",
"}  c #B3271B",
"|  c #BA271B",
" . c #B4291C",
".. c #BC291C",
"X. c #AD361A",
"o. c #B33517",
"O. c #B5341B",
"+. c #BB341D",
"@. c #982E29",
"#. c #983628",
"$. c #9B322D",
"%. c #8F2F30",
"&. c #883835",
"*. c #933535",
"=. c #993837",
"-. c #9C393D",
";. c #AB2721",
":. c #A52B24",
">. c #AC2C23",
",. c #A42D2B",
"<. c #AD2B2A",
"1. c #B42A22",
"2. c #BC2A22",
"3. c #B82824",
"4. c #A63825",
"5. c #A3332B",
"6. c #AA342C",
"7. c #B73427",
"8. c #A42E34",
"9. c #A83633",
"0. c #AC3B33",
"q. c #B13A35",
"w. c #C12A1E",
"e. c #C82C1F",
"r. c #C3341E",
"t. c #C32A21",
"y. c #C72A21",
"u. c #C33824",
"i. c #B24A1C",
"p. c #87433D",
"a. c #9A4239",
"s. c #9A5A3B",
"d. c #AB463C",
"f. c #B8423C",
"g. c #8B6837",
"h. c #BF632B",
"j. c #B96337",
"k. c #C64828",
"l. c #C65529",
"z. c #C85D32",
"x. c #D35D39",
"c. c #C5652D",
"v. c #CB632E",
"b. c #CB6B2F",
"n. c #CA6531",
"m. c #C76835",
"M. c #CD6E38",
"N. c #D56939",
"B. c #D36D3C",
"V. c #CD7438",
"C. c #854A45",
"Z. c #8A4844",
"A. c #854C4A",
"S. c #8B4A49",
"D. c #964643",
"F. c #885442",
"G. c #85534C",
"H. c #8C544B",
"J. c #94564B",
"K. c #8A5953",
"L. c #975B55",
"P. c #A74D44",
"I. c #89764B",
"U. c #8C704D",
"Y. c #8D7D4B",
"T. c #9A6659",
"R. c #AF684D",
"E. c #A46758",
"W. c #876D66",
"Q. c #956C62",
"!. c #857663",
"~. c #8C7C6B",
"^. c #957766",
"/. c #847E77",
"(. c #AE7066",
"). c #A7766A",
"_. c #D76D43",
"`. c #E37A4C",
"'. c #D18037",
"]. c #948757",
"[. c #AF8E53",
"{. c #98846D",
"}. c #998875",
"|. c #938979",
" X c #A3886A",
".X c #B69B66",
"XX c #AD8C72",
"oX c #B6A876",
"OX c #D98543",
"+X c #D79553",
"@X c #E58949",
"#X c #E59B4A",
"$X c #E88956",
"%X c #E79B55",
"&X c #DDBB4D",
"*X c #D2AA55",
"=X c #DEB552",
"-X c #D3B15A",
";X c #D9B85A",
":X c #E4A24D",
">X c #E7A54D",
",X c #E4B34C",
"<X c #E8B14D",
"1X c #E1B94E",
"2X c #E4A452",
"3X c #EAA353",
"4X c #E5AD53",
"5X c #E7AB58",
"6X c #F0A959",
"7X c #E4B353",
"8X c #E9B151",
"9X c #E6B058",
"0X c #C3936F",
"qX c #CAAC67",
"wX c #D6B462",
"eX c #CEAE72",
"rX c #D5C050",
"tX c #CBC467",
"yX c #827E80",
"uX c #8C8781",
"iX c #968D86",
"pX c #989695",
"aX c #A69786",
"sX c #A89790",
"dX c #B6A487",
"fX c #A8A19A",
"gX c #B7AA9A",
"hX c #B4B1AC",
"jX c #B9B4AA",
"kX c #D49F96",
"lX c #D4B684",
"zX c #C8B396",
"xX c #C4BCB4",
"cX c #DDC69E",
"vX c #DCC8A1",
"bX c #CDC5B8",
"nX c #CBC8C2",
"mX c #DCD2CA",
"MX c #E1D9CD",
"NX c #E6E4DE",
"BX c #F1EFEE",
/* pixels */
"l l l l l l l l l l l l l l l l l l l l l l l l l l l l h y q y p h l l l l l l l l l l l l l l l l l l l l l l l l l l l l l l ",
"l l l l l l l l l l l l l l l l l l l l l l l l l l l l h > $ $ , h l l l l l l l l l l l l l l l l l l l l l l l l l l l l l l ",
"l l l l l l l l l l l l l l l l l l l l l l l l l l l l j # + + @ h l l l l l l l x x l l l l l l l l l l l l l l l l l l l l l ",
"l l l l l l l l l l l l l l l l l l l l l l l l l l l N U j c c q j l l l l l N Y G.A.Y P x l l l l l l l l l l l l l l l l l l ",
"l l l l l l l l l l l l l l l l l l l l l l l l l l l I A.p.-.D.x x l l l l l B A.D.-.D.Y N l l l l l l l l l l l l l l l l l l ",
"l l l l l l l l l l l l l l l l l l l l l l l l l l l I S.-.8.-.c N h l l l l P S.-.8.=.C.N l l l l l l l l l l l l l l l l l l ",
"l l l l l l l l l l l l l l l l l l l l l l l l l l f g Y *.$.-.z u 2 u l l l U A.*.@.*.C.B l l l l l l l l l l l l l l l l l l ",
"l l l l l l l l l l l l l l l l l l l l l l l l l p H R ! D Z.S.f 3 > < p l l B K.J.J.J.W N l l l l l l l l l l l l l l l l l l ",
"l l l l l l l l l l l l l l l l l l l l l l l h g b |.gXiXR u q 5 a 8 1 < p h x U W G.W B l l l l l l l l l l l l l l l l l l l ",
"l l l l l l l l l l l l l l l l l l l l l h h g s /.jXMXmX~.d 1 m F d 5 % = f h l N N x l l l l l l l l l l l l l l l l l l l l ",
"l l l l l l l l l l l l l l l l l l l l l w < d ~ aXiXpXnX( ^ ^ y 8 3 : , $ < < w l l l l l l l l l l l l l l l l l l l l l l l ",
"l l l l l l l l l l l l l l l l l l l l h & 2 Z U.^.Q.^.}.^ dXdXt & t t $ $ & @ & h l l l l l l l l l l l l l l l l l l l l l l ",
"l l l l l l l l l l l l l l l l l l l l h $ M U.U H.P.R.T..XvXzXA = A A @ @ - * $ h l l l l l l l l l l l l l l l l l l l l l l ",
"l l l l l l l l l l l l l l l l l l l l l % M U.C a.,.d.R.qXeXXXU.n g.g.9 - t - # h l l l l l l l l l l l l l l l l l l l l l l ",
"l l l l l l l l l l l l l l l l l l l l h % M [.E.d.1.f.0XcXeXqX0X[.[.[.g.M Z t $ h l l l l l l l l l l l l l l l l l l l l l l ",
"l l l l l l l l l l l l B U W U B l l l l 0 M Y.(.f.2.f.kXmXcXlXlXlX0X.X[.S Z t 0 h l l l l l l l l l l l l l l l l l l l l l l ",
"l l l l l l l l l l l N Y D.D.S.U N l l l h y m L.q.3.f.XXaX}. X XT.L.T.^.E 3 w h l l l l l l l l l l l l l l l l l l l l l l l ",
"l l l l l l l l l l l N p.9.,.=.Y N l l l l 2 5 L.q.1.0.G.J v m U *.$.-.Q.K > 2 l l l l l l l l l l l l l l l l l l l l l l l l ",
"l l l l l l l l l l l B p.6.;.*.Y N l l l l 2 5 J.0.[ 0.^.uXa 8 H.9.1.9.Q.R % 2 l l l l l l l l l l l l l l l l l l l l l l l l ",
"l l l l l l l l l l l N p.=.$.&.I x l l l l 2 5 H.0. .q.0XmX` R (.7.2.0.T.R % 2 l l l l l l l l l l l l l l l l l l l l l l l l ",
"l l l l l l l l l l l x B C C I x h h h h h < 5 H.q.2.1.P.XXK.C.P.1.2.q.G.K % 2 l l l l l l l l l l l l l l l l l l l l l l l l ",
"l l l l l l l l l l l l l x x l 4 < < < < < @ 3 H.6.2. .>.5.$.@.>. .3.5.I G % 2 l l l l l l l l l l l l l l l l l l l l l l l l ",
"l l l l l l l l l l l h u 0 0 q 3 a G Q J 8 O 3 H.6.....] ] 1. . .} 1.$.B R * 2 l l l l l l l l l l l l l l l l l l l l l l l l ",
"l l l l l l l l l l l h & 8 8 3 G /.fXjXaX( a s C.6.|  .{ ..t.+.{ ..2.$.I R y u l l l l l l l l x N N N x l l l l l l l l l l l ",
"l l l l l l l l l l l h & Q / G ) xXNXNXgX).H.c *.3.| ..k.x.N.x.k.w.t.<.a.c C I B j h l l l l N U C.Z.A.Y N l l l l l l l l l l ",
"l l l l l l l l l l l h p G / ~.}.MXBXBXaXP.6.<.1.2.w.+.N.@X%X@Xz.r.t.2.>.>.5.=.c w h l l l l N C.-.=.a.J.U l l l l l l l l l l ",
"l l l l l l l l l l l l l u g ! }.bXNXmX).9.1.2.t.t.w.+.B.3X8X:Xn.r.t... . . .9.C.< 2 0 u l l B S.-.@.=.J.U l l l l l l l l l l ",
"l l l l l l l l l l l l l h u 1 ` fXjXgXE.6.2.t.t.w...+.B.2X8X:Xv.r.t...| .. .0.(.d = % > p h B A.*.%.&.G.B l l l l l l l l l l ",
"l l l l l l l l l l l l l l w # R W.^.T.a.1.t.t.t.w...+.B.:X8X:Xv.r.y.t.| |  .q.).E v 5 = < g N Y A.C.A.Y N l l l l l l l l l l ",
"l l l l l l l l l l l l l l u > P Z.*.#.>.t.w.w.......+.B.:X8X:Xn.u.t.2.| | } 0.(.^.( E J m y f N B B B N l l l l l l l l l l l ",
"l l l l l l l l l l l l l u K ' L.9.<. .w.y.w.........+.B.:X8X:Xn.u.y.2. . .} 5.T.dX~.!.{.}.6 q l l l l l l l l l l l l l l l l ",
"l l l l l l l l l l l l l < L fXT.q.2...e.y.w.........O.M.:X<X#Xn.u.t. .] o.{ 4.J.gX}.{.}.}.d u l l l l l l l l l l l l l l l l ",
"l l l l l l l l l l l l l , 7 Q C 6.....e.y.w...| | ..O.M.:X8X:Xn.+... .i.l.l.j.J.XXXX X!.m g h l l l l l l l l l l l l l l l l ",
"l l l l l l l l l l l l l , F iXL.6. . ...w.w.....| ..O.M.2X8X:Xn.+. .O.x.@X$X$XR.a.a.J.Q.J y p l l l l l l l l l l l l l l l l ",
"l l l l l l l l l l l l l w Q iXL.5. .} | ........| ..O.M.2X7X:Xc.O. .O.N.3X9X%Xm.>.:.=.T.}.6 q l l l l l l l l l l l l l l l l ",
"l l l l l l l l l l l l l h d a C 5. .| | ..| | | | | O.M.2X7X:Xc.O.{ o.N.2X7X2Xn.7.1.5.G.}.d u l l l l l l l l l l l l l l l l ",
"l l l l l l l l l l l l l l w > c 5. ...u.k.k.u.+.....+.B.2X7X:XV.l.k.l.'.<X7X:Xv.+.| 5.z H g h l l l l l l l l l l l l l l l l ",
"l l l l l l l l l l l l l l w > Y 6. .+.x.`.$X`.l...| +.B.3X8X4X#X@X@X@X#X,X<X#Xv.+. .5.r $ f l l l l l l l l l l l l l l l l l ",
"l l l l l l l l l l l l l p G ` L.6. .+.B.%X6X%Xz.O.} O.B.3X8X,X<X,X8X8X,X,X<X#Xv.+...$.r $ f l l l l l l l l l l l l l l l l l ",
"l l l l l l l l l l l l l < L fXE.7...+.B.2X8X#Xc.X.] X.V.>X,X,X,X=X;X;X=X&X,X3Xn.+...5.r $ f l l l l l l l l l l l l l l l l l ",
"l l l l l l l l l l l l l = 7 / Z.7.t.+.B.2X8X:Xb.i.i.i.'.,X1X&X;XwXqXqXwX=X7X2Xv.+...,.r # f l l l l l l l l l l l l l l l l l ",
"l l l l l l l l l l l l l , 3 ~ F.6...+.B.2X7X4X#XOXOXOX#X1X&X;X.XoX( ^ .X;X7X:Xv.O.} @.r # f l l l l l l l l l l l l l l l l l ",
"l l l l l l l l l l l l l & H aXE.6...+.B.2X7X7X4X4X3X3X,X&XrX;X.XXXm 3 ].-X8X:Xv.O.[ @.e $ f l l l l l l l l l l l l l l l l l ",
"l l l l l l l l l l l l l & L xXT.6...+._.3X9X7X4X8X8X8X=XrXrXwXoX{.i % Y.-X8X>Xn.O.] @.r $ f l l l l l l l l l l l l l l l l l ",
"l l l l l l l l l l l l l & / nX).6...7.x.$X%X%X2X4X8X7X;XtXtXoX) v & : Y.-X,X#Xv.O.] @.l % f l l l l l l l l l l l l l l l l l ",
"l l l l l l l l l l l l l , 7 /.H.6.1.2.u.l.l.h.OX4X=X;X.X X].( b . 1 v Y.-X7X#Xv.+. .5.z & f l l l l l l l l l l l l l l l l l ",
"l l l l l l l l l l l l l w > > k @.1.2.w...o.X.V.2X=XwXY.{.~ v H X v R Y.-X=X:Xv.+...5.c $ f l l l l l l l l l l l l l l l l l ",
"l l l l l l l l l l l l l h 0 % V @.;.1.3...{ O.B.2X7XwX^ !.! H K : v H I.-X9X2Xc.X.[ @.B & f l l l l l l l l l l l l l l l l l ",
"l l l l l l l l l l l l l l w & W k @.@.:. . .7.N.3X7X-XS d ` |.K m 8 6 U.+X%X+Xj.#.%.&.B % f l l l l l l l l l l l l l l l l l ",
"l l l l l l l l l l l l l l w & ( h e z %.>.} 7.N.3X,X*XZ @ uXhXK !.i 1 F.j.j.j.s.V h N E $ p l l l l l l l l l l l l l l l l l ",
"l l l l l l l l l l l l l l w % ! 3 @ 4 c ,.} +.N.%X7XqXn X pXnXK }.b 1 C 5.4.#.V y $ d E @ p l l l l l l l l l l l l l l l l l ",
"l l l l l l l l l l l l l l w & ( 3 . 3 z $.[ O.N.%X9XeX^ 8 pXhX/ ~.v & z $.:.#.z <   i E @ p l l l l l l l l l l l l l l l l l ",
"l l l l l l l l l l l l l l w : ~.5 . 3 h &.@.4.m.%X5XeX XsXyX' uXK 4 3 l &.@.&.x 1   i E @ p l l l l l l l l l l l l l l l l l ",
"l l l l l l l l l l l l l l w 1 }.s . > 4 p r k s.m.m.j.R.E.Y c K.Y c V P l l j s >   b ( @ p l l l l l l l l l l l l l l l l l ",
"l l l l l l l l l l l l l l w 1 }.a . % > > > 2 k i.O.X.4.6.6.5.,.6.8.*.x < > 1 : #   J ~.% p l l l l l l l l l l l l l l l l l ",
"l l l l l l l l l l l l l l w : {.8 . % # # # > r 4.] ] 1.3.3.1.1.3.<.*.r > # # # #   J ~.% p l l l l l l l l l l l l l l l l l ",
"l l l l l l l l l l l l l l w & !.3 . # # # # % e a.,.,.,.<.:.:.:.<.,.&.q > # # # #   J ~.% p l l l l l l l l l l l l l l l l l ",
"l l l l l l l l l l l l l l w % ~ 1   O O X X . < Y L.L.L.Z.p.C S.(.L.P > O O @ ; #   J ~.% p l l l l l l l l l l l l l l l l l ",
"l l l l l l l l l l l l l l w $ E > @ = = = = = = , d R E g < y ( ( ! d o & = & O O   m !.$ f l l l l l l l l l l l l l l l l l ",
"l l l l l l l l l l l l l l w @ d $ = p p p p p p @ a ( ` F > % m d d 4 & p p w # #   d E @ f l l l l l l l l l l l l l l l l l ",
"l l l l l l l l l l l l l l u X % X 2 l l l l l h $ / gXjX/ : # f f f p u l l h u w # 3 m @ p l l l l l l l l l l l l l l l l l ",
"l l l l l l l l l l l l l l p 2 < < u l l l l l h $ ` bXbX( 3 > l l l l l l l l l l & $ 1 X p l l l l l l l l l l l l l l l l l ",
"l l l l l l l l l l l l l l l h h h h l l l l l h $ Q aX{.E 1 > l l l l l l l l l l 0 = = = g l l l l l l l l l l l l l l l l l ",
"l l l l l l l l l l l l l l l l l l l l l l l l h & 8 G m d % , l l l l l l l l l l g p p p h l l l l l l l l l l l l l l l l l "
};
