/* XPM */
static char *result[] = {
/* columns rows colors chars-per-pixel */
"64 64 213 2 ",
"   c #150301",
".  c #1B0501",
"X  c #1D0903",
"o  c #1E0B09",
"O  c #230C03",
"+  c #2A0F05",
"@  c #240D0A",
"#  c #290E0B",
"$  c #261202",
"%  c #2D1504",
"&  c #25120D",
"*  c #2B140B",
"=  c #2D1A09",
"-  c #321507",
";  c #341C04",
":  c #341B0B",
">  c #261311",
",  c #2B1611",
"<  c #2C1A15",
"1  c #2E1A19",
"2  c #321710",
"3  c #341A14",
"4  c #3B1E16",
"5  c #331C19",
"6  c #3B1D19",
"7  c #3E2705",
"8  c #35220A",
"9  c #39220C",
"0  c #3B2215",
"q  c #36231D",
"w  c #3A261B",
"e  c #3C231C",
"r  c #382522",
"t  c #3A2622",
"y  c #442C0A",
"u  c #46300F",
"i  c #402613",
"p  c #442C14",
"a  c #42241C",
"s  c #442D1A",
"d  c #473113",
"f  c #4B3414",
"g  c #4B341A",
"h  c #4D3819",
"j  c #513712",
"k  c #533C14",
"l  c #533B1A",
"z  c #442621",
"x  c #442B24",
"c  c #462B26",
"v  c #4C2B24",
"b  c #4E2F28",
"n  c #512F27",
"m  c #512F29",
"M  c #463126",
"N  c #47332D",
"B  c #4B352B",
"V  c #4E3929",
"C  c #54332C",
"Z  c #5A362E",
"A  c #533A2C",
"S  c #5A3A2F",
"D  c #4B3531",
"F  c #533731",
"G  c #5B3730",
"H  c #553931",
"J  c #5D3A32",
"K  c #613B33",
"L  c #594217",
"P  c #61471E",
"I  c #664D1D",
"U  c #6B541A",
"Y  c #71561F",
"T  c #5C4826",
"R  c #614D23",
"E  c #604828",
"W  c #6C5324",
"Q  c #6E5627",
"!  c #745C25",
"~  c #71562D",
"^  c #735B2C",
"/  c #695430",
"(  c #745D32",
")  c #7D662C",
"_  c #7D6432",
"`  c #7D663A",
"'  c #87650D",
"]  c #8E6C12",
"[  c #9B6A18",
"{  c #9D6C1D",
"}  c #9C7716",
"|  c #A27E0B",
" . c #A16D1C",
".. c #A5771D",
"X. c #876A2B",
"o. c #906F2C",
"O. c #8D7226",
"+. c #967929",
"@. c #856B32",
"#. c #886A34",
"$. c #876D3D",
"%. c #8C7335",
"&. c #8B7538",
"*. c #8C733C",
"=. c #917235",
"-. c #92753B",
";. c #927C3D",
":. c #9B7D3C",
">. c #AE7E2C",
",. c #A47B37",
"<. c #876C40",
"1. c #8C7141",
"2. c #8D7848",
"3. c #967B46",
"4. c #A7800E",
"5. c #A88217",
"6. c #AF831B",
"7. c #B38A19",
"8. c #B3921B",
"9. c #9F8236",
"0. c #9D823D",
"q. c #A58328",
"w. c #B58928",
"e. c #B99629",
"r. c #A28334",
"t. c #A5823A",
"y. c #B78931",
"u. c #AF9139",
"i. c #BD9737",
"p. c #C3933A",
"a. c #C89B3B",
"s. c #CBA832",
"d. c #D2AA35",
"f. c #D3AE36",
"g. c #E1BB3C",
"h. c #9B8346",
"j. c #9E844C",
"k. c #9F8855",
"l. c #A38441",
"z. c #A68B43",
"x. c #AB8944",
"c. c #A4854B",
"v. c #A9894C",
"b. c #B28E44",
"n. c #AD9449",
"m. c #B59B44",
"M. c #B49649",
"N. c #BA9D4E",
"B. c #A78953",
"V. c #A38D54",
"C. c #AE9754",
"Z. c #AC9358",
"A. c #B59C56",
"S. c #BCA04A",
"D. c #BEA058",
"F. c #B99D6A",
"G. c #BBA263",
"H. c #BEA26D",
"J. c #BFA971",
"K. c #CB9B44",
"L. c #C89D56",
"P. c #CDAA42",
"I. c #D1A742",
"U. c #DCBA4A",
"Y. c #C7A955",
"T. c #CAB457",
"R. c #D6BC54",
"E. c #D4BE5D",
"W. c #C3A668",
"Q. c #CDB769",
"!. c #D2BB64",
"~. c #D4BB68",
"^. c #C4AA74",
"/. c #CEB277",
"(. c #D5B379",
"). c #E3B967",
"_. c #D9C15D",
"`. c #EBC949",
"'. c #F6D64C",
"]. c #ECCF58",
"[. c #EAD35E",
"{. c #F8D959",
"}. c #F7E054",
"|. c #F9E158",
" X c #FBE45D",
".X c #DBC467",
"XX c #DDC674",
"oX c #E3C566",
"OX c #E9D568",
"+X c #F4DC66",
"@X c #F8D669",
"#X c #EBD475",
"$X c #F9DA73",
"%X c #F6D97C",
"&X c #FCE268",
"*X c #FDE477",
"=X c #D8C483",
"-X c #E5C887",
";X c #F3CC81",
":X c #F5DB8A",
">X c #E8CE90",
",X c #E8D594",
"<X c #F6DA96",
"1X c #FCE283",
"2X c #FDE38A",
"3X c #FFF187",
"4X c #FEE493",
"5X c #F5E198",
"6X c #FFEC9D",
"7X c #F1D4A6",
"8X c #F4DBA4",
"9X c #FFF7AD",
"0X c #FEF9B4",
/* pixels */
"K K K K K K K K K K K K K K K K K K K K K K K K K K K K J D D F K K K K K K K K K K K K K K K K K K K K K K K K K K K K K K K K ",
"K K K K K K K K K K K K K K K K K K K K K K K K K K K K J D D H K K K K K K K K K K K K K K K K K K K K K K K K K K K K K K K K ",
"K K K K K K K K K K K K K K K K K K K K K K K K K K K K J D D F K K K K K K K K K K K K K K K K K K K K K K K K K K K K K K K K ",
"K K K K K K K K K K K K K K K K K K K K K K K K K K K K J D D F K K K K K K K K K K K K K K K K K K K K K K K K K K K K K K K K ",
"K K K K K K K K K K K K K K K K K K K K K K K K K K K K K D D F K K K K K K K K K K K K K K K K K K K K K K K K K K K K K K K K ",
"K K K K K K K K K K K K K K K K K K K K K K K K K K K K K D D F K K K K K K K K K K K K K K K K K K K K K K K K K K K K K K K K ",
"K K K K K K K K K K K K K K K K K K K K K K K K K K K K J F D F K K K K K K K K K K K K K K K K K K K K K K K K K K K K K K K K ",
"K K K K K K K K K K K K K K K K K K K K K K K K K K K K J D D F K K K K K K K K K K K K K K K K K K K K K K K K K K K K K K K K ",
"K K K K K K K K K K K K K K K K K K K K K K K K K K K K J D D D H K K K K K K K K K K K K K K K K K K K K K K K K K K K K K K K ",
"K K K K K K K K K K K K K K K K K K K K K K K K K K K K K D D D F J K K K K K K K K K K K K K K K K K K K K K K K K K K K K K K ",
"K K K K K K K K K K K K K K K K K K K K K K K K K K K K J D D D D J K K K K K K K K K K K K K K K K K K K K K K K K K K K K K K ",
"K K K K K K K K K K K K K K K K K K K K K K K K K K K K K D D D D D J K K K K K K K K K K K K K K K K K K K K K K K K K K K K K ",
"K K K K K K K K K K K K K K K K K K K K K K K K K K K K J D D D D D J J K K K J H K K K K K K K K K K K K K K K K K K K K K K K ",
"K K K K K K K K K K K K K K K K K K K K K K K K K K K K K D D D D D J K J J K H D K K K K K K K K K K K K K K K K K K K K K K K ",
"K K K K K K K K K K K K K K K K K K K K K K K K K K K K J D D D D D J J K D J K K K K K K K K K K K K K K K K K K K K K K K K K ",
"K K K K K K K K K K K K K K K K K K K K K K K K K K K K G D D D D D D F F J K K K K K K K K K K K K K K K K K K K K K K K K K K ",
"K K K K K K K K K K K K K K K K K K K K K K K K K K K K G D D D D D D F H K K K K K K K K K K K K K K K K K K K K K K K K K K K ",
"K K K K K K K K K K K K K K K K K K K K K K K K K K K K K D D D D D J K K K K K K K K K K K K K K K K K K K K K K K K K K K K K ",
"K K K K K K K K K K K K K K K K K K K K K K K K K K K K J F D D D D J K K K K K K K K K K K K K K K K K K K K K K K K K K K K K ",
"K K K K K K K K K K K K K K K K K K K K K K K K K K K K J D D D D D G K K K K K K K K K K K K K K K K K K K K K K K K K K K K K ",
"K K K K K K K K K K K K K K K K K K K J K S K J J H H Z H N N D D F J K K K K K K K K K K K K K K K K K K K K K K K K K K K K K ",
"K K K K K K K K K K K K K K K K K K K J A A H A N c t z e w t t D H K K K K K K K K K K K K K K K K K K K K K K K K K K K K K K ",
"K K K K K K K K K K K K K K K K K K H A M t N N r 1 > > > > > < r z z z z m G K K K K K K K K K K K K K K K K K K K K K K K K K ",
"K K K K K K K K K K K K K K K K K J V M w q r r 1 @                   . o 3 v G K K K K K K K K K K K K K K K K K K K K K K K K ",
"K K K K K K K K K K K K K K K K J Z x 0 & & > @ @ X . . . X X O . X   X $ $ , 4 4 6 6 a Z J K K K K K K K K K K K K K K K K K K ",
"K K K K K K K K K K K K K K K K A M 0 & .       . @ % : : ; ; ; : 9 : 8 8 $ X     . . # v J J G K K K K K K K K K K K K K K K K ",
"K K K K K K K K K K K K K K K S M 0 * O . . . . - l ( 3.1._ Y Y -.h.j.;.) L ; X . X X $ 2 a G G J K K K K K K K K K K K K K K K ",
"K K K K K K K K K K K K K K Z v 0 * % ; p s g l P #.x.A.M.r.O.O.M.Y.~.T.m.O.U k g g p 8 + , z b F J J K K K K K K K K K K K K K ",
"K K K K K K K K K K K K K K m 3 + O ; k *.V.C.N.S.S.m.u.} ] ' ' q.i.U._.R.T.S.S.C.V.` T * . o 3 c b H H J E K K K K K K K K K K ",
"K K K K K K K K K K K K K K v # O % j ) A.~..X.X_.P.e.5.} } } ..w.i.U._.].[.[.[..X!.A.&.f % . * r c B Z J K K K K K K K K K K K ",
"K K K K K K K K K K K K K K v O + y ! z.~.#X$X+X[.s.8.| 5.w.y.p.i.P.U.].}. X&X|.+XOX_.C.! d X O * w c A H K K K K K K K K K K K ",
"K K K K K K K K K K K K K K v O ; L h.Q.#X%X$X+X[.s.8.4.6.e.a.K.I.P.f.`.'.}.}.}.|.&XOXT.j.R O X o 1 a V H J K K K K K K K K K K ",
"K K K K K K K K K K K K K K v o 9 Q C.=X2X1X*X@X{.f.e.>...w.p.K.a.a.s.g.'.'.'.}.+X&X#XXXC.( $     < w N V A S K K K K K K K K K ",
"K K K K K K K K K K K K K K v . 8 R V.=X<X4X2X:X$X).d.>...[ [  .....7.d.`.'.{. X&X*X#XQ.V./ $     < w V V A S E K K K K K K K K ",
"K K K K K K K K K K K K K K v o = L 2.J.-X5X6X6X4X%X).K.y. .{ o.>.p.s.g.'.{.&X&X*X:XXXG.h.T o     < w V V A J K K K K K K K K K ",
"K K K K K K K K K K K K K K v . = 7 ( k./.,X0X0X9X<X;X).L.>.,.,.L.).{.@X@X+X*X3X3X3XQ.k.` h X     = w M F H J K K K K K K K K K ",
"K K K K K K K K K K K K K K v O $ u ^ 2.B.F./.=X,X<X<X<X-X(.(.(.-X:X2X%X$X@XoXE.T.D.n.0.^ h . . X < t T D H K K K K K K K K K K ",
"K K K K K K K K K K K K K K v # = y W $.-.3.:.A.(.>X<X8X8X7X7X7X7X8X5X:X%X).Y.u.9.+.9.) Q f O O $ < t D H E K K K K K K K K K K ",
"K K K K K K K K K K K K K K Z z 4 ; l ~ 1.3.c.Z.F.H.W.H.F.H.F.F.^.W.W.Y.N.N.m.x.u.h.@.Q L 8 O O < w L t H K K K K K K K K K K K ",
"K K K K K K K K K K K K K K K Z a + 9 l ( <.1.3.c.c.3.c.B.v.v.v.v.v.v.t.:.t.0.0.&.&.! L 7 % # 2 w t N T H K K K K K K K K K K K ",
"K K K K K K K K K K K K K K K K 4 O O = u l P ^ #.=.3.,.b.b.b.b.x.x.v.l.3.-.X.Q I L y ; % - 2 a n C Z H J K K K K K K K K K K K ",
"K K K K K K K K K K K K K K K K n 3 @ X $ = 9 l W @.=.:.,.,.t.t.,.,.h.3.1.@.W f y ; : : 2 4 v n Z J J J K K K K K K K K K K K K ",
"K K K K K K K K K K K K K K K K K J 3       . ; j W @.#.#.o.o.o.=.-.%.$.` W j - . . @ 3 a n K K K K K K K K K K K K K K K K K K ",
"K K K K K K K K K K K K K K K K K K v 4 X   . O - : 4 i s d d d u p s s s s i : 3 4 a b C C K K K K K K K K K K K K K K K K K K ",
"K K K K K K K K K K K K K K K K K K K n 3 # . O O . . . X o o o o o # @ @ 3 4 a z n Z K K K K K K K K K K K K K K K K K K K K K ",
"K K K K K K K K K K K K K K K K K K K G m v 5 2 , @ o # > < 1 1 6 e 6 e z n C Z Z Z K K K K K K K K K K K K K K K K K K K K K K ",
"K K K K K K K K K K K K K K K K K K K K K G v z a 3 4 6 t t r c b m b m C Z K K K K K K K K K K K K K K K K K K K K K K K K K K ",
"K K K K K K K K K K K K K K K K K K K K K K K H C C m C C N N F J K K K K K K K K K K K K K K K K K K K K K K K K K K K K K K K ",
"K K K K K K K K K K K K K K K K K K K K K K K K J J G K G D D F K K K K K K K K K K K K K K K K K K K K K K K K K K K K K K K K ",
"K K K K K K K K K K K K K K K K K K K K K K K K K K K G H D D D K K K K K K K K K K K K K K K K K K K K K K K K K K K K K K K K ",
"K K K K K K K K K K K K K K K K K K K K K K K K K K K J D D D F K K K K K K K K K K K K K K K K K K K K K K K K K K K K K K K K ",
"K K K K K K K K K K K K K K K K K K K K K K K K K K K H D D D F K K K K K K K K K K K K K K K K K K K K K K K K K K K K K K K K ",
"K K K K K K K K K K K K K K K K K K K K K K K K K K K H D D D F K K K K K K K K K K K K K K K K K K K K K K K K K K K K K K K K ",
"K K K K K K K K K K K K K K K K K K K K K K K K K K J H D D D F K K K K K K K K K K K K K K K K K K K K K K K K K K K K K K K K ",
"K K K K K K K K K K K K K K K K K K K K K K K K K J F D D D D F K K K K K K K K K K K K K K K K K K K K K K K K K K K K K K K K ",
"K K K K K K K K K K K K K K K K K K K K K K K K J F D F J D D F K K K K K K K K K K K K K K K K K K K K K K K K K K K K K K K K ",
"K K K K K K K K K K K K K K K K K K K K K K K K J D H H G D D F K K K K K K K K K K K K K K K K K K K K K K K K K K K K K K K K ",
"K K K K K K K K K K K K K K K K K K K K K K K K K F H J J D N F K K K K K K K K K K K K K K K K K K K K K K K K K K K K K K K K ",
"K K K K K K K K K K K K K K K K K K K K K K K K J D J G D D D F K K K K K K K K K K K K K K K K K K K K K K K K K K K K K K K K ",
"K K K K K K K K K K K K K K K K K K K K K K K K K J K J J D D F K K K K K K K K K K K K K K K K K K K K K K K K K K K K K K K K ",
"K K K K K K K K K K K K K K K K K K K K K K K K K K K J H D D F K K K K K K K K K K K K K K K K K K K K K K K K K K K K K K K K ",
"K K K K K K K K K K K K K K K K K K K K K K K K K K K H D D D F K K K K K K K K K K K K K K K K K K K K K K K K K K K K K K K K ",
"K K K K K K K K K K K K K K K K K K K K K K K K K K K H D D D H K K K K K K K K K K K K K K K K K K K K K K K K K K K K K K K K ",
"K K K K K K K K K K K K K K K K K K K K K K K K K K K J D D D H K K K K K K K K K K K K K K K K K K K K K K K K K K K K K K K K "
};
