/* XPM */
static char *result[] = {
/* columns rows colors chars-per-pixel */
"64 64 209 2 ",
"   c #0F0F0D",
".  c #100F0D",
"X  c #0F100B",
"o  c #15110E",
"O  c #1C150F",
"+  c #110E10",
"@  c #151312",
"#  c #1A1614",
"$  c #1D1915",
"%  c #1E1A19",
"&  c #221413",
"*  c #231B15",
"=  c #231D1C",
"-  c #2A1E1B",
";  c #371916",
":  c #361D1A",
">  c #25211D",
",  c #2D241A",
"<  c #2B231D",
"1  c #33241E",
"2  c #322A1F",
"3  c #3A2A1C",
"4  c #251E20",
"5  c #252221",
"6  c #2C2522",
"7  c #2D2925",
"8  c #2D2729",
"9  c #342522",
"0  c #382622",
"q  c #332B24",
"w  c #3B2A25",
"e  c #332D2A",
"r  c #3B2E2A",
"t  c #3C3327",
"y  c #35312D",
"u  c #3B332C",
"i  c #363230",
"p  c #3C3532",
"a  c #3E3832",
"s  c #3F3A39",
"d  c #47251D",
"f  c #49371E",
"g  c #422D27",
"h  c #452E29",
"j  c #492F29",
"k  c #582B27",
"l  c #473723",
"z  c #4B3923",
"x  c #42352C",
"c  c #4C322C",
"v  c #44392C",
"b  c #4A3C2E",
"n  c #54352E",
"m  c #543D2B",
"M  c #433531",
"N  c #4C3530",
"B  c #443B34",
"V  c #4A3E34",
"C  c #443E3A",
"Z  c #493F3A",
"A  c #553730",
"S  c #583730",
"D  c #553B35",
"F  c #5C3932",
"G  c #613B33",
"H  c #50412F",
"J  c #464036",
"K  c #4C4136",
"L  c #46423D",
"P  c #4B433C",
"I  c #4F483D",
"U  c #514434",
"Y  c #5A4830",
"T  c #53453C",
"R  c #534A3E",
"E  c #5B4D3D",
"W  c #654B2D",
"Q  c #74532F",
"!  c #675136",
"~  c #765A37",
"^  c #7C6039",
"/  c #4B4641",
"(  c #4E4944",
")  c #4E4E4C",
"_  c #524740",
"`  c #534C44",
"'  c #5B4E42",
"]  c #544D49",
"[  c #5D5145",
"{  c #54514B",
"}  c #5C544A",
"|  c #5F584D",
" . c #5E5A53",
".. c #5A5854",
"X. c #635546",
"o. c #665A43",
"O. c #6B5A45",
"+. c #62564A",
"@. c #63594C",
"#. c #6B5C4C",
"$. c #605652",
"%. c #625B53",
"&. c #6B5E52",
"*. c #635F5A",
"=. c #6D614F",
"-. c #73634C",
";. c #676055",
":. c #6A6154",
">. c #64615D",
",. c #6B635B",
"<. c #736554",
"1. c #796756",
"2. c #756956",
"3. c #7D6A54",
"4. c #71675B",
"5. c #756A5C",
"6. c #7B6C5B",
"7. c #7E715E",
"8. c #656260",
"9. c #746D63",
"0. c #796D61",
"q. c #747067",
"w. c #7C7264",
"e. c #74726D",
"r. c #7A736C",
"t. c #787673",
"y. c #886737",
"u. c #91744C",
"i. c #806E5D",
"p. c #847157",
"a. c #81735D",
"s. c #827464",
"d. c #847866",
"f. c #8A7A65",
"g. c #847A6B",
"h. c #8B7D6C",
"j. c #927F6B",
"k. c #837C72",
"l. c #8A7C70",
"z. c #827E7A",
"x. c #9C804F",
"c. c #9C8458",
"v. c #A88248",
"b. c #A7895B",
"n. c #B19054",
"m. c #BA985D",
"M. c #8C816D",
"N. c #958364",
"B. c #95836C",
"V. c #9A856E",
"C. c #8D8173",
"Z. c #86817A",
"A. c #89837C",
"S. c #928472",
"D. c #9E8B73",
"F. c #958B7C",
"G. c #9B8D7B",
"H. c #9C907F",
"J. c #B69C67",
"K. c #A18E72",
"L. c #A5947B",
"P. c #B09A70",
"I. c #C09D5E",
"U. c #C8A66D",
"Y. c #CDAE70",
"T. c #D0B57D",
"R. c #8B8583",
"E. c #8C8984",
"W. c #938B83",
"Q. c #9C9385",
"!. c #98948A",
"~. c #9C958C",
"^. c #999996",
"/. c #9C9A95",
"(. c #A79784",
"). c #A0978A",
"_. c #A39B8B",
"`. c #B09C87",
"'. c #A59E93",
"]. c #A39E98",
"[. c #B4A38A",
"{. c #BCA68A",
"}. c #ADA293",
"|. c #A5A19B",
" X c #A9A49D",
".X c #B4A895",
"XX c #A9A6A3",
"oX c #B3AFA4",
"OX c #B2AFAA",
"+X c #BCB5A7",
"@X c #B5B1AB",
"#X c #B9B6B4",
"$X c #BAB6B4",
"%X c #D5B985",
"&X c #C7B59A",
"*X c #CABEAE",
"=X c #C2BFB8",
"-X c #D7C39C",
";X c #DBC8A6",
":X c #C9C5BC",
">X c #D4CBBA",
",X c #E1D0AD",
"<X c #EEDFBC",
"1X c #D4CEC4",
"2X c #D0CFCC",
"3X c #DDD7C7",
"4X c #E6E4D9",
"5X c #F3F2EE",
"6X c #F5F4F2",
/* pixels */
"G G G G G G G G G G G G G G G G G G G G G G G G G G G G S N h A F G G G G G G G G G G G G G G G G G G G G G G G G G G G G G G G ",
"G G G G G G G G G G G G G G G G G G G G G G G G G G G F j 9 6 r S G G G G G G G G G G G G G G G G G G G G G G G G G G G G G G G ",
"G G G G G G G G G G G G G G G G G G G G G G G G G G G A 4 & & 4 A G G G G G G G G G G G G G G G G G G G G G G G G G G G G G G G ",
"G G G G G G G G G G G G G G G G G G G G G G G G G G G A 1 ; ; : n G G G G G G G G G G G G G G G G G G G G G G G G G G G G G G G ",
"G G G G G G G G G G G G G G G G G G G G G G G G G G G A : d d : n G G G G G G G G G G G G G G G G G G G G G G G G G G G G G G G ",
"G G G G G G G G G G G G G G G G G G G G G G G G G F G A 0 k k 9 n F G G G G G G G G G G G G G G G G G G G G G G G G G G G G G G ",
"G G G G G G G G G G G G G G G G G G G G G G G G G D j w - k k : 0 h S G G G G G G G G G G G G G G G G G G G G G G G G G G G G G ",
"G G G G G G G G G G G G G G G G G G G G G G G G F D / i = ; ; & - 4 w A F G G G G G G G G G G G G G G G G G G G G G G G G G G G ",
"G G G G G G G G G G G G G G G G G G G G G G F F _ e._.M.I * * < p i 9 r n G G G G G G G G G G G G G G G G G G G G G G G G G G G ",
"G G G G G G G G G G G G G G G G G G G G G F S U q.@X3X:XC.V q J / L e 1 0 A F G G G G G G G G G G G G G G G G G G G G G G G G G ",
"G G G G G G G G G G G G G G G G G G G G n w c O.G.~.|.@Xg.-.o.V a e 8 9 - 0 0 n F G G G G G G G G G G G G G G G G G G G G G G G ",
"G G G G G G G G G G G G G G G G G G G F g 2 Y -.p.3.7.M.a.`.K.Y q z 3 - - < * g F G G G G G G G G G G G G G G G G G G G G G G G ",
"G G G G G G G G G G G G G G G G G G G F g l y.! ~ c.b.u.J.-X{.O.l Q W * * 3 - 3 A G G G G G G G G G G G G G G G G G G G G G G G ",
"G G G G G G G G G G G G G G G G G G G F g f y.^ c.Y.I.v.m.U.b.y.W y.^ f d f , w N G G G G G G G G G G G G G G G G G G G G G G G ",
"G G G G G G G G G G G G G G G G G G G F g z x.J.;X<X,X;X;X%XU.U.m.n.v.y.Q Q 3 g F G G G G G G G G G G G G G G G G G G G G G G G ",
"G G G G G G G G G G G G G G G G G G G G n H y.P.>X4X4X4X<X-XT.T.T.J.n.x.^ W z m G G G G G G G G G G G G G G G G G G G G G G G G ",
"G G G G G G G G G G G G G G G G G G G G F n x 2..X#X X|.H.B.N.N.N.a.s.w.' q j F G G G G G G G G G G G G G G G G G G G G G G G G ",
"G G G G G G G G G G G G G G G G G G G G G c q @.Q.Z.( L J t y a u u +.4.( - x G G G G G G G G G G G G G G G G G G G G G G G G G ",
"G G G G G G G G G G G G G G G G G G G G G j q +.G.Q.F./.^.) L e.t.7.f.d.` > h F G G G G G G G G G G G G G G G G G G G G G G G G ",
"G G G G G G G G G G G G G G G G G G G G G c q [ M.G._.:X2Xe.>.^.Q.g.d.5.I > j G G G G G G G G G G G G G G G G G G G G G G G G G ",
"G G G G G G G G G G G G G G F F S S A S n h q ' <.2.5.W.$Xe.>.!.9.` ' ( L 5 h F G G G G G G G G G G G G G G G G G G G G G G G G ",
"G G G G G G G G G G G G G G F h - < - - - * > R @.{ | r.|.8.;.W.>.a y a J > h F G G G G G G G G G G G G G G G G G G G G G G G G ",
"G G G G G G G G G G G c 9 9 9 r / *.r.0.' 8 6 R } ( } w.~.;.} M.%.u 2 v _ 6 j F G G G G G G G G G G G G G G G G G G G G G G G G ",
"G G G G G G G G G G G w 8 ] p ] z.$X1X+XS.} i J @.;.} w.~. .E d.$.i x V V x n G G G G G G G G G G G G G G G G G G G G G G G G G ",
"G G G G G G G G G G G c P z.,.d.oX6X6X1X.Xf.V e [ 5.<.h.|.r.4.M.&.P I a , h n A n G G G G G G G G G G G G G G G G G G G G G G G ",
"G G G G G G G G G G G G A C d.L.*X6X5X1X.Xi.p 6 < [ B.L. XXX_.V.2.+.u $ @ * = * 0 F G G G G G G G G G G G G G G G G G G G G G G ",
"G G G G G G G G G G G G F A V 4.}.1X>X.Xh.` 8 5 = 6 q q i i e 6 > > > , v ' 1.' < < < c G G G G G G G G G G G G G G G G G G G G ",
"G G G G G G G G G G G G G S < L k.'._.h.+.i > = 4 = # @ + @ @ @ o o , b #.D.{.d.v q * 1 c G G G G G G G G G G G G G G G G G G G ",
"G G G G G G G G G G G G G S - i %.9.,.` y 5 > < e e 8 8 r q 6 q < o , J =.[.&XD.#.! b 0 g A G G G G G G G G G G G G G G G G G G ",
"G G G G G G G G G G G G F S e s { _ x q = $ < q C / B K 6.[ V E u o X o 1 s.j.V.K.p.3.6.} < F G G G G G G G G G G G G G G G G G ",
"G G G G G G G G G G G G S L XXOX).S.a.x & y _ ( / ( C ( C.4.X.1.B # ) Z.7.P X.D.[.f.V.[.C.> F G G G G G G G G G G G G G G G G G ",
"G G G G G G G G G G G G c 8 e.t.:.+.R , $ u } R / ( C ] E.0.#.i.V ( e.g.<.[ K w.`.K.V.d.&.c G G G G G G G G G G G G G G G G G G ",
"G G G G G G G G G G G G n 1 - # X X X @ # e T I / Z M ] !.q.4.i.P E.E.] L C.I I M.K.B.' r S F G G G G G G G G G G G G G G G G G ",
"G G G G G G G G G G G G F G F 0   # 5 5 = * u :.} M Z 8.@XR.9.z.} ^.^.8.,.W.R w ! 3.V.j.+.< F G G G G G G G G G G G G G G G G G ",
"G G G G G G G G G G G G G G F 1 X s ^./.M.5.| ` r.~.].:X2XR.9.).Z. .E.@X!.{ 7 q U ! O.S.g.= S G G G G G G G G G G G G G G G G G ",
"G G G G G G G G G G G G G G F 0 @ y t.t.0.6.:.s *.Q./.).W.$.] 4.:.V ..t.>.5 o , 2 2 1 ' ] * S G G G G G G G G G G G G G G G G G ",
"G G G G G G G G G G G G G G F 0 O , # 6 e _ $.u N =.#.M r i i r q K y @   + + o # # # + o $ S G G G G G G G G G G G G G G G G G ",
"G G G G G G G G G G G G G G F 0 O * $ u V _ %.e 5 &.s._ C / / C V } J @       # 5 9 e 4 @ $ S G G G G G G G G G G G G G G G G G ",
"G G G G G G G G G G G G G G F 0 # , 6 / { $.*.e 4 *.Q.s.T C C V } a.I #       @ 4 s C e * # A G G G G G G G G G G G G G G G G G ",
"G G G G G G G G G G G G G G F 0 # a e.z.r.w.&.e * C l.F.} M s U 2.=.t @   o     $ i r 8 * $ w A G G G G G G G G G G G G G G G G ",
"G G G G G G G G G G G G G G F 0 # B E.E.r.:.I < $ % { ^.%.p u T a.V @ .         o * y B K J O c G G G G G G G G G G G G G G G G ",
"G G G G G G G G G G G G G G F 9 o # % % 6 u u 7 5 $ *.#XE.} ] &.f.V @       @ @ @ # ` w.G.F.2 h G G G G G G G G G G G G G G G G ",
"G G G G G G G G G G G G G G F 0 # * . # T f.7.@.y X ..#X=X/.!.W.f.a $ = = @ # #   # B 5.~.oXq j G G G G G G G G G G G G G G G G ",
"G G G G G G G G G G G G G G F 0 # * o * ;.}.C.} 5 X y >.e.8.....K 6 v ;.,.7 % = $ # ' l.OX1Xy h G G G G G G G G G G G G G G G G ",
"G G G G G G G G G G G G G G S 0 # * X = e.:XW.@.q > , > u 0 > 5 % u X.0.0.q % 4 % # I 5.z.E.7 c G G G G G G G G G G G G G G G G ",
"G G G G G G G G G G G G G G F 3 * , @ % >. XF.2.u a J t :.X.B a q :.#.x q % % > 4 # $ * > 5 < A G G G G G G G G G G G G G G G G ",
"G G G G G G G G G G G G G G F 0 , t @ # 7 s i 7 5 a I K 2.O.I V q :.#.q $ $ = > 5 % @ # $ # c F G G G G G G G G G G G G G G G G ",
"G G G G G G G G G G G G G G F q , v # # % % # @ # 5 ( q.0.@.K 7 > [ E , # % = = = = @ % * % D G G G G G G G G G G G G G G G G G ",
"G G G G G G G G G G G G G G F 0 q U % % = = * 6 y 6 ../.t.2.E % @ e q % @ = 4 = > = # , 9 % F G G G G G G G G G G G G G G G G G ",
"G G G G G G G G G G G G G G F w t X.* % = % $ e C 7 *.#XR.w.@., 7 ( ( t 5 % % = = = @ 2 x % S G G G G G G G G G G G G G G G G G ",
"G G G G G G G G G G G G G G F w u X.4 # 4 % # % 6 6 >.XXR.w.+.u } |.|.5.J 5 % 5 = 4 @ q v $ S G G G G G G G G G G G G G G G G G ",
"G G G G G G G G G G G G G G S w P 5.5 % = = # % v %.,.9.k.;.B _ f.+X}.0./ % % = > = @ q v * F G G G G G G G G G G G G G G G G G ",
"G G G G G G G G G G G G G G F r I s.6 $ 4 = * = E B.f.+.} i * y ' ;.[ a e % 4 = = > @ a U = S G G G G G G G G G G G G G G G G G ",
"G G G G G G G G G G G G G G F r ` h.6 $ 4 4 = > v -.1.[ y e C R L a t 6 % % 4 = = = o b ' * S G G G G G G G G G G G G G G G G G ",
"G G G G G G G G G G G G G G F r } G.8 $ = 4 4 % > u [ ` y } H.(.h.o.E K * % = > - = @ K [ * F G G G G G G G G G G G G G G G G G ",
"G G G G G G G G G G G G G G F r | Q.7 $ 4 = 4 * % K h.k.L 0..X`.j.1.O.b $ = = = = = o V [ = S G G G G G G G G G G G G G G G G G ",
"G G G G G G G G G G G G G G F w ` C.6 % = = $ # $ ' G.k.` _ %.#.@.R a , @ # # # # # o t U * S G G G G G G G G G G G G G G G G G ",
"G G G G G G G G G G G G G G F w K 5.> # % = 0 9 , V #.| J 6 u X.' Z 5 = 1 w w 0 0 0 $ t v $ F G G G G G G G G G G G G G G G G G ",
"G G G G G G G G G G G G G G F 0 u ! * * < w S S w q N M u > I h.l.%.e 9 n F S S F S , 1 w % S G G G G G G G G G G G G G G G G G ",
"G G G G G G G G G G G G G G F 0 6 v < h A S G G S n S S N 9 | oX>XA.B 0 S G G G G G < * * * S G G G G G G G G G G G G G G G G G ",
"G G G G G G G G G G G G G G F 0 & > * c G G G G G G G F A 9  .oX*XC.C 0 n G G G G G A j j n G G G G G G G G G G G G G G G G G G ",
"G G G G G G G G G G G G G G G c 0 w g S G G G G G G G S M 9 L r.6.+.0 9 S G G G G G F G G G G G G G G G G G G G G G G G G G G G ",
"G G G G G G G G G G G G G G G G F G F G G G G G G G G F N 9 8 u u u 6 w S G G G G G G G G G G G G G G G G G G G G G G G G G G G ",
"G G G G G G G G G G G G G G G G G G G G G G G G G G G D N M c n F F F F G G G G G G G G G G G G G G G G G G G G G G G G G G G G "
};
