/* XPM */
static char *result[] = {
/* columns rows colors chars-per-pixel */
"64 64 219 2 ",
"   c #0D0D0D",
".  c #110E0C",
"X  c #14110D",
"o  c #19130E",
"O  c #0F0F11",
"+  c #110E11",
"@  c #0F1111",
"#  c #151211",
"$  c #1A1613",
"%  c #1D1915",
"&  c #1B1719",
"*  c #1E1A1A",
"=  c #231511",
"-  c #221B15",
";  c #2A1A14",
":  c #231D1C",
">  c #291C1A",
",  c #3C1C18",
"<  c #25211C",
"1  c #2B231D",
"2  c #2D281F",
"3  c #32241E",
"4  c #37291B",
"5  c #241F20",
"6  c #252220",
"7  c #2C2422",
"8  c #2D2924",
"9  c #2E2B2A",
"0  c #322522",
"q  c #3A2623",
"w  c #332B24",
"e  c #3B2A24",
"r  c #342E2A",
"t  c #3A2E29",
"y  c #3D3226",
"u  c #36312D",
"i  c #3C332D",
"p  c #3F382E",
"a  c #343231",
"s  c #3C3532",
"d  c #3E3A35",
"f  c #3E3E3E",
"g  c #441C18",
"h  c #442D27",
"j  c #452E29",
"k  c #492F29",
"l  c #5B2B26",
"z  c #493722",
"x  c #43342B",
"c  c #4B322C",
"v  c #433A2E",
"b  c #4A3D2D",
"n  c #53352E",
"m  c #533C28",
"M  c #413733",
"N  c #423A33",
"B  c #4A3C33",
"V  c #433D39",
"C  c #483E39",
"Z  c #533630",
"A  c #553A33",
"S  c #553B35",
"D  c #5C3932",
"F  c #69312E",
"G  c #613B33",
"H  c #52412C",
"J  c #474136",
"K  c #4B4236",
"L  c #45413C",
"P  c #4C433B",
"I  c #534434",
"U  c #51453B",
"Y  c #544A3E",
"T  c #594B3D",
"R  c #634D2D",
"E  c #6C4C2A",
"W  c #6B502F",
"Q  c #73502F",
"!  c #63523A",
"~  c #775C36",
"^  c #483F40",
"/  c #464442",
"(  c #4A4641",
")  c #4E4944",
"_  c #484948",
"`  c #574944",
"'  c #544C44",
"]  c #5B4E44",
"[  c #534E4A",
"{  c #5C5245",
"}  c #54514C",
"|  c #5C544B",
" . c #5D5952",
".. c #5A5857",
"X. c #635545",
"o. c #6A5944",
"O. c #61574C",
"+. c #655A4C",
"@. c #6A5C4D",
"#. c #705E4D",
"$. c #615755",
"%. c #635B52",
"&. c #6C5E51",
"*. c #625D5A",
"=. c #6E624F",
"-. c #7D6547",
";. c #72644D",
":. c #6D6253",
">. c #64615C",
",. c #6C655C",
"<. c #746455",
"1. c #796750",
"2. c #746855",
"3. c #7C6A54",
"4. c #72665A",
"5. c #736B5E",
"6. c #7A6C5C",
"7. c #7C705C",
"8. c #6A6663",
"9. c #6C6863",
"0. c #6A6866",
"q. c #746C64",
"w. c #7A6E61",
"e. c #7D7164",
"r. c #76736C",
"t. c #7B756B",
"y. c #7A7572",
"u. c #7C7A74",
"i. c #7C7B7D",
"p. c #8C6938",
"a. c #956D3A",
"s. c #976D43",
"d. c #816F5B",
"f. c #83735D",
"g. c #8A795C",
"h. c #837564",
"j. c #8B7A64",
"k. c #817768",
"l. c #83796D",
"z. c #8C7D6B",
"x. c #907C65",
"c. c #827D75",
"v. c #8A7F71",
"b. c #857E79",
"n. c #AC8547",
"m. c #AD915F",
"M. c #95826B",
"N. c #99856D",
"B. c #9F8D6A",
"V. c #8C8273",
"C. c #85827B",
"Z. c #8C857A",
"A. c #8D887C",
"S. c #948572",
"D. c #968975",
"F. c #978976",
"G. c #9C8A75",
"H. c #9C8D7C",
"J. c #9E917B",
"K. c #A18D69",
"L. c #AB9263",
"P. c #B39665",
"I. c #A18C74",
"U. c #A48F78",
"Y. c #A09075",
"T. c #A4937B",
"R. c #BEA470",
"E. c #C29E65",
"W. c #CAA969",
"Q. c #D2B57B",
"!. c #8D8A83",
"~. c #8A8886",
"^. c #948E85",
"/. c #908F8A",
"(. c #9B9284",
"). c #96928F",
"_. c #9A958A",
"`. c #989694",
"'. c #999795",
"]. c #AB9C86",
"[. c #A1958B",
"{. c #A49888",
"}. c #B19E87",
"|. c #A69F94",
" X c #ADA08E",
".X c #B6A589",
"XX c #ABA293",
"oX c #A3A19C",
"OX c #ABA69C",
"+X c #B7AB95",
"@X c #B4AC9E",
"#X c #B9B19E",
"$X c #A9A6A1",
"%X c #ACAAA4",
"&X c #B6ADA3",
"*X c #B9B2A4",
"=X c #B4B1AB",
"-X c #BBB5AA",
";X c #B7B5B2",
":X c #BCBAB3",
">X c #C6B299",
",X c #D3B890",
"<X c #C6BBAA",
"1X c #C4BEB5",
"2X c #DAC59D",
"3X c #DDC9A2",
"4X c #CCC4B7",
"5X c #C5C1BA",
"6X c #E0CDA0",
"7X c #E8D8B2",
"8X c #C9C7C2",
"9X c #D8D4CA",
"0X c #E2D9C8",
"qX c #E1DCD3",
"wX c #E3E1DE",
"eX c #E9E4DA",
"rX c #E7E6E2",
"tX c #E9E8E6",
"yX c #F7F7F5",
/* pixels */
"G G G G G G G G G G G G G G G G G G G G G G G G G G G G D c t c Z D G G G G G G G G G G G G G G G G G G G G G G G G G G G G G G ",
"G G G G G G G G G G G G G G G G G G G G G G G G G G G G D 7 > > 0 D G G G G G G G G G G G G G G G G G G G G G G G G G G G G G G ",
"G G G G G G G G G G G G G G G G G G G G G G G G G G G G D : = = - A G G G G G G G G G G G G G G G G G G G G G G G G G G G G G G ",
"G G G G G G G G G G G G G G G G G G G G G G G G G G G G D = g , = D G G G G G G G G G G G G G G G G G G G G G G G G G G G G G G ",
"G G G G G G G G G G G G G G G G G G G G G G G G G G G G D : l l = D G G G G G G G G G G G G G G G G G G G G G G G G G G G G G G ",
"G G G G G G G G G G G G G G G G G G G G G G G G G G G G Z : l F : Z D G G G G G G G G G G G G G G G G G G G G G G G G G G G G G ",
"G G G G G G G G G G G G G G G G G G G G G G G G G G n q q $ l F $ q h c G G G G G G G G G G G G G G G G G G G G G G G G G G G G ",
"G G G G G G G G G G G G G G G G G G G G G G G G G n U ` V & , , o 5 5 0 n G G G G G G G G G G G G G G G G G G G G G G G G G G G ",
"G G G G G G G G G G G G G G G G G G G G G G G G A K C.@XH.J < - 5 V s 0 q n D G G G G G G G G G G G G G G G G G G G G G G G G G ",
"G G G G G G G G G G G G G G G G G G G G G D G n v C.:XqX9Xz.v 2 U ) ^ u 1 3 Z D D G G G G G G G G G G G G G G G G G G G G G G G ",
"G G G G G G G G G G G G G G G G G G G G G k q b =.].^.`.4X5.;.;.x d u 0 3 1 4 4 j G G G G G G G G G G G G G G G G G G G G G G G ",
"G G G G G G G G G G G G G G G G G G G G G > e ! -.g.2.7.D.;..X.Xz 7 x z > ; 1 < 1 D G G G G G G G G G G G G G G G G G G G G G G ",
"G G G G G G G G G G G G G G G G G G G G D < R p.m ~ L.m.s.P.3X>X~ 3 Q ~ ; = 4 4 > D G G G G G G G G G G G G G G G G G G G G G G ",
"G G G G G G G G G G G G G G G G G G G G I < W a.R L.W.P.s.W.R.L.s.H p.p.z 4 z 4 > D G G G G G G G G G G G G G G G G G G G G G G ",
"G G G G G G G G G G G G G G G G G G G G G 1 W n.P.7X7X6X,X3XQ.E.E.m.n.n.p.E Q z > D G G G G G G G G G G G G G G G G G G G G G G ",
"G G G G G G G G G G G G G G G G G G G G G h T n.R.qXeXeXeX0X2XQ.Q.Q.E.m.n.~ W H h D G G G G G G G G G G G G G G G G G G G G G G ",
"G G G G G G G G G G G G G G G G G G G G G D k H j.<X:X=X%X{.J.B.K.B.g.f.j.X.w j D G G G G G G G G G G G G G G G G G G G G G G G ",
"G G G G G G G G G G G G G G G G G G G G G G w 1 2.#XC.} } Y J J K K N ] e.[ 6 e G G G G G G G G G G G G G G G G G G G G G G G G ",
"G G G G G G G G G G G G G G G G G G G G G G e 7 2. XZ.q.~.i.f 9 ,.,.O.<.z.[ : e G G G G G G G G G G G G G G G G G G G G G G G G ",
"G G G G G G G G G G G G G G G G G G G G G G q 8 :.M.{.XX1XwX0.L %X_.V.z.k.' < e G G G G G G G G G G G G G G G G G G G G G G G G ",
"G G G G G G G G G G G G G G G D D Z D D D D 3 8 :.2.h.j.^.rXr./ =Xr.%. .| ) < e G G G G G G G G G G G G G G G G G G G G G G G G ",
"G G G G G G G G G G G G G G G D e q q q q q - 2 :.O.} O.w.5X../ #X*.N i N ( < e D G G G G G G G G G G G G G G G G G G G G G G G ",
"G G G G G G G G G G G D c h h j r N [ %.] u * 7 =.' ) } q.*X .J ].%.p 8 t [ 1 q G G G G G G G G G G G G G G G G G G G G G G G G ",
"G G G G G G G G G G G D < i s r [ b.OX-X[.4.s w ] %.| { 5.#X} v H. .p w v ' t c G G G G G G G G G G G G G G G G G G G G G G G G ",
"G G G G G G G G G G G D 1 *.8.' t.1XtXrX<XH.+.u r :.:.+.h.*X8.' U.%.J N K 8 x n D D D G G G G G G G G G G G G G G G G G G G G G ",
"G G G G G G G G G G G G c [ ,.z.J.qXyXyX4X}.=.r 1 v &.z.S.&X`.Z.G.:.{ K 8 o 1 e 4 w D D G G G G G G G G G G G G G G G G G G G G ",
"G G G G G G G G G G G G G Z S &.G.4XwX9X#Xz.` 7 6 - N | O.,.8.*.{ J p r - 2 v U Y 1 q e c D G G G G G G G G G G G G G G G G G G ",
"G G G G G G G G G G G G G D c 0 q.|.-X#XS.| r 5 5 6 < - * * * & & $ o - y T d.G.S.y 4 1 7 n D G G G G G G G G G G G G G G G G G ",
"G G G G G G G G G G G G G G j : [ t.Z.t.O.s 7 < 5 q 7 5 * 7 > : 6 - # % b +.T.>X}.X.A y 3 e A D G G G G G G G G G G G G G G G G ",
"G G G G G G G G G G G G G G k : ( %.| U i > - 1 7 d V s r &.C w Y w # X 1 y S.}.I.x.;.o.{ Y i Z G G G G G G G G G G G G G G G G ",
"G G G G G G G G G G G G G c | i.b.e.2.X.> o 7 N M ) ) V i (.+.B 6.v # 6 | Y +.<.x..Xx.f.M.G.i j G G G G G G G G G G G G G G G G ",
"G G G G G G G G G G G G G q } oX!.t.6.+.* . N | C ) ) V s XX,.T M.i 9 } A.6.` U 3.+XB.M.I.F.B c G G G G G G G G G G G G G G G G ",
"G G G G G G G G G G G G G 0 a ..[ L J y o . N { B ( ^ V M &X9.` F.w 8.~.,.] 5.{ v Y.T.N.f.Y S D D G G G G G G G G G G G G G G G ",
"G G G G G G G G G G G G G 0 _ /.y.2.@.T o X < K <.C M M V 1Xt.| {.w /.=X[ L ^.:.- ;.x.N.j.T y n G G G G G G G G G G G G G G G G ",
"G G G G G G G G G G G G G c $.).b.6.j.7.% @ @ x I.w.8.q.~.rXb.$.&X .u.'./.u.u.Y - I ! d.x.S.i j D G G G G G G G G G G G G G G G ",
"G G G G G G G G G G G G G D B s C N O.5.% @ . w l.[.[.OX:X8Xq.` [.j.' >.%X/.L * 1 v H K X.D.C x G G G G G G G G G G G G G G G G ",
"G G G G G G G G G G G G G G j & M t [ 4.$ @ X $ M 6.v.l.4.8.^ M | T J / } L * O $ < < > 1 J S D G G G G G G G G G G G G G G G G ",
"G G G G G G G G G G G G G G j * ( V %.,.$ @ @ X o w <.4.t M V M s w U P $ @ +   # - ; % X $ Z G G G G G G G G G G G G G G G G G ",
"G G G G G G G G G G G G G Z ` 0.t.9.w.4.% X o . . o 2.H.{ C / ( V B :.O.- # + # - a u 1 . $ Z G G G G G G G G G G G G G G G G G ",
"G G G G G G G G G G G G G q ..$X^.z.e.| % % $ . .   *.[.S.B V L i %.f.%.< # . * r ( L 8   $ Z G G G G G G G G G G G G G G G G G ",
"G G G G G G G G G G G G G 3 a *.} ' d 8 $ * : & X   9 5.XXK d N y j.@.t < # O < V / s 6 . # Z G G G G G G G G G G G G G G G G G ",
"G G G G G G G G G G G G G 0 r @.+.] r # & : : : % @   [ 4X[ i i x S.I $ * @ # * 8 8 w : . $ Z G G G G G G G G G G G G G G G G G ",
"G G G G G G G G G G G G G 0 ' ].D.4.i # : : * * $ @   ..tX).9.,.6.U.P # < s J I v $ 6 > . $ Z G G G G G G G G G G G G G G G G G ",
"G G G G G G G G G G G G G 1  .1X_.&.t # 5 5 $ : f a $ _ 8X;X'.!.Z.z.N   * | h.S.e.* > - # $ n G G G G G G G G G G G G G G G G G ",
"G G G G G G G G G G G G G 1 8.8XOXV.K # : * $ d oX!./ 9 } ..[ ( ( M 1 X % P h.XX_.< o % - $ Z G G G G G G G G G G G G G G G G G ",
"G G G G G G G G G G G G G 8 f u.,.| s * : 5 $ s ).~.t.{ % ] y > w # w w < @.D.4X:X< X o < o Z G G G G G G G G G G G G G G G G G ",
"G G G G G G G G G G G G G x 1 5 2 - * 5 5 6 & 5 L } A.l.< j.X.t ( % J K - %.t.`.~.* @ < 4 $ n G G G G G G G G G G G G G G G G G ",
"G G G G G G G G G G G G G D h % b < $ 5 : 6 * * * V h.6.< 7.@.` O.1 J C # 2 w a a $ @ 2 z & n G G G G G G G G G G G G G G G G G ",
"G G G G G G G G G G G G G G k : X.1 $ : 5 : 5 * o 8 O.{ $ y r.b.| Y p 6 # X $ * * * # 0 b % Z G G G G G G G G G G G G G G G G G ",
"G G G G G G G G G G G G G G j > #.w $ 5 5 5 5 * X % w r . . !.=X| h.N % 8 - & * 6 - # y T - n G G G G G G G G G G G G G G G G G ",
"G G G G G G G G G G G G G G k < #.0 $ > 5 5 : : < v } _ + . '.8X+.D.K % 9 6 # $ 5 : # v X.- Z G G G G G G G G G G G G G G G G G ",
"G G G G G G G G G G G G G D k 1 1.r $ 5 > 5 & - C 6.OX`.9 9 `.;X:.V.J o % $ o * < : o N @.- n G G G G G G G G G G G G G G G G G ",
"G G G G G G G G G G G G G G k 2 j.i $ 5 5 5 $ 6 [ 6.&X&X6.).i.r.A.{ w - - X $ - < : # N +.- n G G G G G G G G G G G G G G G G G ",
"G G G G G G G G G G G G G G k w F.M $ : : : * * r N  .5.&.C./ r >.K z w ; . - : 5 : # K 6.- Z G G G G G G G G G G G G G G G G G ",
"G G G G G G G G G G G G G G h 8 F.N $ 6 : 5 5 * $ s ( [ ) s w 6 6 { I y - $ * 5 5 6 o { z.> n G G G G G G G G G G G G G G G G G ",
"G G G G G G G G G G G G G G k 2 S.s $ : 5 : < * % 2.H.{.H.T T b %  .P 1 $ * : : 5 - o ] z.< n G G G G G G G G G G G G G G G G G ",
"G G G G G G G G G G G G G G k 1 d.t $ : : : : % > z.>X<X.X2.o.b 2 '.0.9 # 5 : : 5 5 # ] z.> n G G G G G G G G G G G G G G G G G ",
"G G G G G G G G G G G G G G z < ;.w # & & * * $ $ ] h.V.l.X.b v { OXc.B # & * * 5 5 # ] z.< n G G G G G G G G G G G G G G G G G ",
"G G G G G G G G G G G G G G k > X.2 = 3 3 3 3 , 1 > M ] O.M 1 w 2.4.O.M = > 3 5 * * o Y f.> n G G G G G G G G G G G G G G G G G ",
"G G G G G G G G G G G G G G h % B 1 3 n n n n n n - V 4.q.) 6 : U B B t 3 Z Z k : - # v @.> n G G G G G G G G G G G G G G G G G ",
"G G G G G G G G G G G G G G k % 1 = q G G G G G D > *.@X*X>.7 > Z Z Z Z c G G D k k > e I - Z G G G G G G G G G G G G G G G G G ",
"G G G G G G G G G G G G G G n 4 q q n G G G G G D > r.4X4Xq.r 7 G G D G G G G G G D 7 > 7 & Z G G G G G G G G G G G G G G G G G ",
"G G G G G G G G G G G G G G G G D D G G G G G G G > %._.v.@.r 5 G G G G G G G G G G h > 3 3 D G G G G G G G G G G G G G G G G G ",
"G G G G G G G G G G G G G G G G G G G G G G G G G > M ` U B > 0 D G G G G G G G G G D n n n G G G G G G G G G G G G G G G G G G "
};
