/* XPM */
static char *result[] = {
/* columns rows colors chars-per-pixel */
"64 64 213 2 ",
"   c #0E0B0A",
".  c #120D0A",
"X  c #15120E",
"o  c #161312",
"O  c #1B1614",
"+  c #1D1916",
"@  c #1D1A19",
"#  c #20180F",
"$  c #2B1714",
"%  c #231B15",
"&  c #231D1C",
"*  c #2A1E1C",
"=  c #361C18",
"-  c #25211C",
";  c #29241B",
":  c #2B221D",
">  c #33251D",
",  c #382419",
"<  c #332A1E",
"1  c #3F311F",
"2  c #262321",
"3  c #2C2522",
"4  c #2D2925",
"5  c #2D2B2A",
"6  c #342522",
"7  c #3A2721",
"8  c #332B24",
"9  c #3B2B25",
"0  c #332D2A",
"q  c #3C2E2A",
"w  c #3A3126",
"e  c #36312C",
"r  c #3C332C",
"t  c #3F3B2B",
"y  c #363231",
"u  c #3C3432",
"i  c #3D3934",
"p  c #3C3B39",
"a  c #4A1F1A",
"s  c #46311C",
"d  c #422C26",
"f  c #492B26",
"g  c #462F29",
"h  c #4B3821",
"j  c #43342D",
"k  c #4C312B",
"l  c #453B2D",
"z  c #4A3B2D",
"x  c #52352E",
"c  c #523C29",
"v  c #423732",
"b  c #4C3631",
"n  c #443B34",
"m  c #493D34",
"M  c #433C39",
"N  c #493E3A",
"B  c #543630",
"V  c #563933",
"C  c #5C3932",
"Z  c #513E39",
"A  c #69302B",
"S  c #613B33",
"D  c #5A4629",
"F  c #4C4135",
"G  c #46413C",
"H  c #4B433D",
"J  c #4F483D",
"K  c #524536",
"L  c #564834",
"P  c #53453B",
"I  c #53493D",
"U  c #5B4C3D",
"Y  c #624B29",
"T  c #6D4D2E",
"R  c #6A4F35",
"E  c #63523F",
"W  c #785A33",
"Q  c #4C4541",
"!  c #4D4943",
"~  c #4D4749",
"^  c #4D4B49",
"/  c #514741",
"(  c #544B42",
")  c #5A4E43",
"_  c #524E4A",
"`  c #575146",
"'  c #5B5244",
"]  c #56514A",
"[  c #5C534B",
"{  c #5F594D",
"}  c #5A5755",
"|  c #5D5A53",
" . c #645543",
".. c #6C5B47",
"X. c #63564A",
"o. c #645A4C",
"O. c #6B5C4D",
"+. c #635C53",
"@. c #6B5F51",
"#. c #6D634A",
"$. c #79654E",
"%. c #6C6254",
"&. c #65615D",
"*. c #6B645C",
"=. c #726454",
"-. c #796754",
";. c #776957",
":. c #7D6C53",
">. c #73665A",
",. c #75695B",
"<. c #7C6C5A",
"1. c #646262",
"2. c #6A6562",
"3. c #6D6861",
"4. c #6F6D6C",
"5. c #736D64",
"6. c #786E64",
"7. c #726D6B",
"8. c #7C7265",
"9. c #74716C",
"0. c #7C736A",
"q. c #7C7868",
"w. c #787673",
"e. c #7C7A74",
"r. c #866938",
"t. c #99763D",
"y. c #896C44",
"u. c #9D7845",
"i. c #826F5F",
"p. c #85735D",
"a. c #8A7A5F",
"s. c #9A7D51",
"d. c #847463",
"f. c #857766",
"g. c #8C7B64",
"h. c #83796B",
"j. c #8B7D6B",
"k. c #917C67",
"l. c #827A75",
"z. c #847E74",
"x. c #9A835A",
"c. c #AC8445",
"v. c #A98653",
"b. c #B08F51",
"n. c #AD905D",
"m. c #B5955C",
"M. c #8B816F",
"N. c #93836D",
"B. c #9A846C",
"V. c #99886B",
"C. c #8C8375",
"Z. c #85827D",
"A. c #8C857B",
"S. c #938473",
"D. c #988A76",
"F. c #9E917E",
"G. c #B39867",
"H. c #A18D77",
"J. c #AA947C",
"K. c #BFA266",
"L. c #C9A669",
"P. c #D4B57A",
"I. c #8D8786",
"U. c #8D8A84",
"Y. c #958E84",
"T. c #948D87",
"R. c #9B9283",
"E. c #98938A",
"W. c #9A958B",
"Q. c #969492",
"!. c #9C9993",
"~. c #9E9C9C",
"^. c #A49583",
"/. c #A69886",
"(. c #A49A8B",
"). c #AB9C8A",
"_. c #A39E94",
"`. c #A89E90",
"'. c #A29E9A",
"]. c #B3A28E",
"[. c #ACA192",
"{. c #A7A19F",
"}. c #AAA59F",
"|. c #B7A893",
" X c #BAB09F",
".X c #ABA5A2",
"XX c #AAA7A3",
"oX c #B4ADA2",
"OX c #B4AFA9",
"+X c #B9B4A7",
"@X c #BAB6AD",
"#X c #B6B4B3",
"$X c #BBBAB7",
"%X c #C1AF8D",
"&X c #D3B784",
"*X c #C6B39E",
"=X c #C6BAA8",
"-X c #D0BCA5",
";X c #C2BEB3",
":X c #DAC08D",
">X c #D9C397",
",X c #D8C8AA",
"<X c #C7C1B6",
"1X c #D1CCBD",
"2X c #E4D1AF",
"3X c #C1C2C0",
"4X c #D2CDC7",
"5X c #D5D1CB",
"6X c #DED8CF",
"7X c #DAD8D5",
"8X c #F0E3C0",
"9X c #E6E3DD",
"0X c #F5F4F1",
/* pixels */
"S S S S S S S S S S S S S S S S S S S S S S S S S S S S C k g x S S S S S S S S S S S S S S S S S S S S S S S S S S S S S S S S ",
"S S S S S S S S S S S S S S S S S S S S S S S S S S S C 6     O k S S S S S S S S S S S S S S S S S S S S S S S S S S S S S S S ",
"S S S S S S S S S S S S S S S S S S S S S S S S S S S C 9 O $ & k S S S S S S S S S S S S S S S S S S S S S S S S S S S S S S S ",
"S S S S S S S S S S S S S S S S S S S S S S S S S S S C 7 $ a $ k S S S S S S S S S S S S S S S S S S S S S S S S S S S S S S S ",
"S S S S S S S S S S S S S S S S S S S S S S S S S S S C 7 = A = k S S S S S S S S S S S S S S S S S S S S S S S S S S S S S S S ",
"S S S S S S S S S S S S S S S S S S S S S S S S S C S B d f A = k C C S S S S S S S S S S S S S S S S S S S S S S S S S S S S S ",
"S S S S S S S S S S S S S S S S S S S S S S S S S C g 9 $ a A * 3 d k C S S S S S S S S S S S S S S S S S S S S S S S S S S S S ",
"S S S S S S S S S S S S S S S S S S S S S S S S V K _ n : $ = O @ & 6 x C S S S S S S S S S S S S S S S S S S S S S S S S S S S ",
"S S S S S S S S S S S S S S S S S S S S S S S V F &.@X[.{ * X ; u M 4 6 x C S S S S S S S S S S S S S S S S S S S S S S S S S S ",
"S S S S S S S S S S S S S S S S S S S S C C V b 5.OX7X6X(.U 8 H / G u 3 6 k C C S S S S S S S S S S S S S S S S S S S S S S S S ",
"S S S S S S S S S S S S S S S S S S S S x 9 h  .N.(.A.@XC.#.$.m u w 6 3 : 6 9 f C S S S S S S S S S S S S S S S S S S S S S S S ",
"S S S S S S S S S S S S S S S S S S S S g - D $.p.:.#.M.p.V.%XL > 9 h * % ; % * x S S S S S S S S S S S S S S S S S S S S S S S ",
"S S S S S S S S S S S S S S S S S S S C g 1 t.Y D s.K.y.m.>X,Xy.h Y r., X , < * k S S S S S S S S S S S S S S S S S S S S S S S ",
"S S S S S S S S S S S S S S S S S S S S g < t.W x.P.L.v.m.L.n.u.W W r.D s s s > k S S S S S S S S S S S S S S S S S S S S S S S ",
"S S S S S S S S S S S S S S S S S S S S h 1 t.m.>X8X2X,X,X:XK.K.G.b.c.t.W T c < B S S S S S S S S S S S S S S S S S S S S S S S ",
"S S S S S S S S S S S S S S S S S S S S x z $.G.,X9X9X9X7X,X&XP.P.L.n.v.r.R c k C C S S S S S S S S S S S S S S S S S S S S S S ",
"S S S S S S S S S S S S S S S S S S S S S B > o.`.@X!.W.A.M.M.x.a.<.;.8.} q 9 C S S S S S S S S S S S S S S S S S S S S S S S S ",
"S S S S S S S S S S S S S S S S S S S S S B * [ R.W.] ^ ! l e p F n ( 5.] 0 , C S S S S S S S S S S S S S S S S S S S S S S S S ",
"S S S S S S S S S S S S S S S S S S S S S x - ' S.R.e.E.Q.2.5 3.9.,.<.f.[ 0 7 C S S S S S S S S S S S S S S S S S S S S S S S S ",
"S S S S S S S S S S S S S S S S S S S S S V & ' a.D.[.;X7X~.G _.[.C.h.,.` 0 7 C S S S S S S S S S S S S S S S S S S S S S S S S ",
"S S S S S S S S S S S S S S S C B k x x x g * ` =.#.*.h.+XQ.G !.w._ H / G 0 < C S S S S S S S S S S S S S S S S S S S S S S S S ",
"S S S S S S S S S S S C C V C g 8 e r r 8 * @ U +._ ' ,.!.Z.M Y.5.p q r M e 7 C S S S S S S S S S S S S S S S S S S S S S S S S ",
"S S S S S S S S S S S B 7 q 9 r Q | e.,.` e @ ( { ^ ` ,.R.e.i N.>.i 6 r H j 9 S S S S S S S S S S S S S S S S S S S S S S S S S ",
"S S S S S S S S S S S 9 5 } y _ Z.$X5X=XD.o.e i X.%.] ,.W.e.r a.%.n q N n k x S S S S S S S S S S S S S S S S S S S S S S S S S ",
"S S S S S S S S S S S k P e.*.8.+X0X0X4X|.g.N 3 P ;.%.h.`.T.o.N.,.P m l : 9 k k x V S S S S S S S S S S S S S S S S S S S S S S ",
"S S S S S S S S S S S C Z Q <.B.=X0X0X4X].i.u 3 6 H d.g.R.W.A.j.@.) n ; % : 9 9 9 f B S S S S S S S S S S S S S S S S S S S S S ",
"S S S S S S S S S S S S C B F <.[.5X4X XS.[ 3 2 & 3 n m N ~ Q n 0 6 3 ; w K o.{ r > , g C S S S S S S S S S S S S S S S S S S S ",
"S S S S S S S S S S S S S S & H z._._.j.X.y : * 2 & + o o o O o O o + j E a.).F.U 9 : > g B S S S S S S S S S S S S S S S S S S ",
"S S S S S S S S S S S S S C & y +.6.*.( u 2 - 2 0 0 3 3 r r 2 0 3 O O q U N.%X/.i.R Z j j b C S S S S S S S S S S S S S S S S S ",
"S S S S S S S S S S S S C C 6 Q &.+.( r & % 6 0 i Q M r O.@.r U v % o 5 M %.S.B.B.p.$.-.O.m g C S S S S S S S S S S S S S S S S ",
"S S S S S S S S S S S S V q b 0.A.d.-.0 + 3 Q N Q / Q v h.z.F i.Z & y 3.>.) ) g.).H.k.H.j./ g S S S S S S S S S S S S S S S S S ",
"S S S S S S S S S S S S B & q [ @.' U - O q o.H N ~ Q M z.Z.I d.P M 5.l.,.X.I X.J.J.k.k.>./ V S S S S S S S S S S S S S S S S S ",
"S S S S S S S S S S S S B 6 & ~ &.( H n 8 3 I ) Q M v v I.T.( j._ 1.'.+.! ,.>.j ;.V.B.<.I B C S S S S S S S S S S S S S S S S S ",
"S S S S S S S S S S S S S V 6 e.'.A.d.f.I + r <.=.Q ~ +..X{.[ T.*.7.XX7.&.e.*.8 L $.g.g.=.n g S S S S S S S S S S S S S S S S S ",
"S S S S S S S S S S S S S S B [ } +.) d.( o 8 f.H.T.W.OX5X{.[ (.C.*.w.XX!.2.y 3 F L  .i.j./ g S S S S S S S S S S S S S S S S S ",
"S S S S S S S S S S S S S S S 7 2 i w %.Q o 2 ) f.Y.T.T.I.2.M *.@./ ! 7.&.r X + : 6 7 v ) P V S S S S S S S S S S S S S S S S S ",
"S S S S S S S S S S S S S S S 8 2 G i *.I X & 3 N %.<.P M n i v j m G 4 & @ X X + & % % : x S S S S S S S S S S S S S S S S S S ",
"S S S S S S S S S S S S S S C N Q o.[ 6.H X & 2 3 ( j.) v G N M v I ` : @ @ O O : 5 3 & * k S S S S S S S S S S S S S S S S S S ",
"S S S S S S S S S S S S S S 9 l.}.Y.j.h.Q o & & - _ ).g.) M H v U ;.%.5 & 2 @ @ y M y * * k S S S S S S S S S S S S S S S S S S ",
"S S S S S S S S S S S S S C & } 7.| ( N 4 @ 2 2 & y 5.R.@.y N n #.=.F 2 & & & @ 2 3 * O * k S S S S S S S S S S S S S S S S S S ",
"S S S S S S S S S S S S S C d * 0 ! I n 8 @ & - & @ p ~.4.0 u l ;.o.% & - & @ - e n F w 3 k S S S S S S S S S S S S S S S S S S ",
"S S S S S S S S S S S S S S C > F S.g.=.i o @ @ @ @ p $XT.! Q ) p.X.O @ - + + 2 ' 8.S.*.d k S S S S S S S S S S S S S S S S S S ",
"S S S S S S S S S S S S S S S > ]  XC.[ 4 X O @ @ @ p 3X5XXXW.E.D.' O O @ o X + n 6.(.C.v k S S S S S S S S S S S S S S S S S S ",
"S S S S S S S S S S S S S S S 6 1.7X}.h.n   @ w.Z.] - 1.9.2.| } I 8 4 { *.p X - O.R.;X'.N k S S S S S S S S S S S S S S S S S S ",
"S S S S S S S S S S S S S S S 7 ! ~.Z.*.n X 2 U.!.e.Q 4 r M 2 4 - < U ,.6.N X - ' q.U.w.i k S S S S S S S S S S S S S S S S S S ",
"S S S S S S S S S S S S S S S < @ e ; - ; @ O Q | 0.C.r ' @.w i 4 F ,.m q 2 o O * - 4 2 * k S S S S S S S S S S S S S S S S S S ",
"S S S S S S S S S S S S S S S 8 - w o O @ & @ @ i *.C.r O.<.n ( 0 t  .8 @ O @ @ @ o O + * k S S S S S S S S S S S S S S S S S S ",
"S S S S S S S S S S S S S S C < ; F o @ 2 - & o 2 ) #.w 5.C.J ' e t ' 8 O O - & @ O & 6 : k S S S S S S S S S S S S S S S S S S ",
"S S S S S S S S S S S S S S S 6 < L + @ * & & o O 6 t 5 Z.{.{ %.r 2 u - o + & & & + ; 1 > k S S S S S S S S S S S S S S S S S S ",
"S S S S S S S S S S S S S S S 6 r  .+ @ & & @ @ & 0 y 5 Q.#X%.p.F 2 y : % @ & 2 & + < l > k S S S S S S S S S S S S S S S S S S ",
"S S S S S S S S S S S S S S S 6 r ..O % 2 & O u %.R..X~ Q.#X*.a.J 2. Xh.Q 3 O & % @ r K < k S S S S S S S S S S S S S S S S S S ",
"S S S S S S S S S S S S S S S 6 m i.@ @ & @ O M *.(.=Xe.2.e.M.[ %.W.@Xj._ 5 O & % @ j K 9 k S S S S S S S S S S S S S S S S S S ",
"S S S S S S S S S S S S S S S 7 P j.& @ & & + 0 M { q.%.r p &.4 J 5.5.I r 2 @ & @ & m X.9 k S S S S S S S S S S S S S S S S S S ",
"S S S S S S S S S S S S S S S 6 I S.& @ & & & 2 8 e r ; % @ @ 2 0 r 5 ; % % & & & @ ( =.j k S S S S S S S S S S S S S S S S S S ",
"S S S S S S S S S S S S S S S 6 [ ).- @ 2 @ % ;.^.`.F. .U F 5 f./.J.p...F ; + & & @ ( -.j k S S S S S S S S S S S S S S S S S S ",
"S S S S S S S S S S S S S S S 6 [ [.- @ & @ ; j.*X,X).<.E l t ).-X].p...E r O - @ % ( >.j k S S S S S S S S S S S S S S S S S S ",
"S S S S S S S S S S S S S S S 6 ] /.* + - @ * [ h.D.f.[ z 3 0 8.A.f. .m F 8 + - @ & ( ,.j f S S S S S S S S S S S S S S S S S S ",
"S S S S S S S S S S S S S S S 6 F j.& O @ & + + 6 n J e @ O @ @ 9 N H 3 O O & @ @ + I =.j k S S S S S S S S S S S S S S S S S S ",
"S S S S S S S S S S S S S S S 6 r =.% . O o o o i @.+.Q 2 o o @ H @.+.M @ o o O O O l U 9 k S S S S S S S S S S S S S S S S S S ",
"S S S S S S S S S S S S S S S 7 6 P % d x k k : |  XOX} 3 * 8 5 9.OX'._ 2 7 k b f > 9 n 6 k S S S S S S S S S S S S S S S S S S ",
"S S S S S S S S S S S S S S S 7 % 8 # x S S C 8 4.1X<X*.8 3 g r A.4XoXo.6 g S S C , * : * k S S S S S S S S S S S S S S S S S S ",
"S S S S S S S S S S S S S S S d % % * V S C C 6 &.[.S.O.0 6 q 0 8.).j.' 8 d S S C d % % > x S S S S S S S S S S S S S S S S S S ",
"S S S S S S S S S S S S S S S S C S C S S S C 6 5 n l q 2 6 j 2 e n n 8 : f S S S S C S S S S S S S S S S S S S S S S S S S S S ",
"S S S S S S S S S S S S S S S S S S S S S S S B B B C b j j b k B B B B x B S S S S S S S S S S S S S S S S S S S S S S S S S S "
};
