/* XPM */
static char *_d0b4ecc17b543389daf76d083881b5dJfuD8Q60iS1bFyJ3[] = {
/* columns rows colors chars-per-pixel */
"64 64 52 1 ",
"  c #613B33",
". c #5E3A33",
"X c #4D3631",
"o c #4A3531",
"O c #533731",
"+ c #4B3531",
"@ c #4E3631",
"# c #563832",
"$ c #5F3B33",
"% c #4A3530",
"& c #5F3A33",
"* c #4E3731",
"= c #5C3A33",
"- c #603B33",
"; c #4B3631",
": c #4F3731",
"> c #5B3A32",
", c #5A3932",
"< c #5C3A32",
"1 c #573932",
"2 c #613B32",
"3 c #603B32",
"4 c #5F3B34",
"5 c #513731",
"6 c #593932",
"7 c #613A33",
"8 c #5D3A33",
"9 c #503631",
"0 c #4F3631",
"q c #5E3A32",
"w c #4B3530",
"e c #503731",
"r c #533832",
"t c #553832",
"y c #593931",
"u c #4C3531",
"i c #513732",
"p c #4B3630",
"a c #513630",
"s c #533730",
"d c #583932",
"f c #543832",
"g c #5E3B32",
"h c #523731",
"j c #5A3A32",
"k c #4D3531",
"l c #523832",
"z c #593A33",
"x c #5F3B32",
"c c #5D3A32",
"v c #563831",
"b c white",
/* pixels */
"                            .XoO                                ",
"                            .XoO                                ",
"                            .XoO                                ",
"                            .XoO                                ",
"                            .XoO                                ",
"                            .XoO                                ",
"                            .XoO                                ",
"                            .XoO                                ",
"                            .X+@#$                              ",
"                            .X+%@&                              ",
"                            .X++*=-                             ",
"                            .X++;:>                             ",
"                            .X++++, -  <1-                      ",
"                            .X++++,23=4,5$                      ",
"                            .X++++6789,-$                       ",
"                            .X+++;05O6q                         ",
"                            .X+++wert$                          ",
"                            .X+++wy                             ",
"                            .X++++,                             ",
"                            .X++++,                             ",
"                            .X++ui<                             ",
"                            .X+o@.                              ",
"                            .X+o0&                              ",
"                            .X+o0&                              ",
"                            .X+o0&                              ",
"                            .X+o0&                              ",
"                            .X+o0&                              ",
"                            .X+o0&                              ",
"                            .X+o0&                              ",
"                            .X+o0&                              ",
"                            .X+o0&                              ",
"                            .X+o0&                              ",
"                            .X+o0&                              ",
"                            .X+o0&                              ",
"                            .X+o0&                              ",
"                            .X+o@&                              ",
"                            .X+p0.                              ",
"                            .Xoa=-                              ",
"                            .Xos                                ",
"                            .XoO                                ",
"                            .XoO                                ",
"                            .XoO                                ",
"                            .XoO                                ",
"                            .XoO                                ",
"                            .XoO                                ",
"                            .XoO                                ",
"                            .XoO                                ",
"                            .XoO                                ",
"                            .XoO                                ",
"                           8#uoO                                ",
"                           d++oO                                ",
"                           du+oO                                ",
"                           d++oO                                ",
"                         2<f++oO                                ",
"                        -ghuX+oO                                ",
"                        .5uhjkoO                                ",
"                        8Xl>qXoO                                ",
"                        q@,$zXoO                                ",
"                        8@,6X+oO                                ",
"                        -=x&6koO                                ",
"                           cvuoO                                ",
"                           d++oO                                ",
"                           du+oO                                ",
"                           d++oO                                "
};
