/* XPM */
static char *a827213e91e4462881267dc979755857yayC8o3YfsxyJdmk[] = {
/* columns rows colors chars-per-pixel */
"64 64 139 2 ",
"   c #0D0605",
".  c #070B04",
"X  c #0D0905",
"o  c #0C070D",
"O  c #0E0B0B",
"+  c #140605",
"@  c #1B0706",
"#  c #150906",
"$  c #1B0A06",
"%  c #170708",
"&  c #140B0B",
"*  c #1B0C0B",
"=  c #0E110C",
"-  c #14110E",
";  c #1C110E",
":  c #130E12",
">  c #190F11",
",  c #131213",
"<  c #1B1314",
"1  c #171916",
"2  c #1D1916",
"3  c #191718",
"4  c #1C1B1B",
"5  c #220906",
"6  c #210B0A",
"7  c #20110F",
"8  c #2D130F",
"9  c #32140F",
"0  c #251514",
"q  c #2B1413",
"w  c #241915",
"e  c #2C1A16",
"r  c #22171A",
"t  c #2E1619",
"y  c #231B1A",
"u  c #2C1C1B",
"i  c #331412",
"p  c #311917",
"a  c #3C1A16",
"s  c #331719",
"d  c #381719",
"f  c #341C1C",
"g  c #3A1C1B",
"h  c #1F211F",
"j  c #22211F",
"k  c #2B221F",
"l  c #35211F",
"z  c #39211E",
"x  c #221E20",
"c  c #341F20",
"v  c #3D1D21",
"b  c #1E2121",
"n  c #242424",
"m  c #2B2323",
"M  c #242827",
"N  c #252729",
"B  c #252928",
"V  c #342222",
"C  c #3B2322",
"Z  c #3E2925",
"A  c #3B2929",
"S  c #421A16",
"D  c #4C1D17",
"F  c #421C1B",
"G  c #4D1D1B",
"H  c #43211E",
"J  c #4A211D",
"K  c #441E22",
"L  c #4C1F20",
"P  c #452322",
"I  c #4C2423",
"U  c #432B26",
"Y  c #4B2A26",
"T  c #442629",
"R  c #4C262A",
"E  c #452B2A",
"W  c #4C2A2A",
"Q  c #542524",
"!  c #5B2524",
"~  c #542826",
"^  c #5B2926",
"/  c #54262A",
"(  c #5B2629",
")  c #532B2A",
"_  c #5C2B2B",
"`  c #45302D",
"'  c #4D322C",
"]  c #52332E",
"[  c #5B352F",
"{  c #4E2931",
"}  c #542E30",
"|  c #5D2E34",
" . c #4B3531",
".. c #543631",
"X. c #5A3531",
"o. c #563832",
"O. c #5C3933",
"+. c #622724",
"@. c #632925",
"#. c #622A27",
"$. c #692925",
"%. c #6C2A27",
"&. c #672729",
"*. c #692729",
"=. c #6A272B",
"-. c #652A29",
";. c #622C29",
":. c #642C2B",
">. c #652C2B",
",. c #692B29",
"<. c #6E2B29",
"1. c #6F2F2B",
"2. c #68292C",
"3. c #6B2D2C",
"4. c #6A2E2D",
"5. c #6F2E2D",
"6. c #732A2B",
"7. c #712D2B",
"8. c #772E2B",
"9. c #702C2C",
"0. c #702D2C",
"q. c #742D2D",
"w. c #762C2C",
"e. c #7B2D2B",
"r. c #792B2F",
"t. c #792D2C",
"y. c #63312E",
"u. c #6D312E",
"i. c #71302C",
"p. c #73302D",
"a. c #72312D",
"s. c #642E31",
"d. c #6D2E32",
"f. c #742D30",
"g. c #742E31",
"h. c #643232",
"j. c #6B3131",
"k. c #613B33",
"l. c #623C34",
/* pixels */
"k.k.k.k.k.k.k.k.k.k.k.k.k.k.k.k.k.k.k.k.k.k.k.k.k.k.k.k.O. . ...k.k.k.k.k.k.k.k.k.k.k.k.k.k.k.k.k.k.k.k.k.k.k.k.k.k.k.k.k.k.k.k.",
"k.k.k.k.k.k.k.k.k.k.k.k.k.k.k.k.k.k.k.k.k.k.k.k.k.k.k.k.O. . ...k.k.k.k.k.k.k.k.k.k.k.k.k.k.k.k.k.k.k.k.k.k.k.k.k.k.k.k.k.k.k.k.",
"k.k.k.k.k.k.k.k.k.k.k.k.k.k.k.k.k.k.k.k.k.k.k.k.k.k.k.k.O. . ...k.k.k.k.k.k.k.k.k.k.k.k.k.k.k.k.k.k.k.k.k.k.k.k.k.k.k.k.k.k.k.k.",
"k.k.k.k.k.k.k.k.k.k.k.k.k.k.k.k.k.k.k.k.k.k.k.k.k.O.' ' ' ` E ` ' ' ] ] ] O.k.k.k.k.k.k.k.k.k.k.k.k.k.k.k.k.k.k.k.k.k.k.k.k.k.k.",
"k.k.k.k.k.k.k.k.k.k.k.k.k.k.k.k.k.k.k.k.k.k.k.k.k.X.l l z l f l l g g g V X.k.k.k.k.k.k.k.k.k.k.k.k.k.k.k.k.k.k.k.k.k.k.k.k.k.k.",
"k.k.k.k.k.k.k.k.k.k.k.k.k.k.k.k.k.k.k.k.k.k.k.k.k.[ f g g g g g g d g g f X.k.k.k.k.k.k.k.k.k.k.k.k.k.k.k.k.k.k.k.k.k.k.k.k.k.k.",
"k.k.k.k.k.k.k.k.k.k.k.k.k.k.k.k.k.k.k.k.k.k.O.' ] ' P P P P P P P P P I P W ' ] O.k.k.k.k.k.k.k.k.k.k.k.k.k.k.k.k.k.k.k.k.k.k.k.",
"k.k.k.k.k.k.k.k.k.k.k.k.k.k.k.k.k.k.k.k.k.k.] l g H I / ~ ~ ~ ~ ~ / ~ ~ / H g f [ k.k.k.k.k.k.k.k.k.k.k.k.k.k.k.k.k.k.k.k.k.k.k.",
"k.k.k.k.k.k.k.k.k.k.k.k.k.k.k.k.k.k.k.k.k.k...f a J ~ ! ! ! ! ! ! ! ! ! ~ H a p [ k.k.k.k.k.k.k.k.k.k.k.k.k.k.k.k.k.k.k.k.k.k.k.",
"k.k.k.k.k.k.k.k.k.k.k.k.k.k.k.k.k.k.k.O.] ] ' P J Q ;.-.-.-.-.-.-.-.-.2.-.~ J P W ' ' O.k.k.k.k.k.k.k.k.k.k.k.k.k.k.k.k.k.k.k.k.",
"k.k.k.k.k.k.k.k.k.k.k.k.k.k.k.k.k.k.k.O.C f P Y Q @.1.7.0.0.0.0.0.0.0.f.0.-.Q Q H g l o.k.k.k.k.k.k.k.k.k.k.k.k.k.k.k.k.k.k.k.k.",
"k.k.k.k.k.k.k.k.k.k.k.k.k.k.k.k.k.l.k.O.g g I ~ ! $.7.w.t.8.w.w.w.w.w.t.w.,.! ! J g g O.l.l.k.k.k.k.k.k.k.k.k.k.k.k.k.k.k.k.k.k.",
"k.k.k.k.k.k.k.k.k.k.k.k.k.k.k.k.O...] ] I Q ! -.<.7.w.t.t.e.t.w.w.w.w.w.w.0.,.-.! I I ) ] ] O.k.k.k.k.k.k.k.k.k.k.k.k.k.k.k.k.k.",
"k.k.k.k.k.k.k.k.k.k.k.k.k.k.k.k.O.C f P ~ ! @.5.0.0.w.t.t.e.t.w.w.8.8.8.w.w.0.0.-.! ~ H g V O.k.k.k.k.k.k.k.k.k.k.k.k.k.k.k.k.k.",
"k.k.k.k.k.k.k.k.k.k.k.k.k.k.k.k.O.V d I ! +.$.a.0.7.<.7.w.t.w.0.a.7.7.7.6.0.w.5.-.@.^ J g l O.k.k.k.k.k.k.k.k.k.k.k.k.k.k.k.k.k.",
"k.k.k.k.k.k.k.k.k.k.k.k.k.k.k.k.O.C g / >.,.7.a.0.,.+.+.%.0.7.8.w.0.5.&.=.<.w.0.1.1.4.Q g f O.k.k.k.k.k.k.k.k.k.k.k.k.k.k.k.k.k.",
"k.k.k.k.k.k.k.k.k.k.k.k.k.k.k.k.O.C a Q 5.0.0.5.u.-.! ! +.u.a.a.f.f.=.! +.,.w.7.a.0.u.! F g O.k.k.k.k.k.k.k.k.k.k.k.k.k.k.k.k.k.",
"k.k.k.k.k.k.k.k.k.k.k.k.k.k.k.k.O.C a Q 4.0.7.4.4.@.! ! ^ ^ ^ _ _ _ ( ! +.-.1.4.1.0.u.! S g X.k.k.k.k.k.k.k.k.k.k.k.k.k.k.k.k.k.",
"k.k.k.k.k.k.k.k.k.k.k.k.k.k.k.k.O.C a Q 4.0.,.@.@.-.4.4.Q 9 8 q q i I ;.>.@.^ ^ $.7.u.! S g X.k.k.k.k.k.k.k.k.k.k.k.k.k.k.k.k.k.",
"k.k.k.k.k.k.k.k.k.k.k.k.k.k.k.k.O.C a ! 4.0.$.! ! -.j.j.I 6 * - - * P h.j.;.Q ! -.7.5.! S g X.k.k.k.k.k.k.k.k.k.k.k.k.k.k.k.k.k.",
"k.k.k.k.k.k.k.k.k.k.k.k.k.k.k.k.O.C a ! 4.7.,.+.@._ _ ) l * - , & * f ) / ^ _ +.,.0.0.! F g O.k.k.k.k.k.k.k.k.k.k.k.k.k.k.k.k.k.",
"k.k.k.k.k.k.k.k.k.k.k.k.k.k.k.k.O.C a Q 4.7.1.4.;.I i 0 < - , : : > < 0 q I s.5.0.w.0.! F g X.k.k.k.k.k.k.k.k.k.k.k.k.k.k.k.k.k.",
"k.k.k.k.k.k.k.k.k.k.k.k.k.k.k.k.O.C a ! 5.7.0.u.h.P * & & , , , : : : , * P h.d.w.7.5.! F g X.k.k.k.k.k.k.k.k.k.k.k.k.k.k.k.k.k.",
"k.k.k.k.k.k.k.k.k.k.k.k.k.k.k.k.O.C a Q 5.u.>._ } V ; - & , , , , , , , < c ) _ 2.u.u.! F g X.k.k.k.k.k.k.k.k.k.k.k.k.k.k.k.k.k.",
"k.k.k.k.k.k.k.k.k.k.k.k.k.k.k.k.O.C a Q 5.j.I i 0 r 4 3 3 3 3 3 3 3 3 4 3 < 0 i Q y.y.~ g g X.k.k.k.k.k.k.k.k.k.k.k.k.k.k.k.k.k.",
"k.k.k.k.k.k.k.k.k.k.k.k.k.k.k.k.O.C a Q 4.j.H 6 * 3 4 4 4 3 3 3 3 3 4 4 4 < - 6 F y.u.~ F g X.k.k.k.k.k.k.k.k.k.k.k.k.k.k.k.k.k.",
"k.k.k.k.k.k.k.k.k.k.k.k.k.k.k.k.O.C a Q u.j.H ; , 3 4 4 4 4 4 4 4 4 4 4 4 1 , 0 F y.u.! F g O.k.k.k.k.k.k.k.k.k.k.k.k.k.k.k.k.k.",
"k.k.k.k.k.k.k.k.k.k.k.k.k.k.k.k.O.C g Q 4.h.P w 2 4 4 4 n n n n n n x 4 4 3 4 0 P j.5.! F g O.k.k.k.k.k.k.k.k.k.k.k.k.k.k.k.k.k.",
"k.k.k.k.k.k.k.k.k.k.k.k.k.k.k.k.O.C a Q 4.j.P w 4 3 3 3 n n B n n n n 4 4 3 2 0 P j.j.! g f X.k.k.k.k.k.k.k.k.k.k.k.k.k.k.k.k.k.",
"k.k.k.k.k.k.k.k.k.k.k.k.k.k.k.k.O.e 8 J 4.h.P 0 4 4 b b n M B B n n n n x 4 y 0 P j.j.Q 8 q [ k.k.k.k.k.k.k.k.k.k.k.k.k.k.k.k.k.",
"k.k.k.k.k.k.k.k.k.k.k.k.k.k.k.k.X.< $ F 4.j.P 0 y x n n M n n M M n n n n x y q P h.h.H $ ; [ k.k.k.k.k.k.k.k.k.k.k.k.k.k.k.k.k.",
"k.k.k.k.k.k.k.k.k.k.k.k.k.k.k.k...* % g h.j.I 8 0 u m n B n n n M N N n m u e q I h.h.P * ; [ k.k.k.k.k.k.k.k.k.k.k.k.k.k.k.k.k.",
"k.k.k.k.k.k.k.k.k.k.k.k.k.k.k.k...* # d / _ Q H U V u j b n n n n n n j u V P P / _ _ g * > [ k.k.k.k.k.k.k.k.k.k.k.k.k.k.k.k.k.",
"k.k.k.k.k.k.k.k.k.k.k.k.k.k.k.k.X.* + f R ~ _ [ k.P q y 4 3 4 4 4 4 4 w 0 P X.y.^ ~ R d % > [ k.k.k.k.k.k.k.k.k.k.k.k.k.k.k.k.k.",
"k.k.k.k.k.k.k.k.k.k.k.k.k.k.k.k.X.< * p W ) _ h.h.I i q 0 w 0 0 0 0 0 0 q I y.y._ ~ P d * * [ k.k.k.k.k.k.k.k.k.k.k.k.k.k.k.k.k.",
"k.k.k.k.k.k.k.k.k.k.k.k.k.O.' E E V f p p d I >.>.! I P P P P P P P P P I ~ _ _ J g f p f f E E ' O.k.k.k.k.k.k.k.k.k.k.k.k.k.k.",
"k.k.k.k.k.k.k.k.k.k.k.k.k.O.w * e E T p $ $ g ( ( _ y.y.y.y.h.h.h.y.y.h.s._ ~ ) g 6 $ p E E e ; ; ] k.k.k.k.k.k.k.k.k.k.k.k.k.k.",
"k.k.k.k.k.k.k.k.k.k.k.k.k.O.0 6 d I ) d $ # d / / _ _ _ ;.y.h.h.h.y.4.s.;._ ) W f * # e W W e & & ] O.k.k.k.k.k.k.k.k.k.k.k.k.k.",
"k.k.k.k.k.k.k.k.k.k.O.] ..X.I L Q _ X.g % + t P K v g a g g g g g g g g g H P C q & % f } _ d * & Z ..] O.k.k.k.k.k.k.k.k.k.k.k.",
"k.k.k.k.k.k.k.k.k.k.O.z g I s.d.d.j.h.g % + q g g q 6 % * & & # # % % $ 5 q d f 0 & * g h.[ g * + 0 c V X.k.k.k.k.k.k.k.k.k.k.k.",
"k.k.k.k.k.k.k.k.k.k.O.g g I | s.5.f.4.F 5 @ i F F i 6 * & & O O   + # * 6 i g g q * 6 F 4.4.F * & w u V ..k.k.k.k.k.k.k.k.k.k.k.",
"k.k.k.k.k.k.k.k.k.k.O.g d v T I ! 5.5.I i q K / _ I g V u y 4 3 3 < w l z I _ _ P q 8 J 0.f.I e y u u V X.k.k.k.k.k.k.k.k.k.k.k.",
"k.k.k.k.k.k.k.k.k.k.O.f d f V l I j.j.~ g g I h.h._ ) W A m n j 4 y V Y Y _ y.d.~ a a Q f.d.R l m c f V X.k.k.k.k.k.k.k.k.k.k.k.",
"k.k.k.k.k.k.k.k.k.k.O.f f m m m Z ] ) I F F I ) ) ^ ! / T k n j y w C ) ^ ^ _ _ I S S I _ ) T m n u f V X.k.k.k.k.k.k.k.k.k.k.k.",
"k.k.k.k.k.k.k.k.k.k.O.f f u y y y 0 q g R R g q 9 J ;.s.I 0 4 j m m E X.y.J i i g I I g t 0 r 4 4 u f c X.k.k.k.k.k.k.k.k.k.k.k.",
"k.k.k.k.k.k.k.k.k.k.O.V u e w y < & * f W { s $ 5 F h.h.W w 3 y m V W h.h.F 5 5 d W W f & o < 4 4 w u f ..k.k.k.k.k.k.k.k.k.k.k.",
"k.k.k.k.k.k.k.k.k.k.O.U Z C 2 3 , X # f E ) g 8 8 F _ X.E y 4 n m m T | _ F 9 i F W W f & o , 1 2 V C U O.k.k.k.k.k.k.k.k.k.k.k.",
"k.k.k.k.k.k.k.k.k.k.k.O.O...< = X   # f W / / ) ) I F H l m n n x r f K G Q _ _ / ) E u & O O = - ' O.O.k.k.k.k.k.k.k.k.k.k.k.k.",
"k.k.k.k.k.k.k.k.k.k.k.k.k.o., O X X + p W _ ;.j.h.Q a a p m B n 4 4 e g S ! 4.4.;.) W u # + X . O ' k.k.k.k.k.k.k.k.k.k.k.k.k.k.",
"k.k.k.k.k.k.k.k.k.k.k.k.k.O.l u 0 & * d ) ^ -.d.j.! D F f k n h 4 y u H G +.1.5.-.~ W f 6 * e e u [ k.k.k.k.k.k.k.k.k.k.k.k.k.k.",
"k.k.k.k.k.k.k.k.k.k.k.k.k.k.O.X.] f t P W ~ -.d.f.0.$.;.P e 4 h n m P _ -.<.7.5.-.( ) P s p ] [ [ k.k.k.k.k.k.k.k.k.k.k.k.k.k.k.",
"k.k.k.k.k.k.k.k.k.k.k.k.k.k.k.k.O.V f P W ~ ;.d.f.r.w.j.I 0 4 4 m V W j.0.0.0.u.-.( / P f c O.k.k.k.k.k.k.k.k.k.k.k.k.k.k.k.k.k.",
"k.k.k.k.k.k.k.k.k.k.k.k.k.k.k.k.O.u t v P I ! 4.5.w.w.d.I e y n n V W j.0.7.4.4.! Q I g t u X.k.k.k.k.k.k.k.k.k.k.k.k.k.k.k.k.k.",
"k.k.k.k.k.k.k.k.k.k.k.k.k.k.k.k.X.< * q g F L ~ ^ -.u.y.W V n j 4 w I h.j.,.+.! Q F g 0 * 7 [ k.k.k.k.k.k.k.k.k.k.k.k.k.k.k.k.k.",
"k.k.k.k.k.k.k.k.k.k.k.k.k.k.k.k...< & 0 f g H Y ~ _ y.y.W V m b 3 0 P h.h._ ~ ) P f u w & ; [ k.k.k.k.k.k.k.k.k.k.k.k.k.k.k.k.k.",
"k.k.k.k.k.k.k.k.k.k.k.k.k.k.k.k.O.E U Z w 0 t f f g H P f 0 4 3 < < u P P F g z u 0 w Z E E O.k.k.k.k.k.k.k.k.k.k.k.k.k.k.k.k.k.",
"k.k.k.k.k.k.k.k.k.k.k.k.k.k.k.k.k.O.O.' < & & & * * * * * & O O O O & * * * * * * X & ' O.O.k.k.k.k.k.k.k.k.k.k.k.k.k.k.k.k.k.k.",
"k.k.k.k.k.k.k.k.k.k.k.k.k.k.k.k.k.k.k. ., O O O & & & & & O O O O O O O O O O O O X , ' k.k.k.k.k.k.k.k.k.k.k.k.k.k.k.k.k.k.k.k.",
"k.k.k.k.k.k.k.k.k.k.k.k.k.k.k.k.k.k.k.O.E U U U U C Z Z C C C C U U U U U U U U U U E O.k.k.k.k.k.k.k.k.k.k.k.k.k.k.k.k.k.k.k.k.",
"k.k.k.k.k.k.k.k.k.k.k.k.k.k.k.k.k.k.k.O.O.O.O.O.O.O.O.O.X. . ...O.O.O.O.O.O.O.O.O.O.O.k.k.k.k.k.k.k.k.k.k.k.k.k.k.k.k.k.k.k.k.k.",
"k.k.k.k.k.k.k.k.k.k.k.k.k.k.k.k.k.k.k.k.k.k.k.k.k.k.k.O.o. . ...k.k.k.k.k.k.k.k.k.k.k.k.k.k.k.k.k.k.k.k.k.k.k.k.k.k.k.k.k.k.k.k.",
"k.k.k.k.k.k.k.k.k.k.k.k.k.k.k.k.k.k.k.k.k.k.k.k.k.k.k.O. . . ...k.k.k.k.k.k.k.k.k.k.k.k.k.k.k.k.k.k.k.k.k.k.k.k.k.k.k.k.k.k.k.k.",
"k.k.k.k.k.k.k.k.k.k.k.k.k.k.k.k.k.k.k.k.k.k.k.k.k.k.k.O. . . ...k.k.k.k.k.k.k.k.k.k.k.k.k.k.k.k.k.k.k.k.k.k.k.k.k.k.k.k.k.k.k.k.",
"k.k.k.k.k.k.k.k.k.k.k.k.k.k.k.k.k.k.k.k.k.k.k.k.k.k.k.O. . . ...k.k.k.k.k.k.k.k.k.k.k.k.k.k.k.k.k.k.k.k.k.k.k.k.k.k.k.k.k.k.k.k."
};
