/* XPM */
static char *_15c06a8b6b64929a4f83944c6f922fdq1pAexyJmlWWEhPJ[] = {
/* columns rows colors chars-per-pixel */
"64 64 141 2 ",
"   c #0A0704",
".  c #0B0A04",
"X  c #0D0C0B",
"o  c #150705",
"O  c #140905",
"+  c #1A0A06",
"@  c #150709",
"#  c #130D0C",
"$  c #1C0C0B",
"%  c #0E110D",
"&  c #13110E",
"*  c #1B120E",
"=  c #0F0D10",
"-  c #130E13",
";  c #1B0E11",
":  c #0E1112",
">  c #141311",
",  c #1B1313",
"<  c #141915",
"1  c #1C1A16",
"2  c #1C171B",
"3  c #161A1E",
"4  c #1C1B1B",
"5  c #210A07",
"6  c #220E0C",
"7  c #2B0E0C",
"8  c #23120D",
"9  c #2B120E",
"0  c #31100F",
"q  c #210B10",
"w  c #241414",
"e  c #2B1413",
"r  c #231916",
"t  c #2B1916",
"y  c #21161A",
"u  c #2C1619",
"i  c #221C1B",
"p  c #2B1A1A",
"a  c #321614",
"s  c #3F1717",
"d  c #331A16",
"f  c #3B1917",
"g  c #371718",
"h  c #341B1A",
"j  c #3C1C1B",
"k  c #1E221D",
"l  c #24221E",
"z  c #2A241F",
"x  c #35211D",
"c  c #3B211E",
"v  c #1E1D22",
"b  c #221D22",
"n  c #2C1D22",
"m  c #241F29",
"M  c #321F21",
"N  c #3B1E22",
"B  c #1E2123",
"V  c #242424",
"C  c #2B2423",
"Z  c #262826",
"A  c #282823",
"S  c #232129",
"D  c #2A232A",
"F  c #262829",
"G  c #282829",
"H  c #352323",
"J  c #3B2423",
"K  c #352925",
"L  c #3D2A25",
"P  c #3D2D2A",
"I  c #3F302B",
"U  c #441A17",
"Y  c #431C1B",
"T  c #4A1E1D",
"R  c #44211E",
"E  c #4C211E",
"W  c #51211E",
"Q  c #58211E",
"!  c #4C1F21",
"~  c #432322",
"^  c #4B2423",
"/  c #432A26",
"(  c #4D2A25",
")  c #442629",
"_  c #4C2728",
"`  c #442B29",
"'  c #4C2C2A",
"]  c #542625",
"[  c #5C2624",
"{  c #532926",
"}  c #5B2926",
"|  c #522629",
" . c #5E262A",
".. c #542A2A",
"X. c #5B2B2B",
"o. c #473029",
"O. c #4D322C",
"+. c #53332D",
"@. c #59342F",
"#. c #5D2F31",
"$. c #4B3531",
"%. c #553731",
"&. c #593531",
"*. c #573831",
"=. c #5D3A32",
"-. c #632625",
";. c #622926",
":. c #6A2927",
">. c #612728",
",. c #642D29",
"<. c #642C2B",
"1. c #6E2B28",
"2. c #6E2B2B",
"3. c #6A2C29",
"4. c #682E29",
"5. c #6B2E2A",
"6. c #6D2C2B",
"7. c #692A2C",
"8. c #6D2B2C",
"9. c #692E2C",
"0. c #6C2C2C",
"q. c #752E27",
"w. c #722F28",
"e. c #712C2B",
"r. c #772D2B",
"t. c #732D2D",
"y. c #742E2E",
"u. c #782D2A",
"i. c #792D2D",
"p. c #63302E",
"a. c #6F302B",
"s. c #6C312E",
"d. c #73302A",
"f. c #71302C",
"g. c #642E31",
"h. c #6A2E32",
"j. c #653232",
"k. c #6A3131",
"l. c #613B33",
"z. c #603B34",
"x. c #613C34",
/* pixels */
"l.l.l.l.l.l.l.l.l.l.l.l.l.l.l.l.l.l.l.l.l.l.l.l.l.l.l.l.=.$.$.%.l.l.l.l.l.l.l.l.l.l.l.l.l.l.l.l.l.l.l.l.l.l.l.l.l.l.l.l.l.l.l.l.",
"l.l.l.l.l.l.l.l.l.l.l.l.l.l.l.l.l.l.l.l.l.l.l.l.l.l.l.l.=.$.$.%.l.l.l.l.l.l.l.l.l.l.l.l.l.l.l.l.l.l.l.l.l.l.l.l.l.l.l.l.l.l.l.l.",
"l.l.l.l.l.l.l.l.l.l.l.l.l.l.l.l.l.l.l.l.l.l.l.l.l.l.l.l.=.$.$.%.l.l.l.l.l.l.l.l.l.l.l.l.l.l.l.l.l.l.l.l.l.l.l.l.l.l.l.l.l.l.l.l.",
"l.l.l.l.l.l.l.l.l.l.l.l.l.l.l.l.l.l.l.l.l.l.l.l.l.l.l.l.=.$.$.%.l.l.l.l.l.l.l.l.l.l.l.l.l.l.l.l.l.l.l.l.l.l.l.l.l.l.l.l.l.l.l.l.",
"l.l.l.l.l.l.l.l.l.l.l.l.l.l.l.l.l.l.l.l.l.l.l.l.l.l.l.l.=.$.$.%.l.l.l.l.l.l.l.l.l.l.l.l.l.l.l.l.l.l.l.l.l.l.l.l.l.l.l.l.l.l.l.l.",
"l.l.l.l.l.l.l.l.l.l.l.l.l.l.l.l.l.l.l.l.l.l.l.l.l.l.l.l.=.$.$.%.=.=.=.=.=.=.l.l.l.l.l.l.l.l.l.l.l.l.l.l.l.l.l.l.l.l.l.l.l.l.l.l.",
"l.l.l.l.l.l.l.l.l.l.l.l.l.l.l.l.l.l.l.l.l.l.l.l.l.l.=.O.' / / ` ' ' ' ' ' ' =.l.l.l.l.l.l.l.l.l.l.l.l.l.l.l.l.l.l.l.l.l.l.l.l.l.",
"l.l.l.l.l.l.l.l.l.l.l.l.l.l.l.l.l.l.l.l.l.l.l.l.l.l.=.J h h h h h h h h h x $.=.l.l.l.l.l.l.l.l.l.l.l.l.l.l.l.l.l.l.l.l.l.l.l.l.",
"l.l.l.l.l.l.l.l.l.l.l.l.l.l.l.l.l.l.l.l.l.l.l.l.l.l.=.~ j j j j j j j j j j +.=.=.l.l.l.l.l.l.l.l.l.l.l.l.l.l.l.l.l.l.l.l.l.l.l.",
"l.l.l.l.l.l.l.l.l.l.l.l.l.l.l.l.l.l.l.l.l.l.l.=.+.' ' ^ ^ ^ ^ ^ ^ ^ ^ ^ ^ ^ ' ' ' =.l.l.l.l.l.l.l.l.l.l.l.l.l.l.l.l.l.l.l.l.l.l.",
"l.l.l.l.l.l.l.l.l.l.l.l.l.l.l.l.l.l.l.l.l.l.l.=.J h Y | ] [ ] ] ] ] ] ] [ { ^ h h %.l.l.l.l.l.l.l.l.l.l.l.l.l.l.l.l.l.l.l.l.l.l.",
"l.l.l.l.l.l.l.l.l.l.l.l.l.l.l.l.l.l.l.l.l.x.l.=./ j ! [ [ [ [ [ [ [ [ [ >.[ ] Y j %.z.x.l.l.l.l.l.l.l.l.l.l.l.l.l.l.l.l.l.l.l.l.",
"l.l.l.l.l.l.l.l.l.l.l.l.l.l.l.l.l.l.l.l.=.O.' ' ( ^ [ 7.0.6.6.2.2.2.2.8.0.9.>.| ^ ' O.O.=.l.l.l.l.l.l.l.l.l.l.l.l.l.l.l.l.l.l.l.",
"l.l.l.l.l.l.l.l.l.l.l.l.l.l.l.l.l.l.l.l.=.x d Y | [ >.t.y.y.i.i.y.y.y.i.y.t.,.} ] ^ j h @.l.l.l.l.l.l.l.l.l.l.l.l.l.l.l.l.l.l.l.",
"l.l.l.l.l.l.l.l.l.l.l.l.l.l.l.l.l.l.=.=.=.~ j E } [ :.t.y.y.r.r.y.i.i.i.y.t.5.;. .] Y c %.=.=.l.l.l.l.l.l.l.l.l.l.l.l.l.l.l.l.l.",
"l.l.l.l.l.l.l.l.l.l.l.l.l.l.l.l.l.=./ / ` / ^ ] ,.5.w.r.u.r.r.w.d.r.r.i.y.y.6.6.0.>.] ( ( / L @.l.l.l.l.l.l.l.l.l.l.l.l.l.l.l.l.",
"l.l.l.l.l.l.l.l.l.l.l.l.l.l.l.l.l.%.x h R ^ ] } 5.a.w.r.y.u.q.q.r.r.r.r.y.y.w.t.f.5.} ] Y h d +.=.l.l.l.l.l.l.l.l.l.l.l.l.l.l.l.",
"l.l.l.l.l.l.l.l.l.l.l.l.l.l.l.l.l.%.x f T [ ;.:.6.w.6.6.2.w.u.u.u.r.w.6.6.2.w.t.t.8.:.[ T j h +.l.l.l.l.l.l.l.l.l.l.l.l.l.l.l.l.",
"l.l.l.l.l.l.l.l.l.l.l.l.l.l.l.l.l.%.c j W :.t.y.y.6.5.} -.:.r.i.i.r.w.5.>.-.:.w.t.t.0.9.] Y j +.l.l.l.l.l.l.l.l.l.l.l.l.l.l.l.l.",
"l.l.l.l.l.l.l.l.l.l.l.l.l.l.l.l.l.%.c f W 9.t.y.y.6.5.} [ ;.9.0.f.s.s.,.[ [ :.6.t.t.t.s.[ Y j +.l.l.l.l.l.l.l.l.l.l.l.l.l.l.l.l.",
"l.l.l.l.l.l.l.l.l.l.l.l.l.l.l.l.l.%.c f W 9.0.0.5.5.;.;.>.} | { ..{ { } } ;.:.5.5.w.t.0.[ Y j +.l.l.l.l.l.l.l.l.l.l.l.l.l.l.l.l.",
"l.l.l.l.l.l.l.l.l.l.l.l.l.l.l.l.l.&.c f W 9.0.,.} } ;.9.h.^ e 6 8 8 9 Y X.9.,.>.>.:.w.t.[ U j +.l.l.l.l.l.l.l.l.l.l.l.l.l.l.l.l.",
"l.l.l.l.l.l.l.l.l.l.l.l.l.l.l.l.l.@.c f W 9.0.5.[ [ X.p.j.~ w & & & + h #.k.,.[ [ -.w.t.[ U j +.l.l.l.l.l.l.l.l.l.l.l.l.l.l.l.l.",
"l.l.l.l.l.l.l.l.l.l.l.l.l.l.l.l.l.&.c f W 5.t.w.:.>.} | ) M , & & & # p ) | [ >.-.2.r.t.[ U h +.l.l.l.l.l.l.l.l.l.l.l.l.l.l.l.l.",
"l.l.l.l.l.l.l.l.l.l.l.l.l.l.l.l.l.&.c j W 5.w.t.t.h.] 9 $ > # & > > # # ; 6 Y ,.0.t.r.w.[ Y h +.l.l.l.l.l.l.l.l.l.l.l.l.l.l.l.l.",
"l.l.l.l.l.l.l.l.l.l.l.l.l.l.l.l.l.&.j f W ,.6.9.k.j.^ 8 & > > & > > > > & * h #.k.t.t.6.[ Y d +.l.l.l.l.l.l.l.l.l.l.l.l.l.l.l.l.",
"l.l.l.l.l.l.l.l.l.l.l.l.l.l.l.l.l.&.j f W 5.s.X.^ R h * > > , , > > < < < > t Y T [ 5.a.[ Y h +.l.l.l.l.l.l.l.l.l.l.l.l.l.l.l.l.",
"l.l.l.l.l.l.l.l.l.l.l.l.l.l.l.l.l.&.c f W 5.s.{ 9 $ * 1 1 1 1 1 1 4 1 1 1 1 , 6 7 U :.0.[ Y h +.l.l.l.l.l.l.l.l.l.l.l.l.l.l.l.l.",
"l.l.l.l.l.l.l.l.l.l.l.l.l.l.l.l.l.@.c f W 5.s.{ 8 & > 1 1 1 1 4 1 1 1 1 1 i 1 & $ j ,.s.[ U h +.l.l.l.l.l.l.l.l.l.l.l.l.l.l.l.l.",
"l.l.l.l.l.l.l.l.l.l.l.l.l.l.l.l.l.@.j f W 5.k...e > < 4 i i l V V B k 4 i y 4 < , j ,.s.[ Y h +.l.l.l.l.l.l.l.l.l.l.l.l.l.l.l.l.",
"l.l.l.l.l.l.l.l.l.l.l.l.l.l.l.l.l.@.j f E ,.k...p 4 4 4 i i V Z V Z Z V 4 2 4 1 r R ,.s.[ Y h +.l.l.l.l.l.l.l.l.l.l.l.l.l.l.l.l.",
"l.l.l.l.l.l.l.l.l.l.l.l.l.l.l.l.l.@.h h ^ ,.k...p 1 4 4 4 b V G V V V V v v 4 1 r ~ ,.s.] j h +.=.l.l.l.l.l.l.l.l.l.l.l.l.l.l.l.",
"l.l.l.l.l.l.l.l.l.l.l.l.l.l.l.l.l.+.r w Y ,.s.{ t 1 4 V V V V G F F V V V V 4 1 r ~ ,.s.E e w o.=.l.l.l.l.l.l.l.l.l.l.l.l.l.l.l.",
"l.l.l.l.l.l.l.l.l.l.l.l.l.l.l.l.z.+.* + d X.k.{ t r i V V Z V G Z Z V V V V i i r ~ p.p.T 5 $ ' =.l.l.l.l.l.l.l.l.l.l.l.l.l.l.l.",
"l.l.l.l.l.l.l.l.l.l.l.l.=.=.=.=.=.+., O a X.j...f p p V V V V V V V V V V V p p a ~ X.j.Y 6 $ ' =.l.l.l.l.l.l.l.l.l.l.l.l.l.l.l.",
"l.l.l.l.l.l.l.l.l.l.l.=.' L J / / H > O e ..X.} | ^ J p i b b b b b b i k i x _ | | X...j + # ' =.l.l.l.l.l.l.l.l.l.l.l.l.l.l.l.",
"l.l.l.l.l.l.l.l.l.l.l.=.i > X X # # # O e ' ..X.j.j._ p i 1 i i i i i 1 1 w c g.k.g...( h + O ' =.l.l.l.l.l.l.l.l.l.l.l.l.l.l.l.",
"l.l.l.l.l.l.l.l.l.=.=.=.i > & $ $ $ $ + e J / { ,.s.] j d p p p p p p t d d R ,.h. .^ / p $ $ ' =.l.l.l.l.l.l.l.l.l.l.l.l.l.l.l.",
"l.l.l.l.l.l.l.l.=.o.L L C i p H N N J J h e 8 h ] }  . ...................{ }  .} R a e e u p O.=.l.l.l.l.l.l.l.l.l.l.l.l.l.l.l.",
"l.l.l.l.l.l.l.l.@.r & , z C H ' ..( ( ' N + O 9 ^ |  .j.j.j.s.s.k.j.j.j.k.j.,.{ ^ h + + e h h +.l.l.l.l.l.l.l.l.l.l.l.l.l.l.l.l.",
"l.l.l.l.l.l.l.l.@.r & 1 z C J _ | | ^ ' J $ o w / _ | ....} }  . .X.......} ..^ ( j e 9 a j j +.x.x.x.l.l.l.l.l.l.l.l.l.l.l.l.l.",
"l.l.l.l.l.l.l.l.@.r > 1 z z J ( | | | ' J $ O 8 j Y j e 9 9 a 0 7 e w e e a g j j ~ { ..| | ^ ( $.$.%.l.l.l.l.l.l.l.l.l.l.l.l.l.",
"l.l.l.l.l.l.l.l.@.r > 1 V C H ` ( ( | ( N + o 6 g j e + o o o @ @ # # @ $ + 6 d j ] ,.s.,.] ..~ j h ' =.l.l.l.l.l.l.l.l.l.l.l.l.",
"l.l.l.l.l.l.l.l.=./ K K V i p H ~ ) ( ..~ 6 5 a Y Y f e 8 * - - = = = # , w r p h ! 9.t.5. .} ^ j h ' =.l.l.l.l.l.l.l.l.l.l.l.l.",
"l.l.l.l.l.l.l.l.l.l.l.=.i # # $ 6 d ^ ( ~ d a Y } ,.} ^ / K V S B 3 2 p ) P C * 6 f >.t.t.9.h.| j h ' =.l.l.l.l.l.l.l.l.l.l.l.l.",
"l.l.l.l.l.l.l.l.l.l.l.=.i # X # $ t ' ( ^ j f E @.j.,.} ( J C D B 4 i j ( ( H $ O a X.k.h.h.k.| j d ' =.l.l.l.l.l.l.l.l.l.l.l.l.",
"l.l.l.l.l.l.l.l.l.l.l.=.` J x c c / ` ^ ^ Y Y R ( { { } } ~ M V v 4 r j } } J $ O u ' ..X.X...~ d r ' =.l.l.l.l.l.l.l.l.l.l.l.l.",
"l.l.l.l.l.l.l.l.l.l.l.l.l.l.l.l.l.&.N j Y ^ _ ~ 9 7 Y X.p.^ t 1 b V z ~ ,.j.^ w $ y H H H J J t $ * / =.l.l.l.l.l.l.l.l.l.l.l.l.",
"l.l.l.l.l.l.l.l.l.l.l.l.l.l.l.l.l.&.N h Y _ ' J 6 5 s >.s.^ t 1 4 V z / p.j.' w ; 2 V G A G G 1 # # / =.l.l.l.l.l.l.l.l.l.l.l.l.",
"l.l.l.l.l.l.l.l.l.l.l.l.l.l.l.l.l.@.p e j _ ( ~ d a T [ X.~ p i b V l J ( ..J , # 2 V V V V V 4 : % / =.l.l.l.l.l.l.l.l.l.l.l.l.",
"l.l.l.l.l.l.l.l.l.l.l.l.l.l.l.l.l.+.w + a ^ ] } X.X.] U Y h C D b v 1 t h f t & % > 4 4 1 4 4 < : : / =.l.l.l.l.l.l.l.l.l.l.l.l.",
"l.l.l.l.l.l.l.l.l.l.l.l.l.l.l.l.l.+., o e ^ ] :.0.f.;.U f h C D m v 1 r h f e * # , 1 i y 1 1 < > > / =.l.l.l.l.l.l.l.l.l.l.l.l.",
"l.l.l.l.l.l.l.l.l.l.l.l.l.l.l.l.l.%.; o e ) ] ;.w.w.:.Q ^ J n m S b i h ~ ^ U f d e , , 1 2 1 C P / @.l.l.l.l.l.l.l.l.l.l.l.l.l.",
"l.l.l.l.l.l.l.l.l.l.l.l.l.l.l.l.l.%.> # w ) .. .0.w.w.6.p.^ i 4 v V C / &.h.,.p.@.J * X : X & ` =.l.l.l.l.l.l.l.l.l.l.l.l.l.l.l.",
"l.l.l.l.l.l.l.l.l.l.l.l.l.l.l.l.l.@.r $ t / ( } 9.a.d.w.s.^ p 1 B V C ` j.h.k.p.&.~ w > > & > o.=.l.l.l.l.l.l.l.l.l.l.l.l.l.l.l.",
"l.l.l.l.l.l.l.l.l.l.l.l.l.l.l.l.l.=.+.O.' H h Y  .,.5.w.s.| h i l l z J | | ^ Y R ' O.O.O.O.O.=.l.l.l.l.l.l.l.l.l.l.l.l.l.l.l.l.",
"l.l.l.l.l.l.l.l.l.l.l.l.l.l.l.l.l.l.l.l.%.r + e ^ ] ;.h.h...H C l 4 1 p h N u q $ ' =.l.l.l.l.l.l.l.l.l.l.l.l.l.l.l.l.l.l.l.l.l.",
"l.l.l.l.l.l.l.l.l.l.l.l.l.l.l.l.l.l.l.l.*.r $ t / ^ ..#.&.' H l k 1 1 i p n p ; , O.=.l.l.l.l.l.l.l.l.l.l.l.l.l.l.l.l.l.l.l.l.l.",
"l.l.l.l.l.l.l.l.l.l.l.l.l.l.l.l.l.l.l.l.=.+.+.O.x t d h h p , > & % & & , 2 H O.+.=.z.z.l.l.l.l.l.l.l.l.l.l.l.l.l.l.l.l.l.l.l.l.",
"l.l.l.l.l.l.l.l.l.l.l.l.l.l.l.l.l.l.l.l.l.l.l.=.r # O O O .   . . .     X X P =.l.z.l.z.l.l.l.l.l.l.l.l.l.l.l.l.l.l.l.l.l.l.l.l.",
"l.l.l.l.l.l.l.l.l.l.l.l.l.l.l.l.l.l.l.l.l.l.l.=.p * # & & X # # # # # # > > I =.l.l.l.l.l.l.l.l.l.l.l.l.l.l.l.l.l.l.l.l.l.l.l.l.",
"l.l.l.l.l.l.l.l.l.l.l.l.l.l.l.l.l.l.l.l.l.l.l.l.@.+.O.o.P P P o.O.O.O.O.O.O.=.l.l.l.l.l.l.l.l.l.l.l.l.l.l.l.l.l.l.l.l.l.l.l.l.l.",
"l.l.l.l.l.l.l.l.l.l.l.l.l.l.l.l.l.l.l.l.l.l.l.l.l.l.l.=.$.$.$.%.l.l.l.l.l.l.l.l.l.l.l.l.l.l.l.l.l.l.l.l.l.l.l.l.l.l.l.l.l.l.l.l.",
"l.l.l.l.l.l.l.l.l.l.l.l.l.l.l.l.l.l.l.l.l.l.l.l.l.l.l.=.$.$.$.%.l.l.l.l.l.l.l.l.l.l.l.l.l.l.l.l.l.l.l.l.l.l.l.l.l.l.l.l.l.l.l.l."
};
