/* XPM */
static char *_cb0bd8a26974552a1ced4f41b22fb8fmn5Q5udwMGhY0hlm[] = {
/* columns rows colors chars-per-pixel */
"64 64 159 2 ",
"   c #0C0705",
".  c #0B0A06",
"X  c #0D0C09",
"o  c #130605",
"O  c #190705",
"+  c #150906",
"@  c #1A0A06",
"#  c #12070B",
"$  c #140C0B",
"%  c #1B0C0B",
"&  c #0F100C",
"*  c #14110D",
"=  c #1C110D",
"-  c #130F10",
";  c #1A0D11",
":  c #131312",
">  c #1B1513",
",  c #171915",
"<  c #1D1A16",
"1  c #1A1518",
"2  c #1C1B1B",
"3  c #230D0B",
"4  c #2A0D0A",
"5  c #24110D",
"6  c #2B110F",
"7  c #250D10",
"8  c #280F12",
"9  c #241414",
"0  c #2A1414",
"q  c #231A16",
"w  c #2B1916",
"e  c #2C1719",
"r  c #231C1B",
"t  c #2C1C1B",
"y  c #331413",
"u  c #341915",
"i  c #3D1A16",
"p  c #341B1B",
"a  c #3C1B1B",
"s  c #1E221E",
"d  c #23211D",
"f  c #2B221E",
"g  c #34211E",
"h  c #3C211E",
"j  c #1E1C20",
"k  c #251E22",
"l  c #2D1E20",
"z  c #331E21",
"x  c #3B1E21",
"c  c #1E2121",
"v  c #242424",
"b  c #2A2525",
"n  c #262827",
"m  c #282827",
"M  c #252528",
"N  c #2C2529",
"B  c #26282A",
"V  c #282929",
"C  c #332322",
"Z  c #3D2322",
"A  c #3B2925",
"S  c #362529",
"D  c #392529",
"F  c #302C2C",
"G  c #3D2B2A",
"H  c #39302E",
"J  c #363130",
"K  c #3E3433",
"L  c #431915",
"P  c #421C1B",
"I  c #4B1E1E",
"U  c #44221E",
"Y  c #4B231F",
"T  c #50231E",
"R  c #421E21",
"E  c #432323",
"W  c #4C2525",
"Q  c #432B26",
"!  c #4A2926",
"~  c #422328",
"^  c #4D262A",
"/  c #442B2B",
"(  c #4C2B2A",
")  c #532524",
"_  c #5B2625",
"`  c #532926",
"'  c #5C2926",
"]  c #542629",
"[  c #592729",
"{  c #542B2B",
"}  c #5C2B2C",
"|  c #47312E",
" . c #4D322E",
".. c #52342E",
"X. c #5B302C",
"o. c #442E30",
"O. c #572C30",
"+. c #5D2C30",
"@. c #453431",
"#. c #4B3531",
"$. c #4D3935",
"%. c #533631",
"&. c #5C3432",
"*. c #543934",
"=. c #5C3A32",
"-. c #573D3B",
";. c #5B3F39",
":. c #622625",
">. c #632925",
",. c #6A2A27",
"<. c #632A2A",
"1. c #6C2C2B",
"2. c #722E2A",
"3. c #772D2B",
"4. c #722E2F",
"5. c #752E2D",
"6. c #752D2E",
"7. c #7B2E2B",
"8. c #7B2D2D",
"9. c #7A2E2D",
"0. c #64312D",
"q. c #6B312E",
"w. c #74302A",
"e. c #70302F",
"r. c #642E32",
"t. c #6C2F31",
"y. c #722E30",
"u. c #792E30",
"i. c #643233",
"p. c #6A3132",
"a. c #613B33",
"s. c #613B34",
"d. c #613C34",
"f. c #603F3A",
"g. c #643F38",
"h. c #703031",
"j. c #53413D",
"k. c #54403D",
"l. c #5D413A",
"z. c #5D403C",
"x. c #5E443F",
"c. c #63413A",
"v. c #63423B",
"b. c #67433B",
"n. c #61453F",
"m. c #67463E",
"M. c #68443D",
"N. c #5F4641",
"B. c #5F4945",
"V. c #654642",
"C. c #674841",
"Z. c #614A46",
"A. c #674944",
"S. c #6A4942",
"D. c #694B47",
"F. c #644D48",
"G. c #654C49",
"H. c #6A4C48",
"J. c #6D4F48",
/* pixels */
"a.a.a.a.a.a.a.a.a.a.a.a.a.a.a.a.a.a.a.a.a.a.a.a.a.a.a.a.=.#.#.%.a.a.a.a.a.a.a.a.a.a.a.a.a.a.a.a.a.a.a.a.a.a.a.a.a.a.a.a.a.a.a.a.",
"a.a.a.a.a.a.a.a.a.a.a.a.a.a.a.a.a.a.a.a.a.a.a.a.a.a.a.a.=.#.#.%.a.a.a.a.a.a.a.a.a.a.a.a.a.a.a.a.a.a.a.a.a.a.a.a.a.a.a.a.a.a.a.a.",
"a.a.a.a.a.a.a.a.a.a.a.a.a.a.a.a.a.a.a.a.a.a.a.a.a.a.a.a.=.#.#.%.a.a.a.a.a.a.a.a.a.a.a.a.a.a.a.a.a.a.a.a.a.a.a.a.a.a.a.a.a.a.a.a.",
"a.a.a.a.a.a.a.a.a.a.a.a.a.a.a.a.a.a.a.a.a.a.a.a.a.a.a.a.=.#.#.%.a.a.a.a.a.a.a.a.a.a.a.a.a.a.a.a.a.a.a.a.a.a.a.a.a.a.a.a.a.a.a.a.",
"a.a.a.a.a.a.a.a.a.a.a.a.a.a.a.a.a.a.a.a.a.a.a.a.a.a.=.=.=.#.#.%.=.=.=.=.=.=.a.a.a.a.a.a.a.a.a.a.a.a.a.a.a.a.a.a.a.a.a.a.a.a.a.a.",
"a.a.a.a.a.a.a.a.a.a.a.a.a.a.a.a.a.a.a.a.a.a.a.a.a.%.( ( ( / G / ( ( ( ( ! &.a.a.a.a.a.a.a.a.a.a.a.a.a.a.a.a.a.a.a.a.a.a.a.a.a.a.",
"a.a.a.a.a.a.a.a.a.a.a.a.a.a.a.a.a.a.a.a.a.a.a.a.a.( p p p p p p p p p p t ..=.a.a.a.a.a.a.a.a.a.a.a.a.a.a.a.a.a.a.a.a.a.a.a.a.a.",
"a.a.a.a.a.a.a.a.a.a.a.a.a.a.a.a.a.a.a.a.a.a.a.=.=.( a a a a a a a a a a x ..=.=.a.a.a.a.a.a.a.a.a.a.a.a.a.a.a.a.a.a.a.a.a.a.a.a.",
"a.a.a.a.a.a.a.a.a.a.a.a.a.a.a.a.a.a.a.a.a.a...Q ! ( ^ ` ^ ^ ^ ) ` ^ ^ ^ ^ ( E / =.a.a.a.a.a.a.a.a.a.a.a.a.a.a.a.a.a.a.a.a.a.a.a.",
"a.a.a.a.a.a.a.a.a.a.a.a.a.a.a.a.a.a.a.d.d.d.Q p p E ` [ [ [ _ ' ' ' [ ] ] R p p ..a.d.a.a.a.a.a.a.a.a.a.a.a.a.a.a.a.a.a.a.a.a.a.",
"a.a.a.a.a.a.a.a.a.a.a.a.a.a.a.a.a.a.a.b.m.S. .h P W ' ' ' ' :.:.:.' ' ' ' I a a %.c.m.b.d.a.a.a.a.a.a.a.a.a.a.a.a.a.a.a.a.a.a.a.",
"a.a.a.a.a.a.a.a.a.a.a.a.a.a.a.a.a.a.d.x.k.-.{ ^ ) ' 1.1.1.1.1.1.2.1.1.1.1.' ) !  .*.j.n.d.a.a.a.a.a.a.a.a.a.a.a.a.a.a.a.a.a.a.a.",
"a.a.a.a.a.a.a.a.a.a.a.a.a.a.a.a.d.d.d.#.g a W [ ' <.4.5.5.5.5.3.7.9.5.5.h.<.' ` P p p *.d.d.s.a.a.a.a.a.a.a.a.a.a.a.a.a.a.a.a.a.",
"a.a.a.a.a.a.a.a.a.a.a.a.a.a.a.a.m.S.C.*.Z P ) ' :.1.5.9.9.9.9.7.7.7.3.5.5.1.:._ W a Z z.D.J.b.d.a.a.a.a.a.a.a.a.a.a.a.a.a.a.a.a.",
"a.a.a.a.a.a.a.a.a.a.a.a.a.a.a.g.F.$.| ! ! ) <.1.1.2.5.9.9.9.9.3.3.3.3.3.5.4.1.<._ W ! ( @.N.D.g.a.a.a.a.a.a.a.a.a.a.a.a.a.a.a.a.",
"a.a.a.a.a.a.a.a.a.a.a.a.a.a.a.b.Z.Z a U ) _ ,.2.3.3.3.3.9.9.9.3.2.w.3.3.3.5.e.e.<._ ` U p / H.g.a.a.a.a.a.a.a.a.a.a.a.a.a.a.a.a.",
"a.a.a.a.a.a.a.a.a.a.a.a.a.a.a.M.F.Z a ) ' >.,.2.5.1.1.1.4.9.9.9.5.3.2.1.1.2.5.5.1.:.<.W a o.H.d.a.a.a.a.a.a.a.a.a.a.a.a.a.a.a.a.",
"a.a.a.a.a.a.a.a.a.a.a.a.a.a.a.M.F.Z P ' 1.2.3.5.y.1.:.:.1.4.u.u.u.4.,.:.:.1.4.5.5.2.1.[ a / D.d.a.a.a.a.a.a.a.a.a.a.a.a.a.a.a.a.",
"a.a.a.a.a.a.a.a.a.a.a.a.a.a.a.M.F.Z P ' 1.4.2.4.t.<.' ' <.p.p.p.t.p.<.' _ 1.4.5.5.5.y._ a / H.d.a.a.a.a.a.a.a.a.a.a.a.a.a.a.a.a.",
"a.a.a.a.a.a.a.a.a.a.a.a.a.a.a.M.F.Z a ' 1.4.1.1.1.<.<.} { { { { { } } } <.<.1.1.2.5.t.) a / D.d.a.a.a.a.a.a.a.a.a.a.a.a.a.a.a.a.",
"a.a.a.a.a.a.a.a.a.a.a.a.a.a.a.M.F.E P ' 1.1.>.' ' <.t.r.E 0 5 3 3 y W r.t.<._ :.1.5.y.) a / D.g.a.a.a.a.a.a.a.a.a.a.a.a.a.a.a.a.",
"a.a.a.a.a.a.a.a.a.a.a.a.a.a.a.M.F.E P ' 1.1.:._ :.1.t.i.Z % $ $ $ 3 W i.p.<._ ) 1.5.y._ a / A.d.a.a.a.a.a.a.a.a.a.a.a.a.a.a.a.a.",
"a.a.a.a.a.a.a.a.a.a.a.a.a.a.a.M.F.Z P ' 1.4.1.<.<.[ ` ! t * : : $ > Z ^ ] [ } <.1.5.y._ P / A.d.a.a.a.a.a.a.a.a.a.a.a.a.a.a.a.a.",
"a.a.a.a.a.a.a.a.a.a.a.a.a.a.a.M.Z.Z a ' 4.u.y.h.t.P 5 % * : : : * * $ % 3 ^ t.t.4.5.t._ P / A.d.a.a.a.a.a.a.a.a.a.a.a.a.a.a.a.a.",
"a.a.a.a.a.a.a.a.a.a.a.a.a.a.a.g.;.Z P ' 4.4.t.p.&.h = $ * : : : : * * * % E r.t.1.t.t.[ P / V.d.a.a.a.a.a.a.a.a.a.a.a.a.a.a.a.a.",
"a.a.a.a.a.a.a.a.a.a.a.a.a.a.a.a.%.h P ' 1.1.) P x w > > , , , , , , , : > t P I <.t.1._ P / V.d.a.a.a.a.a.a.a.a.a.a.a.a.a.a.a.a.",
"a.a.a.a.a.a.a.a.a.a.a.a.a.a.a.a.%.h L ' q.0.i 3 % > q 2 2 2 2 2 1 2 2 2 2 > % 4 ) 1.t._ P / V.d.a.a.a.a.a.a.a.a.a.a.a.a.a.a.a.a.",
"a.a.a.a.a.a.a.a.a.a.a.a.a.a.a.a...a L _ q.0.i 3 > 1 2 2 2 2 2 2 2 2 2 2 2 : * 5 W 1.t._ P / c.d.a.a.a.a.a.a.a.a.a.a.a.a.a.a.a.a.",
"a.a.a.a.a.a.a.a.a.a.a.a.a.a.a.a...a L _ 0.0.a 9 1 1 2 2 2 v v v v v c 2 2 1 < 9 ) q.t._ a E f.d.a.a.a.a.a.a.a.a.a.a.a.a.a.a.a.a.",
"a.a.a.a.a.a.a.a.a.a.a.a.a.a.a.a.%.h i ) 0.0.a w 2 2 2 2 v m V b b m c 2 2 2 2 q ^ p.t.[ a A ;.d.a.a.a.a.a.a.a.a.a.a.a.a.a.a.a.a.",
"a.a.a.a.a.a.a.a.a.a.a.a.a.a.a.a. .p a ] r.i.P w 2 2 2 2 v m m m m m c 2 2 2 2 w ` p.p.` p A ;.d.a.a.a.a.a.a.a.a.a.a.a.a.a.a.a.a.",
"a.a.a.a.a.a.a.a.a.a.a.a.a.a.a.a.( 9 8 W r.i.P w 2 r v v m V V n n m m v v s < w ` p.i.E 5 w =.d.a.a.a.a.a.a.a.a.a.a.a.a.a.a.a.a.",
"a.a.a.a.a.a.a.a.a.a.a.a.a.a.a.a.Q $ @ W i.i.P 0 q d m m V V B n n B V V m d q 0 ^ i.i.a @ q ;.d.a.a.a.a.a.a.a.a.a.a.a.a.a.a.a.a.",
"a.a.a.a.a.a.a.a.a.a.a.a.a.a.a.a.Q $ @ E i.r.P u t f v m m m M V V V v b b f w u ) i.&.p @ q ;.=.=.=.=.=.a.a.a.a.a.a.a.a.a.a.a.a.",
"a.a.a.a.a.a.a.a.a.a.a.a.a.a.a.a.Q * $ a } } [ { ( C r 2 2 2 r j j j r r w A ( { [ } ( w + * t t t t t C %.a.a.a.a.a.a.a.a.a.a.a.",
"a.a.a.a.a.a.a.a.a.a.a.a.a.a.a.a.Q $ + a { [ <.p.i.E q q q q q q q q q 9 0 ! i.p.<.{ ! w + o X X # # - :  .=.d.a.a.a.a.a.a.a.a.a.",
"a.a.a.a.a.a.a.a.a.a.a.a.a.a.a.a./ % @ p E ^ } t.r.W p p p p p p p p u u i ` 0.p.] W E p 3 % % % ; ; : 1 $.c.c.d.a.a.a.a.a.a.a.a.",
"a.a.a.a.a.a.a.a.a.a.a.a.a.a.a.a. .t w 9 5 6 I [ } [ } } } } } } +.} } } } _ _ { a 0 0 p E ~ ~ ~ D b b v F J K ;.d.a.a.a.a.a.a.a.",
"a.a.a.a.a.a.a.a.a.a.a.a.a.d.d.d...h p 5 @ 3 P ` ` } i.i.i.p.p.p.p.p.p.i.i.' ` ! 0 $ @ p ! { { { ( D N b 1 : , $.s.a.a.a.a.a.a.a.",
"a.a.a.a.a.a.a.a.a.a.a.a.a.b.n.c.%.U h u u u R ^ W ^ ^ ^ ^ ^ ^ ^ ^ ] ` ^ W W ! E 9 $ @ p ! ] [ { ( D N b 1 : 1 $.d.a.a.a.a.a.a.a.",
"a.a.a.a.a.a.a.a.a.a.a.a.a.*.G Q ! W ) ` X.{ W a a y 3 3 3 3 3 3 3 7 3 3 5 p a p 9 o @ p ! [ ] ] / S N m 1 : 1 *.d.a.a.a.a.a.a.a.",
"a.a.a.a.a.a.a.a.a.a.a.a.a. .p u U ) _ <.q.0.Y a p 9 @ o o o . . # # o o @ 0 a x 9 + @ p ^ ] ] ( / S b m 1 : 1 $.d.a.a.a.a.a.a.a.",
"a.a.a.a.a.a.a.a.a.a.a.a.a. .a P T ' >.1.4.1.P 0 9 e 9 9 = $ & * : : > 9 w a W ^ p 5 6 a ^ ^ R x z t r 2 H @.$.l.d.a.a.a.a.a.a.a.",
"a.a.a.a.a.a.a.a.a.a.a.a.a. .a P [ 0.1.4.4.<.i @ @ p / / C q < d m b A / ! } i.i.W p a E ^ W 0 % $ # $ :  .s.d.d.a.a.a.a.a.a.a.a.",
"a.a.a.a.a.a.a.a.a.a.a.a.a. .g a { i.p.t.p.&.u O o p ^ ( Z q 2 v b C / ! ' <.p.i.W a a E ! / w % $ $ X ,  .=.a.a.a.a.a.a.a.a.a.a.",
"a.a.a.a.a.a.a.a.a.a.a.a.a.| w w Z ( { { ( / w + @ a { } Z q d d d f / } } ) W ! U U U E E / | Q A A G @.=.a.a.a.a.a.a.a.a.a.a.a.",
"a.a.a.a.a.a.a.a.a.a.a.a.a./ > * r C C C C b > $ % E i.i.( f b r < q W i.i.a 4 3 a ^ ^ E a / C.d.d.d.g.g.d.a.a.a.a.a.a.a.a.a.a.a.",
"a.a.a.a.a.a.a.a.a.a.a.a.a./ , : 2 m b b b b < * $ Z i.i.( C b r < w ^ i.&.a 3 3 R ^ ^ R a / A.d.a.a.a.a.a.a.a.a.a.a.a.a.a.a.a.a.",
"a.a.a.a.a.a.a.a.a.a.a.a.a./ , : 1 v v v s d : * * p ^ ^ h d d d k t E ^ ` Y P P ^ ] ! a 0 C V.d.a.a.a.a.a.a.a.a.a.a.a.a.a.a.a.a.",
"a.a.a.a.a.a.a.a.a.a.a.a.a./ , : , 2 2 2 2 2 * $ + w a a w < 2 v N b g a L ' q.p.[ { ! p @ r N.d.a.a.a.a.a.a.a.a.a.a.a.a.a.a.a.a.",
"a.a.a.a.a.a.a.a.a.a.a.a.a./ > , 2 2 2 2 < < = % 5 u i i w < s v N b C a L :.4.1.<.{ ^ u + r N.d.a.a.a.a.a.a.a.a.a.a.a.a.a.a.a.a.",
"a.a.a.a.a.a.a.a.a.a.a.a.a.=.....A : * * * = p E U W ` ` Z f v k k l Z ^ _ ,.5.4.<.[ ^ e $ r B.d.a.s.a.a.a.a.a.a.a.a.a.a.a.a.a.a.",
"a.a.a.a.a.a.a.a.a.a.a.a.a.a.a.a.Q * . . . % / &.p.q.p.i.( C b k 2 q W 0.q.4.4.h.<.{ ( e $ r B.d.a.a.a.a.a.a.a.a.a.a.a.a.a.a.a.a.",
"a.a.a.a.a.a.a.a.a.a.a.a.a.a.a.a.( > * * * 9 / &.<.q.q.&.! C b v r w ^ 0.4.4.1.p.} ! / C > b N.d.a.a.a.a.a.a.a.a.a.a.a.a.a.a.a.a.",
"a.a.a.a.a.a.a.a.a.a.a.a.a.a.a.a.=...........Z t u P W E g r r d f p { t.1.<.} { x 0 t @...%.d.a.a.a.a.a.a.a.a.a.a.a.a.a.a.a.a.a.",
"a.a.a.a.a.a.a.a.a.a.a.a.a.a.a.a.a.a.a.a.a.a.p * $ w p p t q 2 d f g { i.t.[ ! / r $ > #.=.a.a.a.a.a.a.a.a.a.a.a.a.a.a.a.a.a.a.a.",
"a.a.a.a.a.a.a.a.a.a.a.a.a.a.a.a.a.a.a.a.a.a.Q q q w t w q < < 2 d f ! { O.! / G l q t %.a.a.a.a.a.a.a.a.a.a.a.a.a.a.a.a.a.a.a.a.",
"a.a.a.a.a.a.a.a.a.a.a.a.a.a.a.a.a.a.a.a.a.a.=.=.=.C % $ $ . . X X $ % 9 0 7 3 9 ( &.=.a.a.a.a.a.a.a.a.a.a.a.a.a.a.a.a.a.a.a.a.a.",
"a.a.a.a.a.a.a.a.a.a.a.a.a.a.a.a.a.a.a.a.a.a.a.a.=.g $ X .   . . . .   o # o o $ ( =.a.a.a.a.a.a.a.a.a.a.a.a.a.a.a.a.a.a.a.a.a.a.",
"a.a.a.a.a.a.a.a.a.a.a.a.a.a.a.a.a.a.a.a.a.a.a.a.a./ q < < > > < < < > > 9 > > r ..a.a.a.a.a.a.a.a.a.a.a.a.a.a.a.a.a.a.a.a.a.a.a.",
"a.a.a.a.a.a.a.a.a.a.a.a.a.a.a.a.a.a.a.a.a.a.a.a.a.=.=.%...@.@.#.=.=.=.=.=.=.%.=.a.a.a.a.a.a.a.a.a.a.a.a.a.a.a.a.a.a.a.a.a.a.a.a.",
"a.a.a.a.a.a.a.a.a.a.a.a.a.a.a.a.a.a.a.a.a.a.a.a.s.a.a.=.#.#.#.%.a.a.a.a.a.a.a.a.a.a.a.a.a.a.a.a.a.a.a.a.a.a.a.a.a.a.a.a.a.a.a.a.",
"a.a.a.a.a.a.a.a.a.a.a.a.a.a.a.a.a.a.a.a.a.a.a.a.a.a.a.=.#.#.#.%.s.s.a.a.a.a.a.a.a.a.a.a.a.a.a.a.a.a.a.a.a.a.a.a.a.a.a.a.a.a.a.a.",
"a.a.a.a.a.a.a.a.a.a.a.a.a.a.a.a.a.a.a.a.a.a.a.a.a.a.a.=.#.#.#.%.s.a.a.a.a.a.a.a.a.a.a.a.a.a.a.a.a.a.a.a.a.a.a.a.a.a.a.a.a.a.a.a."
};
