/* XPM */
static char *eaea9a485d484161923e1a8fbbe57901j3AHa1W2o9jd9gu6[] = {
/* columns rows colors chars-per-pixel */
"64 64 35 1 ",
"  c #2E1312",
". c #341514",
"X c #3B1514",
"o c #351817",
"O c #391817",
"+ c #391718",
"@ c #3D1B1A",
"# c #421D1C",
"$ c #44201C",
"% c #44201F",
"& c #49221F",
"* c #442020",
"= c #452120",
"- c #492322",
"; c #4C2322",
": c #492422",
"> c #4C2523",
", c #4B2524",
"< c #4F2727",
"1 c #4E2826",
"2 c #502725",
"3 c #522A27",
"4 c #532B29",
"5 c #542B28",
"6 c #542B29",
"7 c #552D2B",
"8 c #562E2C",
"9 c #582E2C",
"0 c #5A312F",
"q c #5B312F",
"w c #5B3330",
"e c #5D3332",
"r c #5D3432",
"t c #5F3534",
"y c #613735",
/* pixels */
"--=@@@@.   .XXXXXOOOO=---##@@@OXOXXXXXX#---=@OOO@=---3444<XXXX-5",
"<<,%===O....OOOO#-===----------====@@@@@#############:<<<-XXXX-<",
"441----@OOOO@##@-4554,---<444444453##@@XXXXX%---%OOOO%---=XXXX#-",
"44<----@OOOO@@@@:4554:---<444444443#@@@XXXXX=---%OOOO=---=XXXX#-",
"441----@OOOO@@@@:4444>---<444444443#@@@XXXXX%---%OOOO=---=XXXX#-",
"34<====#OOO@####<7775<<,><443344443%###OXXXX-<<<-#@@#%===#XXXX#=",
";;%@OO@#%==-<<339rrrrreee4;;;;344444444#XXOO<4443---=#@@@@OOOO@@",
"--#OOOO#---<44440yyyyyyyy8----344444445#XOO@<4443----#@@@@OOOO@@",
"--#OOOO%:--<44440yyyyyyyy8----344444444#OOO@<4443----#@@@@OOOO@@",
"--#OOOO%:-->44440yyyyyyyy8----344444443#OOO@<4443----#@@@@OOOO@@",
"###XXXX%<<<400wwryyyy09985<<2<><<<>%%######%<<<<<<2<<-===#OOOO..",
"@@@XXXX&4438yyyyyyyyy844444444>----@OOO#::------<4444<---=OOOO. ",
"@@@XXXX&4448yyyyyyyyy734444444>----OOOO#--------<4334>---=OOOO. ",
"@@@XXXX&4437yyyyyyyyy733444444>---=OOOO#--------<4344>---=OOOO. ",
"@@@XXXX&4437rrrrrtytr744443333:--==OXXX#----::::<4777<--:-OOOO. ",
"OO.....%5443><<<3777744443-:::#@@OOXXXX#---:14447rrrr7333<OOOOXX",
"OO.    %5443----<44444444<----@XOOXXXXX#----44447yyyt7444<OOOOXX",
"OO.    %5443----<44444444<----@OOOXXXXX#----44447yyyy7444<OOOOXX",
"OO.    %5343----<444544441----@OOOXXXXX#---:44447yyyy7444<OOOXXX",
".......%323<<<<<<3332>---%#################%<32<5yyyy09985%#####",
"  .+O+O%:--<4444<----#XXXXXXXX-4444:---#OOOO=---3tyyyyyyyr5444<-",
"  .OOOO%---<4445<----XXXXXXXXX:4444:---#XXOO=---1tyyyyyyyr5444<-",
"  .OOOO=---<4445<----XXXXXXXXX:4444:---#OOOO=---<tyyyyyyyr5444<-",
"...@@@@%===-1331--&%%@XXXXXXXX<4443,:::#OOO@#%=-<werrrrrre7777<<",
"11,=-=%@@@@@@@OOXXXXX#=-------143444443>=--=@XXX#::<<47778rrrrtr",
"44<---=@OXXOOOOOXXXXX#--------143344443<----XXXXO---;34447yyyyyy",
"44<----@OOOOOOOOXXXXX%--------144444444<----XXXXO----34447yyyyyy",
"44<----@OOOOOOOOXXXXX%--------144444444<----XXXXX---:35447tyyyyy",
"884<<<<#@@@O.....XXXX%---:<<<<<2<<244441<<<:XXXXX####---->90eeyy",
"yyw4444:---@    .OOOO%---<4444:---:344444443OXXXXXXXXXOOO@3445ey",
"yye4443----#    .OOOO=---<4444:---:344444443OXXXXXXXXXOOO@3444ey",
"yy04443----#    .OOOO=---<4444:---:344444443OXXXXXXXXXOOO@3444ey",
"yt04443----#    .OOOO=---<4444>---:34454444<XXXXXXXXXXOOO@3444ey",
"9774443----#    .OOOO:4118eeew434434444-###@..........OOO@><<<57",
"4444443----#    .OOOO<4440yyyy844444434#XOO..        .OOO@----34",
"4444443----#    .OOOO<4440yyyy844444444#OOOO.        .OOO@----34",
"4444443:---#    .OOOO<5540yyyy844444443#OOO+.        .OOO@----34",
"4443333-==%@........O=<--300003<<<<-&&#O..........oo.OOOOO#===,<",
"443:::-@@OOXXXXX. ...XOOO-4444>----XXXX.    .OOOO@@@@OOOOO@@@@=-",
"443---=@OOOXXXXX.    .OOO%4444>----XXXX.    .OOOO@@@@OOOOO@@@@=-",
"443---=OOOOXXXXX.    .OOO%4444>---=XXXX.    .OOOO@@@@OOOOO@@@@=-",
"44<---=@OOOXXXXX.    .OOO#4444>---%XXXX.   ..OOOO@@@@OOOOO@@@#%-",
",<-@@@#-,,,-####OXXX.XOOOO@#@@@OOO#-:::%####:,,<:=%%%OXXXX%%%%#@",
"--#OXX@<4453----#XXXXXOOOOOOOOXXXXX<444<---:44443----OXXXX----@O",
"--#OOO@44443----#XXXXXOOOOOOOOXXXXX3444<---:44443----OXXXX----@O",
"--#OOX@34443----#XXXXXOOOOOOOOXXXXX3444<---:44443----OXXXX----@O",
"::-#@##47773:::<#XXXXXOOOOOOOOXXXX@<333<,,,<47775>:::OXXXX-:::#@",
"4444445rttt04444#XXXXXOOOOOOOO@@@@#::--14444eyyye4444@XXXO1444,-",
"4444447ryyye4444#XXXXXOOOOOOOO@@@@#----14447ryyyr5444@XXXO3454<-",
"4444447tyyye4444#XXXXXOOOOOOOO@@@@#=---14447ryyyr5444@XXXO3454<-",
"4444447ryyye4444#XXXXXOOOOOOOO@@@@#=---14447ryyye5443#XXXO3445<-",
"447000988773=%%%#OOOOOOOO.....@%##%<<<<<<<<<80008<<<<#######&%##",
"448yyyr<---#OOOO@@@@@OOOO.    #:--:3444<----44443--------%XXXXXX",
"448yyyr<---%OOOO@@@@@OOOO.    #:--:3444<----44443--------%XXXXXX",
"448yyyr<---#OOOOO@@@@OOOO.    #---:3444<----44343--------%XXXXXO",
"447rre0-%%%#@@@@#=###OOOO.    @%%%&1333<,,:<44443--------=XXXXO@",
"4445553@OOO@=---<444<@@@@O    .OOO@=---1444444443--------=#@@@%-",
"4444443@OOO@----<444<#@@@O    .OOOO=---<444444453--------=#@@@=-",
"4444443@XOO@----<444<#@@@O    .OOOO=---<444444443--------=#@@@=-",
"4444443@XOO@----<444<#@@@O    .OOOO=---1444444443--------=#@@@=-",
"<<<:--=####=<<<<40008<---@.....OOOO@############&--------=@@@@##",
"--%@@@#=---<44440yyyr5554=XOOOOOOOOOOOOXXXXXXXXXO--------=XXXX@@",
"--%@@@#=---<44440yyyr5444=XOOOOOOOOOOOOXXXXXXXXXO--------=XXXX@@",
"--%@@@#----<4444wyyyr5444=OOOOOOOOOOOOOXXXXXXXXX@--------=XXXX@@"
};
